<svg xmlns="http://www.w3.org/2000/svg" width="15.279" height="18.161" viewBox="0 0 15.279 18.161">
  <g id="Group_383" data-name="Group 383" transform="translate(0 0)">
    <path id="Path_1714" data-name="Path 1714" d="M58.036,11.233a.759.759,0,0,0-.99,0c-.734.634-7.146,6.3-7.146,10.338a7.639,7.639,0,1,0,15.279,0C65.179,17.538,58.766,11.867,58.036,11.233Zm-.5,16.465a6.134,6.134,0,0,1-6.127-6.127c0-2.606,4.044-6.846,6.127-8.751,2.083,1.905,6.127,6.146,6.127,8.751A6.136,6.136,0,0,1,57.539,27.7Z" transform="translate(-49.9 -11.05)" fill="#513c5b"/>
  </g>
</svg>
