<svg width="24" height="24" viewBox="0 0 24 24" fill="none" xmlns="http://www.w3.org/2000/svg">
<path d="M17.876 14.4661C16.2309 14.4661 14.8926 15.8044 14.8926 17.4495C14.8926 19.0946 16.2309 20.433 17.876 20.433C19.5214 20.433 20.8595 19.0946 20.8595 17.4495C20.8595 15.8044 19.5211 14.4661 17.876 14.4661ZM17.876 18.9413C17.0534 18.9413 16.3843 18.2722 16.3843 17.4495C16.3843 16.6269 17.0534 15.9578 17.876 15.9578C18.6987 15.9578 19.3678 16.6269 19.3678 17.4495C19.3678 18.2722 18.6987 18.9413 17.876 18.9413Z" fill="#212529"/>
<path d="M7.68219 14.4661C6.03708 14.4661 4.69873 15.8044 4.69873 17.4495C4.69873 19.0946 6.03708 20.433 7.68219 20.433C9.3273 20.433 10.6656 19.0946 10.6656 17.4495C10.6656 15.8044 9.3273 14.4661 7.68219 14.4661ZM7.68219 18.9413C6.85952 18.9413 6.19046 18.2722 6.19046 17.4495C6.19046 16.6269 6.85952 15.9578 7.68219 15.9578C8.50463 15.9578 9.17392 16.6269 9.17392 17.4495C9.17392 18.2722 8.50486 18.9413 7.68219 18.9413Z" fill="#212529"/>
<path d="M19.8848 5.92648C19.758 5.67463 19.5002 5.51575 19.2183 5.51575H15.29V7.00748H18.7583L20.7893 11.0471L22.1224 10.3768L19.8848 5.92648Z" fill="#212529"/>
<path d="M15.6383 16.7285H9.99463V18.2202H15.6383V16.7285Z" fill="#212529"/>
<path d="M5.44474 16.7285H2.85912C2.44714 16.7285 2.11328 17.0624 2.11328 17.4744C2.11328 17.8863 2.44719 18.2202 2.85912 18.2202H5.44479C5.85677 18.2202 6.19063 17.8863 6.19063 17.4744C6.19063 17.0624 5.85673 16.7285 5.44474 16.7285Z" fill="#212529"/>
<path d="M23.5121 12.1689L22.045 10.2793C21.904 10.0973 21.6865 9.99092 21.456 9.99092H16.036V4.76989C16.036 4.35791 15.7021 4.02405 15.2902 4.02405H2.85912C2.44714 4.02405 2.11328 4.35795 2.11328 4.76989C2.11328 5.18183 2.44719 5.51573 2.85912 5.51573H14.5443V10.7368C14.5443 11.1487 14.8782 11.4826 15.2901 11.4826H21.0907L22.1769 12.8818V16.7285H20.1134C19.7014 16.7285 19.3675 17.0624 19.3675 17.4743C19.3675 17.8863 19.7014 18.2202 20.1134 18.2202H22.9228C23.3348 18.2202 23.6687 17.8863 23.6687 17.4743V12.6263C23.6687 12.4607 23.6135 12.2996 23.5121 12.1689Z" fill="#212529"/>
<path d="M5.39509 12.9495H1.9641C1.55212 12.9495 1.21826 13.2834 1.21826 13.6953C1.21826 14.1073 1.55217 14.4411 1.9641 14.4411H5.39505C5.80703 14.4411 6.14089 14.1072 6.14089 13.6953C6.14089 13.2834 5.80703 12.9495 5.39509 12.9495Z" fill="#212529"/>
<path d="M7.11055 10.0157H0.745841C0.333904 10.0157 0 10.3497 0 10.7616C0 11.1736 0.333904 11.5075 0.745841 11.5075H7.11055C7.52253 11.5075 7.85639 11.1736 7.85639 10.7616C7.85639 10.3497 7.52253 10.0157 7.11055 10.0157Z" fill="#212529"/>
<path d="M8.32881 7.08203H1.9641C1.55212 7.08203 1.21826 7.41594 1.21826 7.82787C1.21826 8.23986 1.55217 8.57371 1.9641 8.57371H8.32881C8.74079 8.57371 9.07465 8.23981 9.07465 7.82787C9.07465 7.41594 8.74079 7.08203 8.32881 7.08203Z" fill="#212529"/>
</svg>
