<svg width="201" height="205" viewBox="0 0 201 205" fill="none" xmlns="http://www.w3.org/2000/svg">
<path d="M52.2829 7.98107C54.0033 9.68487 55.8158 11.2884 57.8318 12.6291C68.1153 19.4689 98.7118 35.9265 147.239 29.2004C207.871 20.7965 198.976 81.7592 190.251 98.0068C181.527 114.254 149.44 144.039 146.745 158.962C144.05 173.885 155.582 214.644 128.561 202.413C101.54 190.183 85.93 161.536 50.4627 164.865C14.9954 168.195 -10.0667 152.478 5.63328 124.398C21.3333 96.3183 40.1039 78.1982 16.1455 46.9205C-7.14787 16.5128 32.0874 -12.0199 52.2829 7.98107Z" fill="#FFFADA"/>
<path d="M113.806 39.4834C113.356 39.0307 113.099 38.4217 113.088 37.7837C113.077 37.1458 113.313 36.5282 113.747 36.0602L129.745 18.7926C129.972 18.548 130.245 18.3517 130.55 18.2157C130.854 18.0796 131.183 18.0064 131.516 18.0007C131.85 17.9949 132.181 18.0566 132.49 18.182C132.798 18.3075 133.079 18.4941 133.314 18.7307L134.695 20.1214C134.93 20.358 135.114 20.6397 135.238 20.9495C135.361 21.2593 135.42 21.5909 135.412 21.9242C135.404 22.2575 135.329 22.5858 135.19 22.8892C135.052 23.1927 134.854 23.465 134.608 23.6899L117.229 39.5667C116.758 39.9972 116.139 40.2289 115.501 40.2134C114.863 40.1978 114.256 39.9363 113.806 39.4834Z" fill="#FFA705"/>
<path d="M103.68 33.5975C103.297 33.428 102.995 33.1172 102.836 32.7301C102.678 32.343 102.675 31.9096 102.828 31.5204L108.49 17.1613C108.57 16.9579 108.691 16.7728 108.844 16.6172C108.998 16.4616 109.181 16.3386 109.383 16.2557C109.586 16.1728 109.803 16.1316 110.021 16.1347C110.24 16.1378 110.456 16.1851 110.656 16.2737L111.83 16.7945C112.03 16.883 112.21 17.0111 112.359 17.171C112.508 17.3309 112.624 17.5193 112.698 17.7249C112.773 17.9305 112.805 18.149 112.792 18.3672C112.78 18.5855 112.724 18.7991 112.627 18.9951L105.791 32.8334C105.606 33.2086 105.282 33.4976 104.889 33.6401C104.495 33.7825 104.062 33.7672 103.68 33.5975Z" fill="#FFA705"/>
<path d="M93.3768 35.9444C92.072 36.1793 90.763 35.0598 90.4088 33.4065L84.1296 4.05076C83.7549 2.29642 84.5949 0.627899 85.9791 0.378419L87.908 0.0312179C89.2921 -0.217982 90.6621 1.05322 90.9221 2.82772L95.273 32.5305C95.518 34.2039 94.6816 35.7095 93.3768 35.9444Z" fill="#FFA705"/>
<path d="M194.871 63.5712L167.177 60.0012C166.711 59.9514 166.24 60.045 165.829 60.2694C165.417 60.4939 165.083 60.8385 164.872 61.2574L157.508 75.7977L126.683 137.448C126.355 138.099 125.806 138.612 125.135 138.896C124.463 139.179 123.712 139.213 123.017 138.993L39.347 112.286C39.1162 112.212 38.8712 112.194 38.6322 112.234C38.3932 112.273 38.167 112.369 37.9721 112.513C37.7773 112.657 37.6195 112.845 37.5116 113.062C37.4037 113.279 37.3488 113.518 37.3515 113.76L37.3899 117.235C37.3946 117.718 37.5516 118.187 37.8385 118.576C38.1255 118.965 38.5277 119.253 38.988 119.4L127.513 147.655C128.5 147.97 129.386 148.541 130.082 149.308C130.777 150.076 131.257 151.014 131.474 152.027L131.503 152.166C132.273 156.395 128.105 159.868 123.997 158.621L26.9263 127.597C26.4284 127.438 25.9994 127.115 25.7105 126.679C25.4216 126.244 25.29 125.723 25.3374 125.203L32.9344 42.2433C32.9726 41.8156 33.1003 41.4007 33.3093 41.0255C33.5182 40.6503 33.8037 40.3233 34.1473 40.0656C34.4908 39.8079 34.8847 39.6254 35.3034 39.5298C35.7221 39.4343 36.1562 39.4278 36.5775 39.5109L152.867 62.2599L160.357 47.3746C160.573 46.9539 160.913 46.6097 161.331 46.3884C161.749 46.1672 162.225 46.0795 162.695 46.1373L196.608 50.4801C196.909 50.5179 197.199 50.615 197.462 50.7657C197.725 50.9165 197.956 51.1179 198.14 51.3584C198.325 51.5989 198.46 51.8736 198.538 52.1666C198.616 52.4596 198.635 52.7652 198.593 53.0656L197.437 61.5955C197.357 62.1969 197.042 62.7422 196.561 63.1124C196.08 63.4825 195.473 63.6475 194.871 63.5712Z" fill="#FFCB05"/>
<path d="M37.6237 98.082L47.0994 101.106L56.1889 55.0148L41.6418 52.7811L37.6237 98.082Z" fill="#FFFADA"/>
<path d="M111.972 121.813L121.448 124.837L145.953 73.2248L135.516 70.6966L111.972 121.813Z" fill="#FFFADA"/>
<path d="M75.5266 110.18L84.2735 112.972L103.01 64.3371L88.6952 61.3745L75.5266 110.18Z" fill="#FFFADA"/>
<path d="M64.4396 56.8451L78.754 59.8076L66.0508 107.155L56.5752 104.131L64.4396 56.8451Z" fill="#FFFADA"/>
<path d="M126.536 68.6336L112.222 65.671L94.4781 116.229L103.225 119.021L126.536 68.6336Z" fill="#FFFADA"/>
<path d="M39.4522 157.548C45.5795 157.548 50.5467 152.581 50.5467 146.454C50.5467 140.327 45.5795 135.359 39.4522 135.359C33.3249 135.359 28.3578 140.327 28.3578 146.454C28.3578 152.581 33.3249 157.548 39.4522 157.548Z" fill="#FFCB05"/>
<path d="M108.698 179.65C114.825 179.65 119.793 174.683 119.793 168.556C119.793 162.429 114.825 157.461 108.698 157.461C102.571 157.461 97.6036 162.429 97.6036 168.556C97.6036 174.683 102.571 179.65 108.698 179.65Z" fill="#FFCB05"/>
<path d="M199.853 50.0211L170.625 46.362C170.463 46.3417 170.315 46.4566 170.295 46.6186L168.523 60.7691C168.503 60.9312 168.618 61.079 168.78 61.0993L198.008 64.7584C198.17 64.7787 198.317 64.6638 198.338 64.5017L200.109 50.3512C200.13 50.1892 200.015 50.0414 199.853 50.0211Z" fill="#FFCB05"/>
</svg>
