<svg width="25" height="25" viewBox="0 0 25 25" fill="none" xmlns="http://www.w3.org/2000/svg">
<path d="M2.83333 4.75C2.83333 4.55109 2.91235 4.36032 3.053 4.21967C3.19365 4.07902 3.38442 4 3.58333 4H4.14133C5.09133 4 5.66133 4.639 5.98633 5.233C6.20333 5.629 6.36033 6.088 6.48333 6.504C6.5166 6.50137 6.54996 6.50004 6.58333 6.5H19.0813C19.9113 6.5 20.5113 7.294 20.2833 8.093L18.4553 14.502C18.2914 15.0769 17.9447 15.5827 17.4676 15.9428C16.9905 16.303 16.4091 16.4979 15.8113 16.498H9.86333C9.26082 16.498 8.67498 16.3002 8.19585 15.9349C7.71673 15.5696 7.37083 15.057 7.21133 14.476L6.45133 11.704L5.19133 7.456L5.19033 7.448C5.03433 6.881 4.88833 6.35 4.67033 5.954C4.46133 5.569 4.29333 5.5 4.14233 5.5H3.58333C3.38442 5.5 3.19365 5.42098 3.053 5.28033C2.91235 5.13968 2.83333 4.94891 2.83333 4.75ZM7.90633 11.34L8.65733 14.079C8.80733 14.621 9.30033 14.998 9.86333 14.998H15.8113C16.083 14.998 16.3473 14.9095 16.5642 14.7458C16.7811 14.5821 16.9388 14.3523 17.0133 14.091L18.7503 8H6.91833L7.89233 11.287L7.90633 11.34ZM11.3333 19.5C11.3333 20.0304 11.1226 20.5391 10.7475 20.9142C10.3725 21.2893 9.86376 21.5 9.33333 21.5C8.8029 21.5 8.29419 21.2893 7.91911 20.9142C7.54404 20.5391 7.33333 20.0304 7.33333 19.5C7.33333 18.9696 7.54404 18.4609 7.91911 18.0858C8.29419 17.7107 8.8029 17.5 9.33333 17.5C9.86376 17.5 10.3725 17.7107 10.7475 18.0858C11.1226 18.4609 11.3333 18.9696 11.3333 19.5ZM9.83333 19.5C9.83333 19.3674 9.78065 19.2402 9.68688 19.1464C9.59311 19.0527 9.46594 19 9.33333 19C9.20072 19 9.07354 19.0527 8.97977 19.1464C8.88601 19.2402 8.83333 19.3674 8.83333 19.5C8.83333 19.6326 8.88601 19.7598 8.97977 19.8536C9.07354 19.9473 9.20072 20 9.33333 20C9.46594 20 9.59311 19.9473 9.68688 19.8536C9.78065 19.7598 9.83333 19.6326 9.83333 19.5ZM18.3333 19.5C18.3333 20.0304 18.1226 20.5391 17.7475 20.9142C17.3725 21.2893 16.8638 21.5 16.3333 21.5C15.8029 21.5 15.2942 21.2893 14.9191 20.9142C14.544 20.5391 14.3333 20.0304 14.3333 19.5C14.3333 18.9696 14.544 18.4609 14.9191 18.0858C15.2942 17.7107 15.8029 17.5 16.3333 17.5C16.8638 17.5 17.3725 17.7107 17.7475 18.0858C18.1226 18.4609 18.3333 18.9696 18.3333 19.5ZM16.8333 19.5C16.8333 19.3674 16.7807 19.2402 16.6869 19.1464C16.5931 19.0527 16.4659 19 16.3333 19C16.2007 19 16.0735 19.0527 15.9798 19.1464C15.886 19.2402 15.8333 19.3674 15.8333 19.5C15.8333 19.6326 15.886 19.7598 15.9798 19.8536C16.0735 19.9473 16.2007 20 16.3333 20C16.4659 20 16.5931 19.9473 16.6869 19.8536C16.7807 19.7598 16.8333 19.6326 16.8333 19.5Z" fill="#98A2B3"/>
</svg>
