<svg width="25" height="17" viewBox="0 0 25 17" fill="none" xmlns="http://www.w3.org/2000/svg">
<path d="M1.01002 14.7777C1.01002 15.4509 1.59545 16.0046 2.23214 16.0046C2.92557 16.0046 3.45617 15.4509 3.45617 14.7777C3.45617 14.1284 2.92557 13.5509 2.23214 13.5509C1.59545 13.5509 1.01002 14.1284 1.01002 14.7777ZM2.17914 16.9923C1.00994 16.9923 0 16.0046 0 14.7777C0 13.5509 1.01002 12.5871 2.17914 12.5871C2.65848 12.5871 3.08474 12.7085 3.45617 12.9715V12.6348H4.52102V16.8948H3.45625V16.63C3.13791 16.8709 2.65856 16.9923 2.17922 16.9923H2.17914ZM16.3849 11.1284L11.2784 2.17437L14.9486 0.00759888L21.3322 11.1284H16.3849ZM5.90422 14.7777C5.90422 15.4509 6.43674 16.0046 7.12825 16.0046C7.76493 16.0046 8.35228 15.4509 8.35228 14.7777C8.35228 14.1284 7.76493 13.5509 7.12825 13.5509C6.43665 13.5509 5.90422 14.1284 5.90422 14.7777ZM7.07517 16.9923C5.85114 16.9923 4.89428 16.0046 4.89428 14.7777C4.89428 13.5509 5.85114 12.5871 7.07517 12.5871C7.55268 12.5871 7.97902 12.7085 8.35228 12.9715V11.167H9.41531V16.8948H8.3522V16.63C7.97894 16.8709 7.55268 16.9923 7.07508 16.9923H7.07517ZM7.02275 6.04965L10.746 3.93256L14.8426 11.1282H10.9583V12.1876H9.89524V11.1282L7.02275 6.04965ZM24.3102 12.221C24.0432 12.221 23.7779 11.98 23.7779 11.6912C23.7779 11.4024 24.0432 11.1615 24.3102 11.1615C24.6286 11.1615 24.8428 11.4025 24.8428 11.6912C24.8428 11.9799 24.6286 12.2211 24.3102 12.2211V12.221ZM24.3102 11.2351C24.0432 11.2351 23.884 11.4503 23.884 11.6912C23.884 11.9322 24.0432 12.1493 24.3102 12.1493C24.5756 12.1493 24.7348 11.9323 24.7348 11.6912C24.7348 11.4502 24.5756 11.2351 24.3102 11.2351Z" fill="#1D1E20"/>
</svg>
