<svg xmlns="http://www.w3.org/2000/svg" width="20.295" height="16.879" viewBox="0 0 20.295 16.879">
  <path id="diamond-1-svgrepo-com" d="M3.75,10.207l3.883-4.66a.826.826,0,0,1,.635-.3h2.918M3.75,10.207l9.088,9.914M3.75,10.207H9.533m3.3,9.914,9.088-9.914m-9.088,9.914-3.3-9.914m3.3,9.914,3.3-9.914m5.783,0-3.883-4.66a.826.826,0,0,0-.635-.3H14.49m7.435,4.957H16.142M11.185,5.25h3.3m-3.3,0L9.533,10.207M14.49,5.25l1.652,4.957m-6.609,0h6.609" transform="translate(-2.69 -4.301)" fill="none" stroke="#fff" stroke-linecap="round" stroke-linejoin="round" stroke-width="1.5"/>
</svg>
