<svg width="16" height="16" viewBox="0 0 16 16" fill="none" xmlns="http://www.w3.org/2000/svg">
<path d="M5.5 15.5C4.58333 15.5 3.79861 15.1736 3.14583 14.5208C2.49306 13.8681 2.16667 13.0833 2.16667 12.1667V5.35417C1.68056 5.17361 1.28139 4.87167 0.969167 4.44833C0.656944 4.025 0.500556 3.54222 0.5 3C0.5 2.30556 0.743056 1.71528 1.22917 1.22917C1.71528 0.743056 2.30556 0.5 3 0.5C3.69444 0.5 4.28472 0.743056 4.77083 1.22917C5.25694 1.71528 5.5 2.30556 5.5 3C5.5 3.54167 5.34389 4.02444 5.03167 4.44833C4.71944 4.87222 4.32 5.17417 3.83333 5.35417V12.1667C3.83333 12.625 3.99667 13.0175 4.32333 13.3442C4.65 13.6708 5.04222 13.8339 5.5 13.8333C5.95833 13.8333 6.35083 13.6703 6.6775 13.3442C7.00417 13.0181 7.16722 12.6256 7.16667 12.1667V3.83333C7.16667 2.91667 7.49306 2.13194 8.14583 1.47917C8.79861 0.826389 9.58333 0.5 10.5 0.5C11.4167 0.5 12.2014 0.826389 12.8542 1.47917C13.5069 2.13194 13.8333 2.91667 13.8333 3.83333V10.6458C14.3194 10.8264 14.7189 11.1286 15.0317 11.5525C15.3444 11.9764 15.5006 12.4589 15.5 13C15.5 13.6944 15.2569 14.2847 14.7708 14.7708C14.2847 15.2569 13.6944 15.5 13 15.5C12.3056 15.5 11.7153 15.2569 11.2292 14.7708C10.7431 14.2847 10.5 13.6944 10.5 13C10.5 12.4583 10.6564 11.9722 10.9692 11.5417C11.2819 11.1111 11.6811 10.8125 12.1667 10.6458V3.83333C12.1667 3.375 12.0036 2.98278 11.6775 2.65667C11.3514 2.33056 10.9589 2.16722 10.5 2.16667C10.0417 2.16667 9.64945 2.33 9.32333 2.65667C8.99722 2.98333 8.83389 3.37556 8.83333 3.83333V12.1667C8.83333 13.0833 8.50694 13.8681 7.85417 14.5208C7.20139 15.1736 6.41667 15.5 5.5 15.5ZM3 3.83333C3.23611 3.83333 3.43417 3.75333 3.59417 3.59333C3.75417 3.43333 3.83389 3.23556 3.83333 3C3.83333 2.76389 3.75333 2.56611 3.59333 2.40667C3.43333 2.24722 3.23556 2.16722 3 2.16667C2.76389 2.16667 2.56611 2.24667 2.40667 2.40667C2.24722 2.56667 2.16722 2.76444 2.16667 3C2.16667 3.23611 2.24667 3.43417 2.40667 3.59417C2.56667 3.75417 2.76444 3.83389 3 3.83333ZM13 13.8333C13.2361 13.8333 13.4342 13.7533 13.5942 13.5933C13.7542 13.4333 13.8339 13.2356 13.8333 13C13.8333 12.7639 13.7533 12.5661 13.5933 12.4067C13.4333 12.2472 13.2356 12.1672 13 12.1667C12.7639 12.1667 12.5661 12.2467 12.4067 12.4067C12.2472 12.5667 12.1672 12.7644 12.1667 13C12.1667 13.2361 12.2467 13.4342 12.4067 13.5942C12.5667 13.7542 12.7644 13.8339 13 13.8333Z" fill="#FFA705"/>
</svg>
