<svg width="22" height="22" viewBox="0 0 22 22" fill="none" xmlns="http://www.w3.org/2000/svg">
<path d="M20 20H12M1.49997 20.5L7.04924 18.3657C7.40418 18.2291 7.58165 18.1609 7.74769 18.0718C7.89517 17.9926 8.03577 17.9012 8.16801 17.7986C8.31689 17.6831 8.45134 17.5486 8.72025 17.2797L20 6C21.1046 4.89543 21.1046 3.10457 20 2C18.8954 0.895428 17.1046 0.895427 16 1.99999L4.72025 13.2797C4.45135 13.5486 4.31689 13.6831 4.20136 13.832C4.09874 13.9642 4.00737 14.1048 3.9282 14.2523C3.83908 14.4183 3.77082 14.5958 3.6343 14.9507L1.49997 20.5ZM1.49997 20.5L3.55809 15.149C3.70537 14.766 3.779 14.5746 3.90531 14.4869C4.01569 14.4102 4.15227 14.3813 4.28427 14.4065C4.4353 14.4353 4.58035 14.5804 4.87045 14.8705L7.12954 17.1295C7.41964 17.4196 7.56469 17.5647 7.59353 17.7157C7.61874 17.8477 7.58976 17.9843 7.51311 18.0947C7.42542 18.221 7.23396 18.2946 6.85104 18.4419L1.49997 20.5Z" stroke="#FFA705" stroke-width="2" stroke-linecap="round" stroke-linejoin="round"/>
</svg>
