<svg xmlns="http://www.w3.org/2000/svg" width="16.375" height="16.375" viewBox="0 0 16.375 16.375">
  <path id="email-alt-svgrepo-com" d="M10.187,2a8.188,8.188,0,0,1,8.184,7.958l0,.229v.819a3.085,3.085,0,0,1-2.866,3.275A2.749,2.749,0,0,1,13.2,12.955a4.093,4.093,0,1,1,1.074-2.945l0,.178v.819a1.485,1.485,0,0,0,1.228,1.638,1.447,1.447,0,0,0,1.224-1.5l0-.138v-.819a6.545,6.545,0,1,0-3.83,5.96.819.819,0,1,1,.681,1.489A8.188,8.188,0,1,1,10.187,2Zm0,5.731a2.456,2.456,0,1,0,2.456,2.456A2.456,2.456,0,0,0,10.187,7.731Z" transform="translate(-2 -2)" fill="#513c5b"/>
</svg>
