<svg width="194" height="193" viewBox="0 0 194 193" fill="none" xmlns="http://www.w3.org/2000/svg">
<path d="M184.155 106.941C178.948 122.725 167.727 140.029 151.21 145.661C126.259 154.176 124.02 174.638 78.7462 174.499C72.1349 174.508 65.542 173.8 59.0834 172.388C55.9257 171.686 52.8159 170.783 49.773 169.686C22.946 160.009 8.25874 136.995 6.15504 112.403C3.39514 80.0564 25.4049 63.7402 39.737 54.1172C54.0692 44.4942 70.4356 8.78152 114.957 8.56922C121.753 8.5083 128.534 9.23234 135.164 10.727C150.28 14.201 165.836 22.5656 175.181 35.3152C175.879 36.2724 176.551 37.2452 177.199 38.2565C189.818 57.8769 191.257 85.418 184.155 106.941Z" fill="#039855" fill-opacity="0.7"/>
<path opacity="0.7" d="M184.155 106.941C178.948 122.725 167.727 140.029 151.21 145.661C126.259 154.176 124.02 174.638 78.7462 174.499C72.1349 174.508 65.542 173.8 59.0834 172.388C55.9257 171.686 52.8159 170.783 49.773 169.686C22.946 160.009 8.25874 136.995 6.15504 112.403C3.39514 80.0564 25.4049 63.7402 39.737 54.1172C54.0692 44.4942 70.4356 8.78152 114.957 8.56922C121.753 8.5083 128.534 9.23234 135.164 10.727C150.28 14.201 165.836 22.5656 175.181 35.3152C175.879 36.2724 176.551 37.2452 177.199 38.2565C189.818 57.8769 191.257 85.418 184.155 106.941Z" fill="white"/>
<path d="M117.914 22.5655V155.203C117.914 156.951 117.219 158.628 115.983 159.865C114.746 161.101 113.069 161.796 111.321 161.796H54.0074C52.2589 161.796 50.582 161.101 49.3456 159.865C48.1092 158.628 47.4146 156.951 47.4146 155.203V22.5616C47.4146 20.8141 48.1087 19.1382 49.3444 17.9025C50.5801 16.6668 52.2561 15.9726 54.0036 15.9726H78.6034L78.6265 16.046C79.2441 18.2539 80.6492 19.6859 82.2163 19.6859H83.1041C84.6713 19.6859 86.0802 18.25 86.6939 16.0421L86.7209 15.9688H111.321C112.187 15.9687 113.044 16.1394 113.845 16.471C114.645 16.8025 115.372 17.2885 115.984 17.9011C116.596 18.5137 117.082 19.241 117.413 20.0413C117.744 20.8416 117.914 21.6994 117.914 22.5655Z" fill="white"/>
<path d="M111.321 161.989H54.0074C53.1152 161.99 52.2316 161.815 51.407 161.475C50.5824 161.134 49.8329 160.635 49.2013 160.005C48.5698 159.374 48.0685 158.626 47.7261 157.802C47.3838 156.978 47.2071 156.095 47.2061 155.203V22.5618C47.2081 20.7637 47.9233 19.0399 49.1947 17.7684C50.4662 16.497 52.19 15.7818 53.9881 15.7798H78.7345L78.7963 15.9959C79.3869 18.1228 80.7263 19.497 82.2008 19.497H83.1041C84.5824 19.497 85.918 18.1228 86.5086 15.9959L86.5781 15.7798H111.321C113.12 15.7818 114.845 16.4974 116.117 17.7696C117.389 19.0417 118.104 20.7666 118.107 22.5657V155.203C118.104 157.002 117.389 158.727 116.117 159.999C114.845 161.271 113.12 161.987 111.321 161.989ZM54.0035 16.1658C53.1626 16.1648 52.3296 16.3294 51.5523 16.6503C50.775 16.9712 50.0685 17.442 49.4731 18.0359C48.8778 18.6299 48.4052 19.3352 48.0825 20.1118C47.7597 20.8883 47.5931 21.7209 47.5921 22.5618V155.203C47.5941 156.9 48.269 158.526 49.4688 159.726C50.6686 160.926 52.2952 161.601 53.9919 161.603H111.321C113.017 161.601 114.644 160.926 115.844 159.726C117.044 158.526 117.718 156.9 117.721 155.203V22.5657C117.718 20.8689 117.044 19.2423 115.844 18.0425C114.644 16.8428 113.017 16.1678 111.321 16.1658H86.8714C86.2229 18.4239 84.7523 19.883 83.1118 19.883H82.2163C80.5758 19.883 79.1051 18.4239 78.4566 16.1658H54.0035Z" fill="#263238"/>
<path d="M93.4875 102.618H73.0411C72.0093 102.618 71.1729 103.455 71.1729 104.486V108.285C71.1729 109.316 72.0093 110.153 73.0411 110.153H93.4875C94.5193 110.153 95.3558 109.316 95.3558 108.285V104.486C95.3558 103.455 94.5193 102.618 93.4875 102.618Z" fill="#263238"/>
<path d="M93.4836 110.346H73.0256C72.4792 110.345 71.9555 110.127 71.5692 109.741C71.1829 109.355 70.9654 108.831 70.9644 108.285V104.486C70.9644 103.94 71.1815 103.415 71.5681 103.029C71.9546 102.642 72.4789 102.425 73.0256 102.425H93.4836C94.0306 102.425 94.5553 102.642 94.9425 103.029C95.3297 103.415 95.5477 103.939 95.5487 104.486V108.285C95.5477 108.832 95.3297 109.356 94.9425 109.742C94.5553 110.129 94.0306 110.346 93.4836 110.346ZM73.0256 102.811C72.5813 102.811 72.1552 102.988 71.841 103.302C71.5269 103.616 71.3504 104.042 71.3504 104.486V108.285C71.3514 108.729 71.5282 109.154 71.8421 109.468C72.1561 109.782 72.5816 109.959 73.0256 109.96H93.4836C93.9283 109.96 94.3548 109.783 94.6695 109.469C94.9843 109.155 95.1617 108.729 95.1627 108.285V104.486C95.1627 104.266 95.1192 104.048 95.0348 103.844C94.9504 103.641 94.8266 103.456 94.6707 103.3C94.5147 103.145 94.3296 103.021 94.1259 102.937C93.9222 102.853 93.7039 102.811 93.4836 102.811H73.0256Z" fill="#263238"/>
<path d="M47.4146 120.532V155.203C47.4146 156.952 48.1092 158.628 49.3456 159.865C50.582 161.101 52.2589 161.796 54.0074 161.796H111.321C113.069 161.796 114.746 161.101 115.983 159.865C117.219 158.628 117.914 156.952 117.914 155.203V120.532H47.4146Z" fill="#DBDBDB"/>
<path d="M111.321 161.989H54.0074C53.1152 161.99 52.2316 161.815 51.407 161.475C50.5824 161.134 49.8329 160.635 49.2013 160.004C48.5698 159.374 48.0685 158.626 47.7261 157.802C47.3838 156.978 47.2071 156.095 47.2061 155.203V120.532C47.2061 120.481 47.2264 120.432 47.2626 120.396C47.2988 120.36 47.3479 120.339 47.3991 120.339H117.914C117.965 120.339 118.014 120.36 118.05 120.396C118.086 120.432 118.107 120.481 118.107 120.532V155.203C118.104 157.002 117.389 158.727 116.117 159.999C114.845 161.271 113.12 161.987 111.321 161.989ZM47.5921 120.725V155.203C47.5941 156.9 48.269 158.526 49.4688 159.726C50.6686 160.926 52.2952 161.601 53.9919 161.603H111.321C113.017 161.601 114.644 160.926 115.844 159.726C117.044 158.526 117.718 156.9 117.721 155.203V120.725H47.5921Z" fill="#263238"/>
<path d="M68.8839 124.717H51.3093C50.8254 124.717 50.4331 125.109 50.4331 125.593V130.333C50.4331 130.817 50.8254 131.209 51.3093 131.209H68.8839C69.3678 131.209 69.7601 130.817 69.7601 130.333V125.593C69.7601 125.109 69.3678 124.717 68.8839 124.717Z" fill="white"/>
<path d="M90.5153 124.717H72.9407C72.4568 124.717 72.0645 125.109 72.0645 125.593V130.333C72.0645 130.817 72.4568 131.209 72.9407 131.209H90.5153C90.9992 131.209 91.3915 130.817 91.3915 130.333V125.593C91.3915 125.109 90.9992 124.717 90.5153 124.717Z" fill="white"/>
<path d="M112.143 124.717H94.5681C94.0842 124.717 93.6919 125.109 93.6919 125.593V130.333C93.6919 130.817 94.0842 131.209 94.5681 131.209H112.143C112.627 131.209 113.019 130.817 113.019 130.333V125.593C113.019 125.109 112.627 124.717 112.143 124.717Z" fill="white"/>
<path d="M68.8839 133.016H51.3093C50.8254 133.016 50.4331 133.408 50.4331 133.892V138.632C50.4331 139.116 50.8254 139.508 51.3093 139.508H68.8839C69.3678 139.508 69.7601 139.116 69.7601 138.632V133.892C69.7601 133.408 69.3678 133.016 68.8839 133.016Z" fill="white"/>
<path d="M90.5153 133.016H72.9407C72.4568 133.016 72.0645 133.408 72.0645 133.892V138.632C72.0645 139.116 72.4568 139.508 72.9407 139.508H90.5153C90.9992 139.508 91.3915 139.116 91.3915 138.632V133.892C91.3915 133.408 90.9992 133.016 90.5153 133.016Z" fill="white"/>
<path d="M112.143 133.016H94.5681C94.0842 133.016 93.6919 133.408 93.6919 133.892V138.632C93.6919 139.116 94.0842 139.508 94.5681 139.508H112.143C112.627 139.508 113.019 139.116 113.019 138.632V133.892C113.019 133.408 112.627 133.016 112.143 133.016Z" fill="white"/>
<path d="M68.8839 141.311H51.3093C50.8254 141.311 50.4331 141.703 50.4331 142.187V146.927C50.4331 147.411 50.8254 147.803 51.3093 147.803H68.8839C69.3678 147.803 69.7601 147.411 69.7601 146.927V142.187C69.7601 141.703 69.3678 141.311 68.8839 141.311Z" fill="white"/>
<path d="M90.5153 141.311H72.9407C72.4568 141.311 72.0645 141.703 72.0645 142.187V146.927C72.0645 147.411 72.4568 147.803 72.9407 147.803H90.5153C90.9992 147.803 91.3915 147.411 91.3915 146.927V142.187C91.3915 141.703 90.9992 141.311 90.5153 141.311Z" fill="white"/>
<path d="M112.143 141.311H94.5681C94.0842 141.311 93.6919 141.703 93.6919 142.187V146.927C93.6919 147.411 94.0842 147.803 94.5681 147.803H112.143C112.627 147.803 113.019 147.411 113.019 146.927V142.187C113.019 141.703 112.627 141.311 112.143 141.311Z" fill="white"/>
<path d="M90.5153 149.61H72.9407C72.4568 149.61 72.0645 150.002 72.0645 150.486V155.226C72.0645 155.71 72.4568 156.102 72.9407 156.102H90.5153C90.9992 156.102 91.3915 155.71 91.3915 155.226V150.486C91.3915 150.002 90.9992 149.61 90.5153 149.61Z" fill="white"/>
<path d="M110.688 156.102H98.629L96.0273 153.08L98.629 149.61H110.688V156.102Z" fill="white"/>
<path d="M83.4361 46.0111L83.2624 45.8799L83.0887 46.0111C83.0887 46.0111 74.2107 51.0639 70.1963 52.9823C70.1963 52.9823 72.1263 63.7903 73.5043 68.6616C74.8823 73.5329 80.3018 76.1539 83.2624 77.8947C86.2269 76.1539 91.627 73.5406 93.0205 68.6616C94.4139 63.7826 96.3324 52.9823 96.3324 52.9823C92.3218 51.0639 83.4361 46.0111 83.4361 46.0111Z" fill="#039855"/>
<path d="M82.3511 66.8977L76.4607 61.8488C76.3259 61.7335 76.2151 61.5927 76.1346 61.4346C76.0542 61.2764 76.0057 61.104 75.9919 60.9271C75.964 60.5699 76.0792 60.2162 76.3121 59.9439C76.545 59.6716 76.8765 59.5029 77.2338 59.4751C77.591 59.4472 77.9447 59.5624 78.217 59.7953L82.077 63.1072L88.6931 55.584C88.9295 55.3148 89.2633 55.1505 89.6209 55.1273C89.9785 55.1042 90.3307 55.224 90.5999 55.4605C90.8691 55.697 91.0334 56.0307 91.0566 56.3883C91.0797 56.7459 90.9599 57.0981 90.7234 57.3673L82.3511 66.8977Z" fill="white"/>
<path d="M60.2604 83.928H52.2471V91.9413H60.2604V83.928Z" fill="white"/>
<path d="M60.4574 92.1342H52.0542V83.7349H60.4574V92.1342ZM52.4402 91.7482H60.0714V84.1209H52.4402V91.7482Z" fill="#263238"/>
<path d="M71.0646 83.928H63.0513V91.9413H71.0646V83.928Z" fill="white"/>
<path d="M71.2578 92.1342H62.8584V83.7349H71.2578V92.1342ZM63.2444 91.7482H70.8718V84.1209H63.2444V91.7482Z" fill="#263238"/>
<path d="M81.8688 83.928H73.8555V91.9413H81.8688V83.928Z" fill="white"/>
<path d="M82.062 92.1342H73.6626V83.7349H82.062V92.1342ZM74.0486 91.7482H81.676V84.1209H74.0486V91.7482Z" fill="#263238"/>
<path d="M92.6691 83.928H84.6558V91.9413H92.6691V83.928Z" fill="white"/>
<path d="M92.8661 92.1342H84.4629V83.7349H92.8661V92.1342ZM84.8489 91.7482H92.4801V84.1209H84.8489V91.7482Z" fill="#263238"/>
<path d="M103.473 83.928H95.46V91.9413H103.473V83.928Z" fill="white"/>
<path d="M103.666 92.1342H95.2666V83.7349H103.666V92.1342ZM95.6526 91.7482H103.28V84.1209H95.6526V91.7482Z" fill="#263238"/>
<path d="M114.278 83.928H106.264V91.9413H114.278V83.928Z" fill="white"/>
<path d="M114.47 92.1342H106.071V83.7349H114.47V92.1342ZM106.457 91.7482H114.084V84.1209H106.457V91.7482Z" fill="#263238"/>
<path d="M117.914 28.7338V22.5578C117.912 20.8106 117.216 19.1356 115.98 17.9009C114.744 16.6662 113.068 15.9726 111.321 15.9726H86.7248L86.7016 16.046C86.0879 18.2539 84.679 19.6859 83.1041 19.6859H82.2163C80.6492 19.6859 79.2364 18.25 78.6265 16.0421L78.6034 15.9688H54.0036C52.2561 15.9688 50.5801 16.6629 49.3444 17.8986C48.1087 19.1343 47.4146 20.8103 47.4146 22.5578V28.7338H117.914Z" fill="#DBDBDB"/>
<path d="M117.909 28.9269H47.4142C47.363 28.9269 47.3139 28.9066 47.2777 28.8704C47.2415 28.8342 47.2212 28.7851 47.2212 28.7339V22.5579C47.2232 20.7598 47.9384 19.036 49.2099 17.7646C50.4813 16.4931 52.2051 15.7779 54.0032 15.7759H78.603C78.6454 15.7755 78.6868 15.7893 78.7204 15.8152C78.754 15.8411 78.7779 15.8776 78.7883 15.9187L78.8114 15.992C79.402 18.1189 80.7414 19.4931 82.2159 19.4931H83.1037C84.5821 19.4931 85.9177 18.1189 86.5083 15.992L86.5353 15.911C86.5469 15.8719 86.5709 15.8377 86.6036 15.8133C86.6363 15.789 86.6759 15.7759 86.7167 15.7759H111.32C113.119 15.7779 114.844 16.4937 116.115 17.7659C117.387 19.0382 118.101 20.763 118.102 22.5618V28.7378C118.101 28.7883 118.081 28.8364 118.044 28.8717C118.008 28.9071 117.96 28.9269 117.909 28.9269ZM47.5918 28.5409H117.716V22.5656C117.715 20.8693 117.041 19.2426 115.842 18.0427C114.643 16.8428 113.017 16.1678 111.32 16.1657H86.8711C86.2226 18.4238 84.752 19.8829 83.1115 19.8829H82.2159C80.5754 19.8829 79.1048 18.4238 78.4563 16.1657H54.0032C53.1623 16.1647 52.3293 16.3294 51.552 16.6502C50.7747 16.9711 50.0682 17.442 49.4728 18.0359C48.8775 18.6298 48.4049 19.3352 48.0822 20.1118C47.7594 20.8883 47.5928 21.7208 47.5918 22.5618V28.5409Z" fill="#263238"/>
<path d="M122.395 54.2447V40.9972H121.195V24.0363C121.195 22.6633 120.925 21.3037 120.4 20.035C119.875 18.7664 119.105 17.6136 118.134 16.6425C117.164 15.6715 116.011 14.9012 114.743 14.3756C113.474 13.8501 112.115 13.5796 110.742 13.5796H54.5865C53.2123 13.5781 51.8513 13.8474 50.5813 14.3722C49.3113 14.8971 48.1572 15.6671 47.185 16.6382C46.2127 17.6094 45.4415 18.7626 44.9152 20.032C44.389 21.3015 44.1182 22.6622 44.1182 24.0363V158.808C44.1182 160.181 44.3887 161.541 44.9142 162.809C45.4398 164.078 46.2101 165.23 47.1811 166.201C48.1522 167.172 49.3049 167.941 50.5736 168.467C51.8422 168.992 53.2019 169.262 54.5749 169.261H110.742C112.115 169.262 113.474 168.992 114.743 168.466C116.011 167.941 117.163 167.171 118.134 166.201C119.105 165.23 119.875 164.077 120.4 162.809C120.925 161.541 121.195 160.181 121.195 158.808V65.5352H122.395V57.7071H121.195V54.2331L122.395 54.2447ZM117.914 151.339C117.914 154.112 116.812 156.772 114.851 158.733C112.89 160.694 110.23 161.796 107.457 161.796H57.8713C55.098 161.796 52.4383 160.694 50.4773 158.733C48.5163 156.772 47.4146 154.112 47.4146 151.339V26.4257C47.4156 23.653 48.5178 20.9943 50.4787 19.0341C52.4396 17.074 55.0987 15.9728 57.8713 15.9728H78.6034L78.6266 16.0461C79.2442 18.2541 80.6492 19.6861 82.2164 19.6861H83.1042C84.6713 19.6861 86.0802 18.2502 86.694 16.0423L86.721 15.9689H107.449C110.222 15.9689 112.881 17.0701 114.842 19.0303C116.803 20.9905 117.905 23.6492 117.906 26.4218L117.914 151.339Z" fill="#039855"/>
<path d="M110.742 169.454H54.5863C51.7634 169.451 49.0569 168.328 47.0605 166.333C45.0641 164.337 43.9406 161.631 43.9365 158.808V24.0362C43.9406 21.213 45.0639 18.5066 47.0603 16.5102C49.0566 14.5139 51.763 13.3906 54.5863 13.3865H110.742C113.564 13.3906 116.27 14.514 118.266 16.5105C120.262 18.5069 121.384 21.2133 121.387 24.0362V40.8041H122.395C122.446 40.8041 122.495 40.8244 122.531 40.8606C122.568 40.8968 122.588 40.9459 122.588 40.9971V54.2446C122.588 54.2958 122.568 54.3449 122.531 54.3811C122.495 54.4172 122.446 54.4376 122.395 54.4376H121.387V57.5256H122.395C122.446 57.5256 122.495 57.5459 122.531 57.5821C122.568 57.6183 122.588 57.6674 122.588 57.7186V65.5467C122.588 65.5978 122.568 65.6469 122.531 65.6831C122.495 65.7193 122.446 65.7397 122.395 65.7397H121.387V158.808C121.384 161.631 120.262 164.337 118.266 166.333C116.27 168.328 113.564 169.451 110.742 169.454ZM54.5863 13.7725C51.8651 13.7755 49.2562 14.8579 47.3321 16.782C45.4079 18.7062 44.3256 21.315 44.3225 24.0362V158.808C44.3256 161.529 45.4081 164.137 47.3323 166.061C49.2566 167.984 51.8654 169.066 54.5863 169.068H110.742C113.462 169.065 116.07 167.983 117.993 166.06C119.916 164.136 120.998 161.528 121.001 158.808V65.5351C121.001 65.4839 121.022 65.4348 121.058 65.3986C121.094 65.3624 121.143 65.3421 121.194 65.3421H122.202V57.9H121.194C121.144 57.899 121.095 57.8784 121.059 57.8424C121.023 57.8064 121.002 57.7579 121.001 57.707V54.233C121.001 54.1818 121.022 54.1327 121.058 54.0965C121.094 54.0603 121.143 54.04 121.194 54.04H122.202V41.1901H121.194C121.144 41.1891 121.095 41.1684 121.059 41.1324C121.023 41.0965 121.002 41.0479 121.001 40.9971V24.0362C120.999 21.3154 119.918 18.7065 117.994 16.7823C116.071 14.858 113.462 13.7755 110.742 13.7725H54.5863ZM107.468 161.996H57.8711C55.0439 161.996 52.3323 160.874 50.3324 158.875C48.3325 156.877 47.208 154.166 47.2059 151.339V26.4256C47.21 23.6027 48.3335 20.8966 50.3299 18.9009C52.3264 16.9052 55.0328 15.7827 57.8557 15.7797H78.5877C78.6303 15.7785 78.672 15.7921 78.7058 15.8181C78.7395 15.8442 78.7633 15.881 78.773 15.9225L78.7962 15.9958C79.3868 18.1227 80.7262 19.4969 82.2007 19.4969H83.1039C84.5823 19.4969 85.9179 18.1227 86.5085 15.9958L86.5355 15.9148C86.5471 15.8757 86.5711 15.8415 86.6038 15.8171C86.6365 15.7928 86.6761 15.7796 86.7169 15.7797H107.449C110.272 15.7827 112.978 16.9052 114.975 18.9009C116.971 20.8966 118.095 23.6027 118.099 26.4256V151.339C118.095 154.161 116.972 156.866 114.978 158.862C112.983 160.858 110.279 161.983 107.457 161.989L107.468 161.996ZM57.8711 16.1657C55.1476 16.1636 52.5348 17.2433 50.6072 19.1673C48.6796 21.0913 47.595 23.7021 47.5919 26.4256V151.339C47.595 154.06 48.6773 156.669 50.6015 158.593C52.5257 160.517 55.1345 161.6 57.8557 161.603H107.457C110.178 161.6 112.787 160.517 114.711 158.593C116.635 156.669 117.717 154.06 117.72 151.339V26.4256C117.717 23.7047 116.635 21.0963 114.711 19.1727C112.786 17.2492 110.177 16.1677 107.457 16.1657H86.8713C86.2228 18.4238 84.7522 19.8829 83.1117 19.8829H82.2161C80.5756 19.8829 79.105 18.4238 78.4565 16.1657H57.8711Z" fill="#263238"/>
<path d="M109.904 15.0193H55.4241C52.7524 15.0203 50.1903 16.0813 48.3001 17.9694C46.4098 19.8574 45.3459 22.4184 45.3418 25.09V157.739C45.3418 160.413 46.404 162.977 48.2948 164.868C50.1856 166.759 52.7501 167.821 55.4241 167.821H109.904C112.578 167.821 115.143 166.759 117.033 164.868C118.924 162.977 119.986 160.413 119.986 157.739V25.09C119.982 22.4184 118.918 19.8574 117.028 17.9694C115.138 16.0813 112.576 15.0203 109.904 15.0193ZM117.914 151.698C117.913 154.372 116.85 156.937 114.958 158.828C113.067 160.718 110.502 161.78 107.827 161.78H57.5008C54.8264 161.78 52.2616 160.718 50.3702 158.828C48.4787 156.937 47.4156 154.372 47.4146 151.698V26.0512C47.4146 24.7273 47.6754 23.4164 48.1822 22.1934C48.6889 20.9704 49.4316 19.8592 50.3679 18.9233C51.3042 17.9873 52.4157 17.245 53.6389 16.7388C54.8621 16.2325 56.1731 15.9722 57.4969 15.9727H78.6034L78.6266 16.046C79.2442 18.254 80.6492 19.686 82.2164 19.686H83.1042C84.6713 19.686 86.0802 18.2501 86.694 16.0422L86.721 15.9688H107.82C109.145 15.9673 110.458 16.2271 111.683 16.7334C112.907 17.2396 114.02 17.9824 114.958 18.9192C115.895 19.8559 116.639 20.9684 117.146 22.1928C117.653 23.4173 117.914 24.7297 117.914 26.055V151.698Z" fill="#263238"/>
<path d="M109.904 168.014H55.4238C52.6995 168.011 50.0877 166.928 48.1614 165.001C46.2351 163.075 45.1515 160.463 45.1484 157.739V25.09C45.1515 22.3658 46.2351 19.754 48.1614 17.8277C50.0877 15.9013 52.6995 14.8178 55.4238 14.8147H109.904C112.628 14.8178 115.24 15.9013 117.166 17.8277C119.092 19.754 120.176 22.3658 120.179 25.09V157.739C120.176 160.463 119.092 163.075 117.166 165.001C115.24 166.928 112.628 168.011 109.904 168.014ZM55.4238 15.2161C52.8046 15.2192 50.2933 16.26 48.4398 18.1106C46.5863 19.9612 45.5416 22.4708 45.5344 25.09V157.739C45.5375 160.361 46.5804 162.874 48.4343 164.728C50.2883 166.582 52.8019 167.625 55.4238 167.628H109.904C112.526 167.625 115.039 166.582 116.893 164.728C118.747 162.874 119.79 160.361 119.793 157.739V25.09C119.79 22.4681 118.747 19.9545 116.893 18.1006C115.039 16.2467 112.526 15.2038 109.904 15.2007L55.4238 15.2161ZM107.827 161.989H57.5004C56.1487 161.989 54.8101 161.723 53.5611 161.207C52.3122 160.69 51.1773 159.932 50.2213 158.976C49.2653 158.02 48.5069 156.886 47.9895 155.637C47.4721 154.388 47.2058 153.05 47.2058 151.698V26.0512C47.2099 23.3276 48.2939 20.7168 50.2201 18.7913C52.1464 16.8658 54.7576 15.7828 57.4811 15.7797H78.5876C78.6302 15.7786 78.6719 15.7922 78.7056 15.8182C78.7394 15.8442 78.7631 15.881 78.7729 15.9225L78.7961 15.9959C79.3866 18.1227 80.7261 19.4969 82.2006 19.4969H83.1038C84.5822 19.4969 85.9178 18.1227 86.5083 15.9959L86.5354 15.9148C86.547 15.8757 86.571 15.8415 86.6036 15.8171C86.6363 15.7928 86.676 15.7797 86.7168 15.7797H107.819C110.545 15.7807 113.16 16.8633 115.088 18.7897C117.017 20.7161 118.102 23.3291 118.106 26.055V151.698C118.106 154.425 117.024 157.041 115.096 158.971C113.169 160.9 110.554 161.986 107.827 161.989ZM57.4966 16.1657C54.8724 16.1636 52.3548 17.2039 50.4974 19.0576C48.64 20.9114 47.5949 23.427 47.5918 26.0512V151.698C47.5959 154.32 48.6397 156.834 50.4942 158.688C52.3488 160.542 54.8628 161.584 57.485 161.587H107.827C110.449 161.584 112.963 160.542 114.818 158.688C116.672 156.834 117.716 154.32 117.72 151.698V26.055C117.717 23.4325 116.674 20.9183 114.819 19.0642C112.964 17.2102 110.45 16.1677 107.827 16.1657H86.8712C86.2227 18.4238 84.752 19.8829 83.1115 19.8829H82.216C80.5755 19.8829 79.1049 18.4238 78.4564 16.1657H57.4966Z" fill="#263238"/>
<path d="M83.4282 16.4707C83.4274 16.277 83.3692 16.0878 83.261 15.9271C83.1529 15.7663 82.9995 15.6413 82.8202 15.5677C82.641 15.4941 82.444 15.4752 82.2541 15.5135C82.0642 15.5517 81.8898 15.6454 81.7531 15.7827C81.6164 15.9199 81.5234 16.0946 81.4858 16.2847C81.4483 16.4748 81.468 16.6717 81.5423 16.8507C81.6166 17.0296 81.7423 17.1825 81.9034 17.2901C82.0646 17.3976 82.254 17.455 82.4477 17.455C82.5768 17.455 82.7046 17.4295 82.8238 17.38C82.943 17.3305 83.0513 17.2579 83.1424 17.1665C83.2335 17.075 83.3056 16.9665 83.3546 16.8471C83.4037 16.7277 83.4287 16.5998 83.4282 16.4707Z" fill="white"/>
<path d="M53.6829 20.2341C53.6829 21.2261 52.5674 21.5851 52.5597 22.3417V22.388H53.6443V22.7238H52.2007V22.442C52.2007 21.3767 53.3162 21.1721 53.3162 20.2418C53.3162 19.906 53.2004 19.7246 52.9302 19.7246C52.66 19.7246 52.5442 19.9176 52.5442 20.2109V20.5004H52.2007V20.2341C52.2007 19.7284 52.4284 19.3965 52.9379 19.3965C53.4475 19.3965 53.6829 19.7284 53.6829 20.2341Z" fill="#263238"/>
<path d="M55.4855 20.2264V20.3114C55.5019 20.4509 55.4733 20.5921 55.4038 20.7143C55.3344 20.8365 55.2278 20.9333 55.0995 20.9907C55.2289 21.0478 55.3363 21.1452 55.4059 21.2683C55.4755 21.3914 55.5034 21.5337 55.4855 21.6739V21.9287C55.4855 22.4305 55.2501 22.7586 54.7405 22.7586C54.231 22.7586 54.0033 22.4305 54.0033 21.9287V21.701H54.3468V21.9519C54.3468 22.2452 54.4665 22.4266 54.7328 22.4266C54.9992 22.4266 55.1188 22.2529 55.1188 21.9171V21.6624C55.1188 21.3381 54.9799 21.1837 54.7019 21.176H54.5051V20.844H54.7212C54.778 20.8449 54.8342 20.8332 54.8858 20.8098C54.9375 20.7865 54.9834 20.752 55.0203 20.7089C55.0571 20.6657 55.084 20.615 55.0991 20.5603C55.1141 20.5056 55.1169 20.4483 55.1072 20.3924V20.2419C55.1072 19.9022 54.9876 19.7285 54.7212 19.7285C54.4549 19.7285 54.3352 19.9138 54.3352 20.211V20.377H53.9917V20.2264C53.9917 19.7246 54.2272 19.4004 54.729 19.4004C55.2308 19.4004 55.4855 19.7246 55.4855 20.2264Z" fill="#263238"/>
<path d="M56.1959 20.4773V20.9328H55.8408V20.4773H56.1959ZM56.1959 22.2722V22.7277H55.8408V22.2722H56.1959Z" fill="#263238"/>
<path d="M56.9407 20.7744C56.9878 20.6876 57.0584 20.6159 57.1445 20.5674C57.2305 20.5189 57.3285 20.4957 57.4271 20.5004C57.8517 20.5004 58.0408 20.813 58.0408 21.2724V21.917C58.0408 22.4188 57.8015 22.7469 57.2959 22.7469C56.7902 22.7469 56.5586 22.4188 56.5586 21.917V21.6931H56.9021V21.9402C56.9021 22.2335 57.0257 22.4149 57.2881 22.4149C57.5506 22.4149 57.6741 22.2335 57.6741 21.9402V21.311C57.6741 21.0138 57.5506 20.8362 57.2881 20.8362C57.2393 20.8319 57.1901 20.8378 57.1436 20.8535C57.0972 20.8692 57.0545 20.8943 57.0182 20.9273C56.982 20.9603 56.9529 21.0005 56.933 21.0452C56.913 21.09 56.9025 21.1384 56.9021 21.1875V21.2647H56.5625L56.6512 19.4312H57.9482V19.7631H56.9793L56.9407 20.7744Z" fill="#263238"/>
<path d="M59.8705 20.2226V20.2843H59.527V20.1994C59.527 19.9022 59.4073 19.7285 59.141 19.7285C58.8747 19.7285 58.755 19.9099 58.755 20.2612V20.9984C58.7945 20.8906 58.8676 20.7982 58.9635 20.735C59.0593 20.6718 59.173 20.641 59.2877 20.6472C59.7123 20.6472 59.9014 20.9521 59.9014 21.4192V21.921C59.9014 22.4228 59.6505 22.7509 59.1294 22.7509C58.6083 22.7509 58.3574 22.4228 58.3574 21.921V20.2457C58.3574 19.7246 58.5929 19.4004 59.1294 19.4004C59.666 19.4004 59.8705 19.7208 59.8705 20.2226ZM58.7357 21.4578V21.9519C58.7357 22.2452 58.8592 22.4266 59.1217 22.4266C59.3842 22.4266 59.5077 22.2452 59.5077 21.9519V21.4578C59.5077 21.1606 59.3803 20.983 59.1217 20.983C58.8631 20.983 58.7357 21.1606 58.7357 21.4578Z" fill="#263238"/>
<path d="M95.8341 20.3691H94.9038V22.6929H95.8341V20.3691Z" fill="#263238"/>
<path d="M97.0733 19.9021H96.1431V22.6929H97.0733V19.9021Z" fill="#263238"/>
<path d="M98.3126 19.5703H97.3823V22.6931H98.3126V19.5703Z" fill="#263238"/>
<path d="M99.5553 18.9951H98.625V22.693H99.5553V18.9951Z" fill="#263238"/>
<path d="M111.062 22.6312H105.492V19.219H111.07L111.062 22.6312ZM105.793 22.3186H110.753V19.5278H105.793V22.3186Z" fill="#263238"/>
<path d="M109.202 19.8674H106.256V21.9827H109.202V19.8674Z" fill="#263238"/>
<path d="M111.572 20.5237H110.869V21.3266H111.572V20.5237Z" fill="#263238"/>
<path d="M103.438 21.8862C103.401 21.887 103.363 21.8776 103.33 21.8592C102.195 21.1837 101.443 21.809 101.4 21.836C101.361 21.8747 101.309 21.8964 101.254 21.8964C101.199 21.8964 101.146 21.8747 101.107 21.836C101.072 21.7941 101.054 21.7401 101.058 21.6855C101.061 21.6308 101.086 21.5796 101.126 21.5427C101.165 21.5079 102.126 20.6857 103.531 21.5195C103.555 21.5334 103.575 21.5519 103.592 21.5738C103.608 21.5957 103.62 21.6206 103.627 21.6471C103.634 21.6736 103.635 21.7013 103.631 21.7284C103.627 21.7555 103.618 21.7816 103.604 21.8051C103.585 21.8307 103.56 21.8514 103.531 21.8655C103.502 21.8795 103.47 21.8866 103.438 21.8862Z" fill="#263238"/>
<path d="M103.855 21.1875C103.818 21.1886 103.781 21.1778 103.751 21.1566C102.107 20.18 101.003 21.1257 100.991 21.1334C100.952 21.1721 100.899 21.1938 100.844 21.1938C100.789 21.1938 100.737 21.1721 100.698 21.1334C100.662 21.0909 100.644 21.0363 100.648 20.981C100.652 20.9256 100.676 20.8738 100.717 20.8362C100.717 20.8362 102.064 19.6782 103.963 20.8362C104.002 20.8599 104.032 20.8956 104.048 20.9378C104.065 20.9799 104.067 21.0263 104.055 21.07C104.043 21.1136 104.016 21.152 103.98 21.1795C103.944 21.207 103.9 21.222 103.855 21.2222V21.1875Z" fill="#263238"/>
<path d="M104.238 20.377C104.201 20.3763 104.165 20.3656 104.133 20.3461C102.053 19.1109 100.659 20.2728 100.613 20.323C100.594 20.3427 100.571 20.3583 100.545 20.369C100.52 20.3797 100.492 20.3852 100.465 20.3852C100.437 20.3852 100.409 20.3797 100.384 20.369C100.358 20.3583 100.335 20.3427 100.316 20.323C100.281 20.281 100.263 20.2271 100.267 20.1724C100.27 20.1177 100.295 20.0666 100.335 20.0296C100.355 20.0296 101.995 18.6091 104.346 20.0064C104.393 20.0353 104.426 20.0812 104.44 20.1344C104.454 20.1877 104.446 20.2442 104.419 20.2921C104.398 20.3198 104.37 20.342 104.339 20.3568C104.307 20.3716 104.273 20.3785 104.238 20.377Z" fill="#263238"/>
<path d="M102.809 22.2374C102.809 22.3414 102.778 22.443 102.72 22.5294C102.663 22.6158 102.58 22.6831 102.484 22.7227C102.388 22.7624 102.282 22.7725 102.18 22.7519C102.078 22.7314 101.985 22.681 101.912 22.6072C101.838 22.5334 101.789 22.4395 101.769 22.3374C101.749 22.2353 101.76 22.1296 101.8 22.0338C101.841 21.9379 101.909 21.8562 101.995 21.799C102.082 21.7418 102.184 21.7117 102.288 21.7124C102.357 21.7124 102.425 21.726 102.488 21.7524C102.552 21.7789 102.61 21.8176 102.658 21.8664C102.706 21.9152 102.745 21.9731 102.771 22.0368C102.797 22.1004 102.81 22.1686 102.809 22.2374Z" fill="#263238"/>
<path d="M105.21 153.01L107.09 151.131C107.193 151.021 107.248 150.876 107.246 150.726C107.243 150.576 107.182 150.432 107.076 150.326C106.97 150.22 106.827 150.16 106.677 150.157C106.527 150.154 106.382 150.21 106.272 150.312L104.392 152.192L102.512 150.312C102.404 150.203 102.256 150.142 102.103 150.141C101.949 150.141 101.801 150.202 101.692 150.31C101.583 150.419 101.522 150.566 101.521 150.72C101.521 150.874 101.582 151.021 101.69 151.131L103.562 153.01L101.678 154.89C101.571 154.999 101.511 155.146 101.511 155.299C101.511 155.452 101.571 155.599 101.678 155.708C101.788 155.817 101.936 155.878 102.09 155.878C102.244 155.878 102.391 155.817 102.501 155.708L104.38 153.829L106.26 155.708C106.314 155.763 106.377 155.806 106.448 155.835C106.518 155.864 106.593 155.879 106.669 155.878C106.746 155.879 106.821 155.865 106.892 155.836C106.962 155.806 107.026 155.763 107.079 155.708C107.133 155.655 107.176 155.591 107.205 155.521C107.234 155.451 107.25 155.375 107.25 155.299C107.25 155.223 107.234 155.148 107.205 155.078C107.176 155.007 107.133 154.944 107.079 154.89L105.21 153.01Z" fill="#263238"/>
<path d="M59.0871 130.19V126.388L58.952 126.442L58.7281 126.508L58.5042 126.569C58.4566 126.581 58.4101 126.596 58.3652 126.616V126.017L58.566 125.936L58.8246 125.817C58.9129 125.774 58.998 125.725 59.0793 125.67C59.1503 125.622 59.2151 125.564 59.2723 125.5H59.8861V130.19H59.0871Z" fill="#263238"/>
<path d="M80.7109 130.19V129.627L81.8689 127.835C81.9539 127.704 82.0349 127.581 82.1083 127.449C82.1856 127.329 82.2478 127.199 82.2935 127.063C82.3441 126.926 82.369 126.781 82.3669 126.635C82.3727 126.5 82.3406 126.366 82.2742 126.249C82.2422 126.203 82.1987 126.166 82.1479 126.141C82.0971 126.117 82.0409 126.106 81.9847 126.11C81.9319 126.107 81.879 126.114 81.8292 126.132C81.7793 126.15 81.7338 126.178 81.6952 126.214C81.6231 126.289 81.5736 126.383 81.5524 126.484C81.5258 126.611 81.5129 126.741 81.5138 126.87V127.071H80.7418V126.863C80.7363 126.612 80.7796 126.363 80.8692 126.129C80.9427 125.927 81.0777 125.753 81.2552 125.631C81.4643 125.508 81.7035 125.445 81.9461 125.45C82.1111 125.436 82.2771 125.458 82.4329 125.514C82.5887 125.57 82.7307 125.659 82.8494 125.774C83.0624 126.025 83.1702 126.349 83.1505 126.677C83.1527 126.856 83.1253 127.033 83.0694 127.202C83.0139 127.359 82.9414 127.509 82.8532 127.65C82.7657 127.794 82.6692 127.941 82.5637 128.09L81.6026 129.549H83.0269V130.19H80.7109Z" fill="#263238"/>
<path d="M103.299 130.26C103.052 130.27 102.807 130.214 102.589 130.098C102.413 129.987 102.277 129.821 102.203 129.627C102.118 129.401 102.078 129.161 102.084 128.92V128.758H102.856V128.893C102.857 129.023 102.871 129.152 102.898 129.279C102.915 129.37 102.959 129.454 103.025 129.519C103.102 129.576 103.196 129.605 103.292 129.6C103.34 129.603 103.388 129.597 103.434 129.582C103.48 129.567 103.522 129.543 103.558 129.511C103.625 129.441 103.668 129.352 103.682 129.256C103.702 129.128 103.713 128.999 103.712 128.87C103.721 128.676 103.682 128.483 103.601 128.306C103.554 128.234 103.489 128.175 103.413 128.137C103.336 128.098 103.25 128.081 103.164 128.086H103.029V127.419H103.176C103.257 127.426 103.339 127.415 103.416 127.385C103.492 127.356 103.561 127.309 103.616 127.249C103.709 127.087 103.75 126.902 103.736 126.716C103.742 126.557 103.712 126.398 103.647 126.253C103.611 126.195 103.56 126.149 103.499 126.12C103.438 126.09 103.37 126.079 103.303 126.087C103.235 126.08 103.166 126.094 103.106 126.127C103.046 126.16 102.998 126.211 102.967 126.272C102.907 126.424 102.877 126.587 102.879 126.751V126.925H102.107V126.701C102.1 126.467 102.147 126.234 102.246 126.021C102.336 125.838 102.482 125.688 102.663 125.593C102.867 125.489 103.094 125.438 103.323 125.446C103.555 125.438 103.785 125.487 103.994 125.589C104.172 125.683 104.317 125.83 104.407 126.01C104.507 126.219 104.556 126.449 104.55 126.681C104.551 126.931 104.475 127.175 104.334 127.38C104.234 127.548 104.074 127.673 103.886 127.727C104.009 127.766 104.121 127.835 104.21 127.928C104.311 128.038 104.385 128.171 104.427 128.314C104.485 128.494 104.512 128.681 104.508 128.87C104.511 129.122 104.47 129.373 104.388 129.611C104.317 129.816 104.182 129.992 104.002 130.113C103.787 130.229 103.543 130.28 103.299 130.26Z" fill="#263238"/>
<path d="M59.4769 138.505V137.347H58.0757V136.663L59.2954 133.807H60.2296V136.71H60.7159V137.347H60.2373V138.505H59.4769ZM58.7473 136.717H59.4769V134.679L58.7473 136.717Z" fill="#263238"/>
<path d="M81.946 138.574C81.6922 138.589 81.4397 138.529 81.2203 138.4C81.0472 138.285 80.9212 138.111 80.8652 137.91C80.7928 137.667 80.7589 137.415 80.7648 137.161H81.5368C81.5343 137.302 81.5446 137.443 81.5677 137.582C81.5797 137.687 81.6242 137.786 81.6951 137.864C81.731 137.9 81.7748 137.927 81.8229 137.944C81.8711 137.961 81.9224 137.966 81.973 137.96C82.0285 137.966 82.0846 137.957 82.1354 137.934C82.1863 137.911 82.2301 137.875 82.2625 137.829C82.3241 137.718 82.3598 137.594 82.3667 137.466C82.3667 137.308 82.3899 137.127 82.3899 136.918C82.3927 136.759 82.3824 136.6 82.359 136.443C82.3471 136.329 82.3044 136.219 82.2355 136.127C82.1987 136.088 82.1536 136.057 82.1034 136.038C82.0533 136.019 81.9995 136.011 81.946 136.015C81.8945 136.014 81.8434 136.024 81.7957 136.043C81.748 136.062 81.7046 136.091 81.6681 136.127C81.5902 136.212 81.5345 136.316 81.5059 136.428H80.815L80.8613 133.815H82.9689V134.533H81.5368L81.4905 135.664C81.5571 135.585 81.6438 135.526 81.7414 135.494C81.8651 135.448 81.9956 135.423 82.1274 135.42C82.3401 135.399 82.5534 135.454 82.7296 135.575C82.8922 135.704 83.0109 135.881 83.0692 136.081C83.1468 136.33 83.1845 136.591 83.1812 136.853C83.1832 137.081 83.1664 137.31 83.131 137.536C83.1053 137.726 83.0437 137.909 82.9496 138.076C82.858 138.229 82.7239 138.353 82.5636 138.431C82.3724 138.528 82.1604 138.577 81.946 138.574Z" fill="#263238"/>
<path d="M103.327 138.574C103.075 138.584 102.827 138.513 102.62 138.369C102.44 138.228 102.305 138.036 102.234 137.817C102.151 137.569 102.109 137.308 102.111 137.045V135.401C102.107 135.122 102.142 134.844 102.215 134.575C102.277 134.344 102.413 134.14 102.601 133.992C102.817 133.838 103.08 133.763 103.346 133.78C103.577 133.77 103.808 133.816 104.017 133.915C104.185 133.997 104.321 134.133 104.403 134.301C104.49 134.503 104.53 134.722 104.523 134.942C104.523 134.942 104.523 134.965 104.523 134.98C104.525 134.993 104.525 135.006 104.523 135.019H103.751C103.76 134.859 103.735 134.698 103.678 134.548C103.645 134.493 103.597 134.449 103.539 134.421C103.482 134.394 103.417 134.384 103.354 134.394C103.309 134.392 103.264 134.399 103.222 134.415C103.181 134.431 103.142 134.455 103.11 134.486C103.037 134.571 102.99 134.676 102.975 134.787C102.94 134.974 102.925 135.165 102.929 135.355V135.914C102.99 135.822 103.075 135.748 103.176 135.702C103.336 135.639 103.509 135.614 103.681 135.63C103.853 135.646 104.018 135.702 104.164 135.795C104.316 135.918 104.426 136.085 104.481 136.273C104.546 136.502 104.577 136.739 104.573 136.976C104.577 137.253 104.538 137.529 104.457 137.794C104.39 138.02 104.255 138.219 104.071 138.366C103.854 138.518 103.591 138.592 103.327 138.574ZM103.327 137.953C103.374 137.956 103.422 137.948 103.466 137.93C103.51 137.912 103.55 137.884 103.581 137.848C103.646 137.764 103.689 137.664 103.705 137.559C103.73 137.416 103.741 137.271 103.74 137.127C103.74 136.957 103.74 136.802 103.72 136.671C103.712 136.557 103.675 136.446 103.612 136.351C103.577 136.31 103.532 136.278 103.481 136.258C103.431 136.237 103.377 136.23 103.323 136.235C103.26 136.234 103.199 136.246 103.141 136.27C103.088 136.294 103.038 136.327 102.995 136.366C102.958 136.401 102.926 136.44 102.898 136.482V137.219C102.898 137.341 102.911 137.463 102.937 137.582C102.957 137.683 103.003 137.776 103.072 137.852C103.106 137.886 103.146 137.912 103.191 137.928C103.235 137.945 103.283 137.952 103.33 137.949L103.327 137.953Z" fill="#263238"/>
<path d="M58.6085 146.819L59.558 142.743H58.2881V142.129H60.33V142.619L59.3843 146.819H58.6085Z" fill="#263238"/>
<path d="M81.9111 146.881C81.6595 146.893 81.4099 146.831 81.1931 146.703C81.0121 146.584 80.8762 146.407 80.8071 146.201C80.7257 145.962 80.6865 145.709 80.6913 145.456C80.6892 145.327 80.7009 145.197 80.726 145.07C80.7493 144.962 80.7869 144.856 80.838 144.758C80.8837 144.668 80.9437 144.585 81.0155 144.514C81.0835 144.442 81.1631 144.382 81.251 144.337C81.1066 144.236 80.9866 144.104 80.8997 143.951C80.799 143.753 80.7486 143.533 80.7531 143.31C80.7482 143.084 80.7902 142.859 80.8766 142.65C80.9542 142.468 81.09 142.318 81.2626 142.222C81.4616 142.115 81.6854 142.063 81.9111 142.071C82.1368 142.062 82.3608 142.114 82.5595 142.222C82.7312 142.319 82.8667 142.469 82.9455 142.65C83.0342 142.858 83.0751 143.084 83.0652 143.31C83.0712 143.533 83.0221 143.755 82.9224 143.955C82.84 144.109 82.7223 144.241 82.5788 144.341C82.6679 144.386 82.7488 144.446 82.8182 144.518C82.8888 144.589 82.9475 144.672 82.9919 144.761C83.043 144.86 83.0806 144.965 83.1038 145.074C83.1304 145.201 83.1433 145.33 83.1424 145.46C83.151 145.714 83.1117 145.966 83.0266 146.205C82.9562 146.41 82.8206 146.586 82.6406 146.707C82.42 146.836 82.1661 146.896 81.9111 146.881ZM81.9111 146.275C81.9644 146.279 82.018 146.271 82.0676 146.251C82.1172 146.23 82.1614 146.199 82.1967 146.159C82.2657 146.075 82.3098 145.973 82.3241 145.865C82.343 145.745 82.352 145.624 82.3511 145.503C82.3564 145.373 82.3473 145.244 82.3241 145.117C82.305 145.008 82.26 144.906 82.1928 144.819C82.1578 144.78 82.1142 144.749 82.0653 144.729C82.0165 144.709 81.9637 144.7 81.9111 144.704C81.8595 144.7 81.8079 144.709 81.7603 144.729C81.7128 144.749 81.6705 144.78 81.637 144.819C81.5686 144.905 81.5223 145.005 81.5019 145.113C81.4779 145.24 81.4663 145.369 81.4672 145.499C81.4658 145.622 81.4761 145.744 81.498 145.865C81.5136 145.974 81.5591 146.075 81.6293 146.159C81.663 146.201 81.7059 146.235 81.7547 146.259C81.8035 146.282 81.857 146.294 81.9111 146.294V146.275ZM81.9111 144.032C81.9541 144.033 81.9968 144.024 82.0361 144.007C82.0755 143.99 82.1105 143.964 82.1388 143.932C82.2019 143.857 82.2433 143.766 82.2585 143.669C82.2832 143.542 82.2948 143.413 82.2932 143.283C82.2997 143.133 82.2706 142.984 82.2083 142.847C82.1805 142.793 82.1375 142.749 82.0846 142.719C82.0318 142.69 81.9714 142.676 81.9111 142.681C81.8508 142.677 81.7906 142.69 81.7379 142.72C81.6851 142.749 81.6421 142.793 81.6138 142.847C81.5441 142.979 81.5108 143.127 81.5173 143.275C81.5152 143.405 81.5282 143.535 81.556 143.661C81.5716 143.76 81.6143 143.852 81.6795 143.928C81.7085 143.961 81.7441 143.987 81.7841 144.005C81.824 144.023 81.8673 144.032 81.9111 144.032Z" fill="#263238"/>
<path d="M81.9112 155.029C81.673 155.04 81.4369 154.981 81.2318 154.859C81.0517 154.743 80.9105 154.575 80.8265 154.377C80.7315 154.154 80.6854 153.913 80.6914 153.671V151.59C80.6859 151.344 80.7305 151.1 80.8227 150.872C80.8974 150.675 81.0325 150.506 81.2087 150.39C81.4212 150.276 81.6585 150.216 81.8996 150.216C82.1407 150.216 82.3781 150.276 82.5906 150.39C82.7655 150.507 82.9003 150.675 82.9766 150.872C83.0669 151.1 83.1115 151.344 83.1078 151.59V153.671C83.1126 153.913 83.0652 154.154 82.9688 154.377C82.8849 154.575 82.7437 154.743 82.5635 154.859C82.3663 154.976 82.1403 155.035 81.9112 155.029ZM81.9112 154.342C81.9609 154.346 82.0107 154.338 82.0568 154.319C82.103 154.3 82.1443 154.271 82.1775 154.234C82.2375 154.155 82.2772 154.062 82.2933 153.964C82.3132 153.863 82.3235 153.761 82.3242 153.659V151.602C82.3227 151.494 82.3137 151.387 82.2972 151.281C82.2824 151.183 82.2439 151.091 82.1853 151.011C82.1512 150.973 82.1086 150.943 82.061 150.924C82.0135 150.906 81.9621 150.898 81.9112 150.903C81.8608 150.898 81.8101 150.906 81.7631 150.924C81.7162 150.943 81.6743 150.973 81.641 151.011C81.5811 151.09 81.5413 151.183 81.5252 151.281C81.51 151.387 81.5022 151.494 81.502 151.602V153.659C81.5008 153.761 81.5112 153.864 81.5329 153.964C81.5504 154.062 81.5914 154.155 81.6526 154.234C81.6845 154.271 81.7244 154.3 81.7693 154.318C81.8141 154.337 81.8627 154.345 81.9112 154.342Z" fill="#263238"/>
<path d="M103.245 146.881C103.015 146.889 102.785 146.842 102.577 146.742C102.406 146.654 102.27 146.511 102.191 146.336C102.105 146.131 102.065 145.91 102.072 145.688V145.626H102.844C102.836 145.786 102.862 145.945 102.921 146.093C102.955 146.149 103.004 146.194 103.063 146.222C103.122 146.25 103.188 146.26 103.253 146.251C103.298 146.254 103.343 146.247 103.384 146.231C103.426 146.215 103.464 146.191 103.496 146.159C103.566 146.069 103.61 145.963 103.623 145.85C103.655 145.665 103.669 145.478 103.666 145.29V144.727C103.608 144.819 103.523 144.892 103.423 144.935C103.301 144.988 103.17 145.016 103.037 145.016C102.823 145.031 102.611 144.969 102.438 144.843C102.286 144.712 102.176 144.538 102.122 144.345C102.054 144.115 102.022 143.877 102.025 143.638C102.02 143.363 102.06 143.089 102.145 142.828C102.214 142.608 102.349 142.416 102.531 142.276C102.742 142.135 102.992 142.064 103.245 142.075C103.496 142.062 103.744 142.131 103.952 142.272C104.132 142.406 104.266 142.592 104.338 142.804C104.422 143.053 104.464 143.314 104.461 143.576V145.236C104.465 145.517 104.429 145.796 104.353 146.066C104.291 146.298 104.155 146.504 103.967 146.653C103.76 146.809 103.505 146.89 103.245 146.881ZM103.245 144.41C103.338 144.415 103.43 144.387 103.504 144.329C103.564 144.28 103.617 144.221 103.658 144.155V143.426C103.659 143.303 103.648 143.18 103.623 143.059C103.606 142.961 103.564 142.869 103.5 142.793C103.467 142.758 103.427 142.73 103.382 142.712C103.338 142.694 103.289 142.686 103.241 142.689C103.194 142.686 103.147 142.694 103.104 142.712C103.06 142.73 103.022 142.758 102.99 142.793C102.922 142.876 102.878 142.976 102.863 143.082C102.838 143.226 102.827 143.372 102.828 143.519C102.828 143.669 102.835 143.82 102.851 143.97C102.856 144.085 102.892 144.196 102.956 144.291C102.991 144.333 103.036 144.367 103.087 144.388C103.138 144.409 103.194 144.416 103.249 144.41H103.245Z" fill="#263238"/>
<path d="M76.623 108.636V103.946H78.5916V104.548H77.48V105.895H78.3562V106.494H77.48V108.038H78.6032V108.628L76.623 108.636Z" fill="#039855"/>
<path d="M79.1011 108.636V103.946H79.6994L80.8381 106.621V103.946H81.5599V108.636H80.9925L79.8345 105.834V108.636H79.1011Z" fill="#039855"/>
<path d="M82.7181 108.636V104.575H81.9731V103.946H84.3123V104.575H83.575V108.636H82.7181Z" fill="#039855"/>
<path d="M84.7485 108.636V103.946H86.7171V104.548H85.6055V105.895H86.4778V106.494H85.6055V108.038H86.7287V108.628L84.7485 108.636Z" fill="#039855"/>
<path d="M87.2266 108.636V103.946H88.3498C88.6218 103.938 88.8932 103.976 89.1527 104.058C89.3587 104.125 89.5349 104.261 89.6506 104.444C89.7743 104.671 89.8331 104.927 89.8205 105.185C89.8218 105.356 89.8037 105.527 89.7664 105.695C89.7377 105.835 89.6784 105.966 89.5927 106.081C89.5013 106.193 89.3813 106.278 89.2453 106.328L89.9015 108.644H89.0446L88.4772 106.494H88.0912V108.644L87.2266 108.636ZM88.0835 105.934H88.3498C88.4822 105.937 88.6137 105.912 88.7358 105.861C88.8312 105.811 88.9054 105.729 88.9443 105.629C88.9914 105.498 89.0137 105.359 89.0099 105.22C89.024 105.034 88.978 104.849 88.8786 104.691C88.8165 104.624 88.7392 104.573 88.6532 104.542C88.5672 104.511 88.4751 104.501 88.3846 104.513H88.0719L88.0835 105.934Z" fill="#039855"/>
<path d="M65.0547 41.0241L64.2363 36.9595H64.8925L65.4291 39.8352L65.9309 36.9595H66.6025L65.7842 41.0241H65.0547Z" fill="#263238"/>
<path d="M67.0195 41.0241V36.9595H68.7257V37.4806H67.7645V38.6386H68.5365V39.1558H67.7645V40.53H68.7372V41.0395L67.0195 41.0241Z" fill="#263238"/>
<path d="M69.1655 41.0241V36.9595H70.1421C70.3777 36.9543 70.6124 36.9882 70.8369 37.0599C71.0155 37.1164 71.1685 37.2339 71.2692 37.3918C71.3758 37.588 71.4266 37.8096 71.4159 38.0326C71.4177 38.1818 71.4021 38.3308 71.3696 38.4765C71.344 38.5967 71.2927 38.71 71.2191 38.8084C71.1397 38.906 71.0358 38.9806 70.918 39.0246L71.4854 41.0241H70.752L70.2579 39.1636H69.9182V41.0241H69.1655ZM69.9105 38.7081H70.1421C70.2598 38.714 70.3774 38.6929 70.4856 38.6463C70.57 38.6056 70.6351 38.5336 70.6671 38.4456C70.7077 38.3318 70.726 38.2112 70.7211 38.0905C70.7327 37.9294 70.6936 37.7688 70.6092 37.6311C70.5546 37.5741 70.4874 37.5308 70.4129 37.5046C70.3385 37.4785 70.2589 37.4702 70.1807 37.4806H69.9105V38.7081Z" fill="#263238"/>
<path d="M71.9912 41.0241V36.9595H72.7246V41.0241H71.9912Z" fill="#263238"/>
<path d="M73.3535 41.0241V36.9595H75.0249V37.4729H74.0946V38.6579H74.8666V39.1751H74.0946V41.0241H73.3535Z" fill="#263238"/>
<path d="M75.4302 41.0241V36.9595H76.1559V41.0241H75.4302Z" fill="#263238"/>
<path d="M77.8853 41.0819C77.6386 41.0947 77.3937 41.0328 77.1828 40.9043C77.0149 40.7891 76.891 40.6204 76.8315 40.4257C76.7598 40.1999 76.7259 39.9638 76.7311 39.727V38.2756C76.7252 38.0312 76.7591 37.7874 76.8315 37.5538C76.8882 37.3597 77.0129 37.1926 77.1828 37.0829C77.3958 36.9604 77.6399 36.9027 77.8853 36.9169C78.1141 36.905 78.3419 36.9543 78.5453 37.0597C78.702 37.1523 78.8209 37.2972 78.8812 37.4689C78.9525 37.6654 78.9866 37.8736 78.9815 38.0826V38.4262H78.2713V38.0749C78.2776 37.9708 78.2776 37.8664 78.2713 37.7623C78.2641 37.6792 78.2303 37.6006 78.1748 37.5384C78.1381 37.5076 78.0957 37.4846 78.0499 37.4707C78.0041 37.4567 77.956 37.4522 77.9084 37.4573C77.8078 37.4494 77.708 37.4813 77.6305 37.5461C77.5689 37.611 77.5285 37.6931 77.5147 37.7816C77.4984 37.8914 77.4906 38.0024 77.4916 38.1135V39.8814C77.4891 40.0033 77.5008 40.125 77.5263 40.2442C77.5435 40.3285 77.5883 40.4045 77.6537 40.4604C77.7273 40.5142 77.8175 40.5401 77.9084 40.5337C77.956 40.5385 78.004 40.533 78.0493 40.5177C78.0945 40.5024 78.136 40.4776 78.1709 40.445C78.228 40.3807 78.2619 40.2991 78.2674 40.2134C78.2836 40.1048 78.2914 39.9951 78.2906 39.8853V39.4993H79.0008V39.8274C79.004 40.0445 78.9727 40.2608 78.9082 40.4681C78.847 40.6463 78.729 40.7996 78.5724 40.9043C78.3662 41.0307 78.1269 41.0925 77.8853 41.0819Z" fill="#263238"/>
<path d="M79.2939 41.0241L80.1045 36.9595H80.8997L81.7103 41.0241H81.0232L80.865 40.0861H80.1547L79.9926 41.0241H79.2939ZM80.2319 39.6152H80.7878L80.5098 37.909L80.2319 39.6152Z" fill="#263238"/>
<path d="M82.3321 41.0241V37.5076H81.6836V36.9595H83.7101V37.5076H83.0732V41.0241H82.3321Z" fill="#263238"/>
<path d="M84.1035 41.0241V36.9595H84.8369V41.0241H84.1035Z" fill="#263238"/>
<path d="M86.578 41.0819C86.3383 41.0941 86.1 41.0379 85.891 40.9198C85.72 40.8111 85.5908 40.6479 85.5243 40.4566C85.4496 40.2315 85.4143 39.9951 85.42 39.758V38.214C85.4151 37.9737 85.453 37.7345 85.532 37.5076C85.5952 37.322 85.7189 37.1629 85.8832 37.056C86.0938 36.9425 86.3315 36.8891 86.5703 36.9016C86.8117 36.8886 87.0519 36.942 87.2651 37.056C87.4335 37.1605 87.5625 37.318 87.6318 37.5037C87.7086 37.7324 87.7439 37.9729 87.736 38.214V39.758C87.7403 39.9981 87.7024 40.2372 87.6241 40.4643C87.555 40.6532 87.4262 40.8144 87.2574 40.9237C87.0499 41.038 86.8147 41.0928 86.578 41.0819ZM86.578 40.5338C86.6764 40.5429 86.7745 40.5138 86.8521 40.4528C86.9139 40.3942 86.9546 40.3168 86.9679 40.2327C86.9885 40.1324 86.9989 40.0302 86.9988 39.9278V38.0557C86.9992 37.952 86.9889 37.8485 86.9679 37.7469C86.953 37.6655 86.9124 37.5911 86.8521 37.5346C86.7749 37.4717 86.6776 37.4388 86.578 37.442C86.4829 37.4356 86.3886 37.4629 86.3117 37.5192C86.2499 37.5751 86.2079 37.6496 86.192 37.7315C86.1692 37.8327 86.1588 37.9364 86.1612 38.0403V39.9124C86.1599 40.0146 86.1689 40.1168 86.1882 40.2173C86.2025 40.3019 86.2446 40.3793 86.3078 40.4373C86.3827 40.5016 86.4794 40.5348 86.578 40.53V40.5338Z" fill="#263238"/>
<path d="M88.292 41.0241V36.9595H88.8092L89.7974 39.2755V36.9595H90.4073V41.0241H89.917L88.925 38.6V41.0279L88.292 41.0241Z" fill="#263238"/>
<path d="M93.3367 41.082C93.0913 41.0943 92.8478 41.0325 92.6381 40.9045C92.4702 40.7893 92.3463 40.6205 92.2868 40.4258C92.2137 40.2003 92.1785 39.9642 92.1826 39.7272V38.2758C92.1777 38.0311 92.2129 37.7873 92.2868 37.554C92.3435 37.3599 92.4682 37.1927 92.6381 37.0831C92.8498 36.9608 93.0926 36.9031 93.3367 36.9171C93.5656 36.9042 93.7937 36.9536 93.9968 37.0599C94.1549 37.1518 94.2753 37.2967 94.3365 37.4691C94.4078 37.6656 94.4419 37.8738 94.4368 38.0828V38.4263H93.7266V38.0751C93.7265 37.9706 93.7201 37.8661 93.7073 37.7624C93.7001 37.6793 93.6663 37.6008 93.6108 37.5385C93.5741 37.5078 93.5316 37.4847 93.4859 37.4708C93.4401 37.4569 93.392 37.4524 93.3444 37.4575C93.2437 37.4496 93.144 37.4814 93.0665 37.5463C93.0033 37.6101 92.9627 37.6927 92.9507 37.7817C92.9343 37.8916 92.9266 38.0026 92.9276 38.1137V39.8816C92.9251 40.0034 92.9368 40.1252 92.9623 40.2444C92.9795 40.3286 93.0243 40.4047 93.0897 40.4606C93.1633 40.5143 93.2535 40.5403 93.3444 40.5339C93.392 40.5386 93.44 40.5332 93.4853 40.5178C93.5305 40.5025 93.572 40.4777 93.6069 40.4451C93.6617 40.3794 93.6953 40.2987 93.7034 40.2135C93.7196 40.1049 93.7274 39.9952 93.7266 39.8854V39.4994H94.4368V39.8275C94.441 40.045 94.4084 40.2617 94.3403 40.4683C94.282 40.6469 94.165 40.8006 94.0084 40.9045C93.8065 41.0277 93.5731 41.0894 93.3367 41.082Z" fill="#263238"/>
<path d="M96.058 41.0821C95.8183 41.0939 95.5801 41.0377 95.3709 40.92C95.2 40.8113 95.0708 40.648 95.0042 40.4568C94.927 40.2281 94.8904 39.9878 94.8961 39.7465V38.2141C94.8901 37.9741 94.9267 37.7349 95.0042 37.5077C95.0722 37.3212 95.2015 37.1634 95.3709 37.06C95.5871 36.9584 95.823 36.9058 96.0619 36.9058C96.3007 36.9058 96.5366 36.9584 96.7528 37.06C96.9222 37.1634 97.0515 37.3212 97.1195 37.5077C97.2005 37.7342 97.2385 37.9737 97.2314 38.2141V39.7581C97.2377 39.9984 97.1997 40.2379 97.1195 40.4645C97.0519 40.6542 96.9228 40.8159 96.7528 40.9238C96.5407 41.041 96.2999 41.0959 96.058 41.0821ZM96.058 40.534C96.1564 40.543 96.2544 40.514 96.3321 40.4529C96.3926 40.3928 96.4342 40.3163 96.4517 40.2329C96.471 40.1324 96.48 40.0302 96.4787 39.9279V38.0558C96.4804 37.9523 96.4713 37.8488 96.4517 37.747C96.4332 37.6662 96.3917 37.5924 96.3321 37.5347C96.2511 37.4841 96.1574 37.4572 96.0619 37.4572C95.9663 37.4572 95.8727 37.4841 95.7917 37.5347C95.7299 37.5907 95.6879 37.6652 95.672 37.747C95.651 37.8486 95.6407 37.9521 95.6411 38.0558V39.9279C95.6418 40.0302 95.6508 40.1321 95.6681 40.2329C95.6825 40.3175 95.7246 40.3949 95.7878 40.4529C95.865 40.5117 95.9614 40.5392 96.058 40.5301V40.534Z" fill="#263238"/>
<path d="M97.772 41.024V36.9594H98.7293C98.9933 36.9482 99.2567 36.9943 99.5013 37.0945C99.6756 37.1829 99.8125 37.3308 99.8873 37.5114C99.9714 37.7398 100.011 37.9822 100.003 38.2255V39.7116C100.01 39.9611 99.971 40.2098 99.8873 40.445C99.8171 40.6332 99.6795 40.7886 99.5013 40.8812C99.2666 40.9878 99.0098 41.0367 98.7524 41.024H97.772ZM98.5131 40.5068H98.7408C98.8696 40.5192 98.9988 40.488 99.1075 40.418C99.1856 40.3518 99.2342 40.2574 99.2426 40.1555C99.2595 40.0146 99.2672 39.8728 99.2658 39.7309V38.1869C99.2679 38.0574 99.2563 37.928 99.2311 37.8009C99.2234 37.7565 99.2069 37.714 99.1823 37.6762C99.1577 37.6384 99.1257 37.6059 99.0882 37.5809C98.9767 37.5268 98.8529 37.5028 98.7293 37.5114H98.5131V40.5068Z" fill="#263238"/>
<path d="M100.574 41.0241V36.9595H102.28V37.4806H101.315V38.6386H102.087V39.1558H101.315V40.53H102.292V41.0395L100.574 41.0241Z" fill="#263238"/>
<path d="M155.591 26.6071C155.54 26.6071 155.491 26.5867 155.454 26.5505C155.418 26.5144 155.398 26.4653 155.398 26.4141V24.4841C155.398 24.4329 155.418 24.3838 155.454 24.3476C155.491 24.3114 155.54 24.2911 155.591 24.2911C155.642 24.2911 155.691 24.3114 155.727 24.3476C155.764 24.3838 155.784 24.4329 155.784 24.4841V26.4141C155.784 26.4653 155.764 26.5144 155.727 26.5505C155.691 26.5867 155.642 26.6071 155.591 26.6071ZM155.591 22.7471C155.54 22.7471 155.491 22.7267 155.454 22.6905C155.418 22.6544 155.398 22.6053 155.398 22.5541V20.6241C155.398 20.5729 155.418 20.5238 155.454 20.4876C155.491 20.4514 155.54 20.4311 155.591 20.4311C155.642 20.4311 155.691 20.4514 155.727 20.4876C155.764 20.5238 155.784 20.5729 155.784 20.6241V22.5541C155.784 22.6053 155.764 22.6544 155.727 22.6905C155.691 22.7267 155.642 22.7471 155.591 22.7471ZM155.591 18.8871C155.54 18.8871 155.491 18.8667 155.454 18.8305C155.418 18.7944 155.398 18.7453 155.398 18.6941V16.7641C155.398 16.7129 155.418 16.6638 155.454 16.6276C155.491 16.5914 155.54 16.5711 155.591 16.5711C155.642 16.5711 155.691 16.5914 155.727 16.6276C155.764 16.6638 155.784 16.7129 155.784 16.7641V18.6941C155.784 18.7453 155.764 18.7944 155.727 18.8305C155.691 18.8667 155.642 18.8871 155.591 18.8871ZM155.591 15.0271C155.54 15.0271 155.491 15.0067 155.454 14.9705C155.418 14.9344 155.398 14.8853 155.398 14.8341V12.9041C155.398 12.8529 155.418 12.8038 155.454 12.7676C155.491 12.7314 155.54 12.7111 155.591 12.7111C155.642 12.7111 155.691 12.7314 155.727 12.7676C155.764 12.8038 155.784 12.8529 155.784 12.9041V14.8341C155.784 14.8853 155.764 14.9344 155.727 14.9705C155.691 15.0067 155.642 15.0271 155.591 15.0271ZM155.591 11.1671C155.54 11.1671 155.491 11.1467 155.454 11.1105C155.418 11.0744 155.398 11.0253 155.398 10.9741V9.04407C155.398 8.99289 155.418 8.9438 155.454 8.9076C155.491 8.87141 155.54 8.85107 155.591 8.85107C155.642 8.85107 155.691 8.87141 155.727 8.9076C155.764 8.9438 155.784 8.99289 155.784 9.04407V10.9741C155.784 11.0253 155.764 11.0744 155.727 11.1105C155.691 11.1467 155.642 11.1671 155.591 11.1671Z" fill="#263238"/>
<path d="M146.022 86.2517H144.274C144.223 86.2517 144.174 86.2314 144.137 86.1952C144.101 86.159 144.081 86.1099 144.081 86.0587C144.082 86.0079 144.102 85.9593 144.138 85.9233C144.174 85.8874 144.223 85.8667 144.274 85.8657H146.204C146.255 85.8657 146.304 85.8861 146.34 85.9223C146.377 85.9585 146.397 86.0075 146.397 86.0587C146.397 86.1099 146.377 86.159 146.34 86.1952C146.304 86.2314 146.255 86.2517 146.204 86.2517H146.022ZM142.344 86.2517H140.414C140.363 86.2517 140.314 86.2314 140.277 86.1952C140.241 86.159 140.221 86.1099 140.221 86.0587C140.222 86.0079 140.242 85.9593 140.278 85.9233C140.314 85.8874 140.363 85.8667 140.414 85.8657H142.344C142.395 85.8657 142.444 85.8861 142.48 85.9223C142.517 85.9585 142.537 86.0075 142.537 86.0587C142.537 86.0851 142.532 86.1112 142.521 86.1354C142.511 86.1596 142.495 86.1814 142.476 86.1995C142.457 86.2175 142.434 86.2315 142.41 86.2405C142.385 86.2495 142.359 86.2533 142.332 86.2517H142.344ZM138.484 86.2517H136.554C136.503 86.2517 136.454 86.2314 136.417 86.1952C136.381 86.159 136.361 86.1099 136.361 86.0587C136.362 86.0079 136.382 85.9593 136.418 85.9233C136.454 85.8874 136.503 85.8667 136.554 85.8657H138.484C138.535 85.8657 138.584 85.8861 138.62 85.9223C138.657 85.9585 138.677 86.0075 138.677 86.0587C138.677 86.0851 138.672 86.1112 138.661 86.1354C138.651 86.1596 138.635 86.1814 138.616 86.1995C138.597 86.2175 138.574 86.2315 138.55 86.2405C138.525 86.2495 138.499 86.2533 138.472 86.2517H138.484ZM134.624 86.2517H132.694C132.643 86.2517 132.594 86.2314 132.557 86.1952C132.521 86.159 132.501 86.1099 132.501 86.0587C132.502 86.0079 132.522 85.9593 132.558 85.9233C132.594 85.8874 132.643 85.8667 132.694 85.8657H134.624C134.675 85.8657 134.724 85.8861 134.76 85.9223C134.797 85.9585 134.817 86.0075 134.817 86.0587C134.817 86.0851 134.812 86.1112 134.801 86.1354C134.791 86.1596 134.775 86.1814 134.756 86.1995C134.737 86.2175 134.714 86.2315 134.69 86.2405C134.665 86.2495 134.639 86.2533 134.612 86.2517H134.624ZM130.764 86.2517H128.834C128.783 86.2517 128.734 86.2314 128.697 86.1952C128.661 86.159 128.641 86.1099 128.641 86.0587C128.642 86.0079 128.662 85.9593 128.698 85.9233C128.734 85.8874 128.783 85.8667 128.834 85.8657H130.764C130.815 85.8657 130.864 85.8861 130.9 85.9223C130.937 85.9585 130.957 86.0075 130.957 86.0587C130.957 86.0851 130.952 86.1112 130.941 86.1354C130.931 86.1596 130.915 86.1814 130.896 86.1995C130.877 86.2175 130.854 86.2315 130.83 86.2405C130.805 86.2495 130.779 86.2533 130.752 86.2517H130.764ZM126.904 86.2517H125.877C125.826 86.2517 125.777 86.2314 125.741 86.1952C125.704 86.159 125.684 86.1099 125.684 86.0587C125.685 86.0079 125.706 85.9593 125.742 85.9233C125.778 85.8874 125.826 85.8667 125.877 85.8657H126.904C126.955 85.8657 127.004 85.8861 127.04 85.9223C127.077 85.9585 127.097 86.0075 127.097 86.0587C127.097 86.0851 127.092 86.1112 127.081 86.1354C127.071 86.1596 127.055 86.1814 127.036 86.1995C127.017 86.2175 126.994 86.2315 126.97 86.2405C126.945 86.2495 126.919 86.2533 126.892 86.2517H126.904ZM148.134 86.024C148.083 86.0296 148.031 86.0147 147.991 85.9825C147.951 85.9503 147.925 85.9034 147.92 85.8522C147.914 85.801 147.929 85.7497 147.961 85.7095C147.993 85.6694 148.04 85.6436 148.091 85.638C148.707 85.5018 149.307 85.3026 149.882 85.0436C149.905 85.0327 149.93 85.0265 149.956 85.0255C149.981 85.0245 150.007 85.0286 150.03 85.0376C150.054 85.0466 150.076 85.0604 150.094 85.078C150.113 85.0956 150.127 85.1167 150.137 85.1401C150.158 85.1866 150.16 85.2396 150.142 85.2874C150.123 85.3351 150.087 85.3737 150.041 85.3948C149.442 85.6645 148.817 85.8728 148.176 86.0163L148.134 86.024ZM151.631 84.453C151.59 84.453 151.551 84.4402 151.518 84.4165C151.485 84.3929 151.461 84.3594 151.448 84.321C151.435 84.2826 151.435 84.2411 151.447 84.2024C151.459 84.1638 151.483 84.1299 151.515 84.1056C152.027 83.7357 152.501 83.3168 152.932 82.8549C152.968 82.8251 153.013 82.8093 153.06 82.8105C153.107 82.8116 153.151 82.8297 153.186 82.8612C153.22 82.8928 153.242 82.9358 153.247 82.9821C153.252 83.0285 153.24 83.0752 153.214 83.1136C152.768 83.5964 152.275 84.0335 151.743 84.4182C151.702 84.4465 151.653 84.4589 151.604 84.453H151.631ZM154.233 81.639C154.197 81.6398 154.162 81.6304 154.132 81.612C154.089 81.5849 154.058 81.5419 154.045 81.4921C154.033 81.4424 154.041 81.3899 154.067 81.3457C154.394 80.8069 154.667 80.2366 154.881 79.6434C154.889 79.6193 154.902 79.597 154.919 79.578C154.936 79.5591 154.957 79.5437 154.98 79.5329C155.003 79.5221 155.028 79.516 155.054 79.5151C155.079 79.5142 155.104 79.5185 155.128 79.5276C155.176 79.545 155.215 79.5808 155.237 79.6272C155.259 79.6735 155.261 79.7265 155.244 79.7746C155.022 80.392 154.739 80.9855 154.399 81.5464C154.379 81.5792 154.35 81.6054 154.316 81.6219C154.282 81.6384 154.243 81.6444 154.206 81.639H154.233ZM155.526 78.0299H155.495C155.445 78.0214 155.4 77.9937 155.369 77.9526C155.339 77.9116 155.326 77.8604 155.333 77.8099C155.394 77.3687 155.425 76.9237 155.425 76.4782V75.9146C155.425 75.8635 155.446 75.8144 155.482 75.7782C155.518 75.742 155.567 75.7216 155.618 75.7216C155.67 75.7216 155.719 75.742 155.755 75.7782C155.791 75.8144 155.811 75.8635 155.811 75.9146V76.4782C155.812 76.9418 155.78 77.4049 155.715 77.8639C155.708 77.9146 155.682 77.9605 155.641 77.9916C155.601 78.0227 155.549 78.0365 155.499 78.0299H155.526ZM155.618 74.1699C155.568 74.1689 155.519 74.1483 155.483 74.1123C155.447 74.0763 155.426 74.0278 155.425 73.9769V72.0469C155.425 71.9957 155.446 71.9467 155.482 71.9105C155.518 71.8743 155.567 71.8539 155.618 71.8539C155.67 71.8539 155.719 71.8743 155.755 71.9105C155.791 71.9467 155.811 71.9957 155.811 72.0469V73.9769C155.813 74.0054 155.808 74.0337 155.797 74.0601C155.786 74.0864 155.77 74.11 155.749 74.1292C155.728 74.1484 155.703 74.1626 155.675 74.171C155.648 74.1794 155.62 74.1817 155.591 74.1776L155.618 74.1699ZM155.618 70.3099C155.568 70.3089 155.519 70.2883 155.483 70.2523C155.447 70.2163 155.426 70.1678 155.425 70.1169V68.1869C155.425 68.1357 155.446 68.0867 155.482 68.0505C155.518 68.0143 155.567 67.9939 155.618 67.9939C155.67 67.9939 155.719 68.0143 155.755 68.0505C155.791 68.0867 155.811 68.1357 155.811 68.1869V70.1169C155.813 70.1454 155.808 70.1737 155.797 70.2001C155.786 70.2264 155.77 70.25 155.749 70.2692C155.728 70.2884 155.703 70.3026 155.675 70.311C155.648 70.3194 155.62 70.3217 155.591 70.3176L155.618 70.3099ZM155.618 66.4499C155.568 66.4489 155.519 66.4283 155.483 66.3923C155.447 66.3563 155.426 66.3078 155.425 66.2569V64.3269C155.425 64.2757 155.446 64.2267 155.482 64.1905C155.518 64.1543 155.567 64.1339 155.618 64.1339C155.67 64.1339 155.719 64.1543 155.755 64.1905C155.791 64.2267 155.811 64.2757 155.811 64.3269V66.2569C155.813 66.2854 155.808 66.3137 155.797 66.3401C155.786 66.3664 155.77 66.39 155.749 66.4092C155.728 66.4284 155.703 66.4426 155.675 66.451C155.648 66.4594 155.62 66.4617 155.591 66.4576L155.618 66.4499ZM155.618 62.5899C155.568 62.5889 155.519 62.5683 155.483 62.5323C155.447 62.4963 155.426 62.4478 155.425 62.3969V60.4669C155.425 60.4157 155.446 60.3667 155.482 60.3305C155.518 60.2943 155.567 60.2739 155.618 60.2739C155.67 60.2739 155.719 60.2943 155.755 60.3305C155.791 60.3667 155.811 60.4157 155.811 60.4669V62.3969C155.813 62.4254 155.808 62.4537 155.797 62.4801C155.786 62.5064 155.77 62.53 155.749 62.5492C155.728 62.5684 155.703 62.5826 155.675 62.591C155.648 62.5994 155.62 62.6017 155.591 62.5976L155.618 62.5899Z" fill="#263238"/>
<path d="M126.572 83.6541L122.403 86.0588L126.572 88.4675V83.6541Z" fill="#263238"/>
<path d="M176.954 36.5585L142.7 29.5085L137.653 54.0305L171.907 61.0805L176.954 36.5585Z" fill="#263238"/>
<path d="M175.18 34.2758L140.927 27.2258L135.88 51.7478L170.133 58.7978L175.18 34.2758Z" fill="white"/>
<path d="M170.286 59.0194L135.654 51.8939L135.692 51.7047L140.78 27.0007L175.412 34.1224L175.373 34.3116L170.286 59.0194ZM136.109 51.5928L169.985 58.564L174.972 34.4235L141.077 27.4524L136.109 51.5928Z" fill="#263238"/>
<path d="M155.533 43.2011C155.506 43.2009 155.48 43.1953 155.455 43.1847C155.431 43.1741 155.408 43.1587 155.39 43.1394L140.787 27.352C140.766 27.3344 140.749 27.3125 140.737 27.2877C140.725 27.2629 140.719 27.2358 140.718 27.2083C140.717 27.1808 140.722 27.1534 140.733 27.128C140.744 27.1027 140.76 27.0799 140.78 27.0613C140.801 27.0427 140.825 27.0286 140.851 27.0201C140.877 27.0115 140.905 27.0086 140.932 27.0117C140.959 27.0147 140.986 27.0236 141.01 27.0377C141.033 27.0518 141.054 27.0708 141.069 27.0934L155.579 42.7765L175.103 34.0954C175.149 34.0745 175.202 34.073 175.25 34.091C175.298 34.1091 175.337 34.1454 175.358 34.1919C175.369 34.2149 175.375 34.2398 175.376 34.2653C175.377 34.2907 175.373 34.316 175.364 34.3398C175.355 34.3636 175.341 34.3853 175.323 34.4037C175.306 34.422 175.285 34.4367 175.261 34.4467L155.61 43.1857C155.586 43.1967 155.559 43.202 155.533 43.2011Z" fill="#263238"/>
</svg>
