<svg width="22" height="20" viewBox="0 0 22 20" fill="none" xmlns="http://www.w3.org/2000/svg">
<path d="M20.223 2.12491C19.071 0.972905 17.5459 0.343269 15.9182 0.343269C14.2904 0.343269 12.7606 0.977569 11.6086 2.12957L11.007 2.73122L10.396 2.12024C9.24401 0.968241 7.70957 0.329277 6.08184 0.329277C4.45878 0.329277 2.929 0.963577 1.78166 2.11091C0.629662 3.26291 -0.00463843 4.7927 2.55386e-05 6.42042C2.55386e-05 8.04815 0.638989 9.57327 1.79099 10.7253L10.5499 19.4842C10.6712 19.6055 10.8344 19.6708 10.993 19.6708C11.1516 19.6708 11.3148 19.6101 11.4361 19.4889L20.2137 10.7439C21.3657 9.59192 22 8.06214 22 6.43441C22.0046 4.80669 21.375 3.27691 20.223 2.12491ZM19.3275 9.8531L10.993 18.155L2.67714 9.83911C1.76301 8.92497 1.2593 7.71234 1.2593 6.42042C1.2593 5.1285 1.75834 3.91587 2.67248 3.0064C3.58195 2.09692 4.79459 1.59321 6.08184 1.59321C7.37376 1.59321 8.59106 2.09692 9.5052 3.01106L10.5593 4.06512C10.8064 4.31231 11.2029 4.31231 11.4501 4.06512L12.4948 3.02039C13.4089 2.10625 14.6262 1.60254 15.9135 1.60254C17.2007 1.60254 18.4134 2.10625 19.3275 3.01572C20.2417 3.92986 20.7407 5.14249 20.7407 6.43441C20.7454 7.72633 20.2417 8.93897 19.3275 9.8531Z" fill="#464646"/>
</svg>
