<svg xmlns="http://www.w3.org/2000/svg" width="15.505" height="18" viewBox="0 0 15.505 18">
  <g id="arrow-autofit-height-svgrepo-com" transform="translate(-4 -3)">
    <path id="Path_1715" data-name="Path 1715" d="M13.22,6.781a.75.75,0,0,1-.073-.977l.073-.084,2.367-2.37A.77.77,0,0,1,16.251,3a.786.786,0,0,1,.611.276l.053.075,2.367,2.37.073.084a.751.751,0,0,1,.007.883l-.08.094-.084.073a.751.751,0,0,1-.883.007l-.094-.08L17,5.56V9.344l-.007.089a.77.77,0,0,1-1.486,0L15.5,9.344V5.56L14.28,6.781l-.084.073A.75.75,0,0,1,13.22,6.781Z" fill="#513c5b"/>
    <path id="Path_1716" data-name="Path 1716" d="M13.223,17.219a.75.75,0,0,1,.976-.073l.084.073L15.5,18.44V14.656a.708.708,0,0,1,.75-.656.724.724,0,0,1,.743.567l.007.089V18.44l1.221-1.221a.75.75,0,0,1,.977-.073l.084.073a.75.75,0,0,1,.073.977l-.073.084-2.367,2.37a.8.8,0,0,1-1.328,0l-2.367-2.37A.75.75,0,0,1,13.223,17.219Z" fill="#513c5b"/>
    <path id="Path_1717" data-name="Path 1717" d="M6.25,3.992A2.25,2.25,0,0,0,4,6.242v11.5a2.25,2.25,0,0,0,2.25,2.25h4a.75.75,0,0,0,0-1.5h-4a.75.75,0,0,1-.75-.75V6.242a.75.75,0,0,1,.75-.75h4a.75.75,0,0,0,0-1.5Z" fill="#513c5b"/>
  </g>
</svg>
