<svg xmlns="http://www.w3.org/2000/svg" width="20.959" height="21.032" viewBox="0 0 20.959 21.032">
  <path id="home" d="M4.427,10.178l7.838-6.064a1.74,1.74,0,0,1,2.13,0l7.838,6.064a1.745,1.745,0,0,1,.677,1.38v9.607a1.743,1.743,0,0,1-1.742,1.744H17.684a1.742,1.742,0,0,1-1.742-1.742V18.549a2.613,2.613,0,1,0-5.225,0v2.618a1.742,1.742,0,0,1-1.742,1.742H5.492A1.743,1.743,0,0,1,3.75,21.165V11.558A1.745,1.745,0,0,1,4.427,10.178Z" transform="translate(-2.85 -2.777)" fill="none" stroke="#373737" stroke-linecap="round" stroke-linejoin="round" stroke-width="1.8"/>
</svg>
