<svg width="32" height="26" viewBox="0 0 32 26" fill="none" xmlns="http://www.w3.org/2000/svg">
<path d="M32 13.0009C32 15.3317 31.3801 17.5156 30.2865 19.3995C29.724 20.3689 29.0424 21.2635 28.253 22.0529C27.7731 22.5327 27.2532 22.9727 26.7038 23.3717C24.5947 24.9009 22.0013 25.7999 19.201 25.7999H3.85221L7.69224 19.3986H24.3191L16.639 6.59882H10.2378L14.0804 13L15.9991 16.1976L16.0043 16.2098H9.60574L9.59791 16.1976L0 0.199341H19.2002C23.9348 0.199341 28.0748 2.77269 30.2856 6.60056C31.3801 8.4845 31.9991 10.6684 31.9991 13.0018L32 13.0009Z" fill="#101828"/>
</svg>
