<svg xmlns="http://www.w3.org/2000/svg" width="16" height="10" viewBox="0 0 16 10">
  <g id="arrow-autofit-height-svgrepo-com" transform="translate(-3.992 14) rotate(-90)">
    <path id="Path_1715" data-name="Path 1715" d="M.169,2.908a.577.577,0,0,1-.056-.751l.056-.065L1.989.269A.592.592,0,0,1,2.5,0a.6.6,0,0,1,.47.212L3.01.27l1.82,1.822.056.065a.577.577,0,0,1,.006.679l-.061.072-.065.056a.577.577,0,0,1-.679.006l-.072-.061-.939-.939v2.91l-.005.068a.557.557,0,0,1-.572.436.557.557,0,0,1-.571-.436l-.005-.068V1.969l-.938.939L.92,2.963A.577.577,0,0,1,.169,2.908Z" transform="translate(8.617 11.643) rotate(-90)" fill="#513c5b"/>
    <path id="Path_1718" data-name="Path 1718" d="M.169,2.908a.577.577,0,0,1-.056-.751l.056-.065L1.989.269A.592.592,0,0,1,2.5,0a.6.6,0,0,1,.47.212L3.01.27l1.82,1.822.056.065a.577.577,0,0,1,.006.679l-.061.072-.065.056a.577.577,0,0,1-.679.006l-.072-.061-.939-.939v2.91l-.005.068a.557.557,0,0,1-.572.436.557.557,0,0,1-.571-.436l-.005-.068V1.969l-.938.939L.92,2.963A.577.577,0,0,1,.169,2.908Z" transform="translate(8.617 16.993) rotate(-90)" fill="#513c5b"/>
    <path id="Path_1717" data-name="Path 1717" d="M6.25,3.992A2.25,2.25,0,0,0,4,6.242v11.5a2.25,2.25,0,0,0,2.25,2.25h4a.75.75,0,0,0,0-1.5h-4a.75.75,0,0,1-.75-.75V6.242a.75.75,0,0,1,.75-.75h4a.75.75,0,0,0,0-1.5Z" fill="#513c5b"/>
  </g>
</svg>
