<svg xmlns="http://www.w3.org/2000/svg" width="35" height="35" viewBox="0 0 35 35">
  <g id="search" transform="translate(-42.705 6.432)">
    <rect id="Rectangle_165" data-name="Rectangle 165" width="35" height="35" rx="8" transform="translate(42.705 -6.432)" fill="none"/>
    <g id="Group_168" data-name="Group 168" transform="translate(49.655 0.569)">
      <path id="Path_464" data-name="Path 464" d="M55.275,21.646a8.124,8.124,0,0,1,3.57-1.077,9.446,9.446,0,0,1,3.76,1.077" transform="translate(-48.717 -0.927)" fill="none" stroke="#513c5b" stroke-linecap="round" stroke-width="1.5"/>
      <path id="map-pin-3-svgrepo-com" d="M15.059,9.992a1.783,1.783,0,1,1-1.783-1.783A1.783,1.783,0,0,1,15.059,9.992Zm4.459-.223c0,3.79-3.567,8.249-6.242,10.032C10.6,18.018,7.033,13.559,7.033,9.769A6.059,6.059,0,0,1,13.276,3.75,6.059,6.059,0,0,1,19.518,9.769Z" transform="translate(-3.051 -3.188)" fill="none" stroke="#513c5b" stroke-linecap="round" stroke-linejoin="round" stroke-width="1.5"/>
    </g>
  </g>
</svg>
