<svg width="48" height="48" viewBox="0 0 48 48" fill="none" xmlns="http://www.w3.org/2000/svg">
<rect width="48" height="48" rx="24" fill="#FFFADA"/>
<path d="M24 12.25C26.5859 12.25 29.0658 13.2772 30.8943 15.1057C32.7228 16.9342 33.75 19.4141 33.75 22C33.75 26.12 30.855 30.61 25.14 35.518C24.8222 35.791 24.4171 35.9409 23.9981 35.9405C23.5792 35.9402 23.1743 35.7895 22.857 35.516L22.479 35.188C17.017 30.408 14.25 26.028 14.25 22C14.25 19.4141 15.2772 16.9342 17.1057 15.1057C18.9342 13.2772 21.4141 12.25 24 12.25ZM24 18.25C23.0054 18.25 22.0516 18.6451 21.3483 19.3483C20.6451 20.0516 20.25 21.0054 20.25 22C20.25 22.9946 20.6451 23.9484 21.3483 24.6517C22.0516 25.3549 23.0054 25.75 24 25.75C24.9946 25.75 25.9484 25.3549 26.6517 24.6517C27.3549 23.9484 27.75 22.9946 27.75 22C27.75 21.0054 27.3549 20.0516 26.6517 19.3483C25.9484 18.6451 24.9946 18.25 24 18.25Z" fill="#FFA705"/>
</svg>
