<svg xmlns="http://www.w3.org/2000/svg" width="8.874" height="10.907" viewBox="0 0 8.874 10.907">
  <g id="location" transform="translate(0.1 0.1)">
    <path id="Path_462" data-name="Path 462" d="M55.04,1.378A4.342,4.342,0,0,0,50.7,5.715,4.283,4.283,0,0,0,51.638,8.4c.78.984,3.045,3.315,3.141,3.414l.261.268.261-.268c.1-.1,2.361-2.431,3.142-3.415a4.282,4.282,0,0,0,.934-2.687A4.342,4.342,0,0,0,55.04,1.378ZM57.873,7.95c-.605.763-2.2,2.436-2.833,3.09-.63-.654-2.227-2.326-2.832-3.089a3.563,3.563,0,0,1-.778-2.236,3.61,3.61,0,0,1,7.22,0A3.562,3.562,0,0,1,57.873,7.95Z" transform="translate(-50.703 -1.378)" fill="#513c5b" stroke="#513c5b" stroke-linejoin="round" stroke-width="0.2"/>
    <path id="Path_463" data-name="Path 463" d="M100.485,47.88a1.98,1.98,0,1,0,1.98,1.98A1.982,1.982,0,0,0,100.485,47.88Zm0,3.406a1.426,1.426,0,1,1,1.426-1.426A1.428,1.428,0,0,1,100.485,51.286Z" transform="translate(-96.148 -45.57)" fill="#513c5b" stroke="#513c5b" stroke-width="0.2"/>
  </g>
</svg>
