<?xml version="1.0" encoding="UTF-8"?>
<svg version="1.1" xmlns="http://www.w3.org/2000/svg" width="626" height="626">
<path d="M0 0 C206.58 0 413.16 0 626 0 C626 206.58 626 413.16 626 626 C419.42 626 212.84 626 0 626 C0 419.42 0 212.84 0 0 Z " fill="#FDFDFD" transform="translate(0,0)"/>
<path d="M0 0 C0.99 0 1.98 0 3 0 C3 13.2 3 26.4 3 40 C4.32 40 5.64 40 7 40 C7 27.13 7 14.26 7 1 C7.99 1.495 7.99 1.495 9 2 C9 14.54 9 27.08 9 40 C10.65 40 12.3 40 14 40 C14 29.44 14 18.88 14 8 C19.70732559 15.60976745 19.33635666 22.56995799 19.3125 31.75 C19.32861328 32.97460938 19.34472656 34.19921875 19.36132812 35.4609375 C19.37036344 52.33890234 19.37036344 52.33890234 13.5546875 58.65625 C12.67039062 59.2646875 11.78609375 59.873125 10.875 60.5 C7.37266791 62.7612905 7.37266791 62.7612905 5 66 C4.91308999 68.84429357 4.88446198 71.66379176 4.90234375 74.5078125 C4.9037587 75.34843231 4.90517365 76.18905212 4.90663147 77.05514526 C4.91223763 79.74513275 4.92479114 82.43503759 4.9375 85.125 C4.94251421 86.94661338 4.94707725 88.76822807 4.95117188 90.58984375 C4.96220906 95.05992777 4.9794778 99.52994986 5 104 C5.66 104.33 6.32 104.66 7 105 C6.94199219 104.36835938 6.88398438 103.73671875 6.82421875 103.0859375 C6.12203098 89.16255716 12.61499852 75.2906491 21.625 64.8671875 C33.96855608 51.40187118 49.67052107 43.98581605 67.92138672 43.15063477 C69.61389088 43.0892882 71.30692965 43.04297133 73 43 C74.1036657 58.45131984 68.13247367 75.13247427 58.14038086 86.83666992 C47.62860081 98.46699935 35.02536109 106.33316851 19.9375 110.3125 C18.97650391 110.57611328 18.01550781 110.83972656 17.02539062 111.11132812 C14.68622269 111.75139895 12.34473615 112.3807023 10 113 C10.86882812 113.02578125 11.73765625 113.0515625 12.6328125 113.078125 C14.36144531 113.16320312 14.36144531 113.16320312 16.125 113.25 C17.26195312 113.29640625 18.39890625 113.3428125 19.5703125 113.390625 C27.40548624 114.78275154 32.47716528 121.22651233 37.8359375 126.67578125 C38.67412018 127.5191655 39.51230286 128.36254974 40.37588501 129.23149109 C43.04707354 131.92043328 45.7114741 134.61596912 48.375 137.3125 C51.03221782 139.99746755 53.69092827 142.68091233 56.35269165 145.3613739 C58.00509015 147.02588525 59.6548101 148.69306155 61.30136108 150.36335754 C65.49330074 154.59128011 69.76981221 158.63315119 74.28433228 162.51487732 C76.28640644 164.24792021 78.18850479 166.05929613 80.0625 167.9296875 C80.71347656 168.579375 81.36445313 169.2290625 82.03515625 169.8984375 C82.68355469 170.55070313 83.33195313 171.20296875 84 171.875 C84.67933594 172.55046875 85.35867188 173.2259375 86.05859375 173.921875 C86.69925781 174.56382812 87.33992187 175.20578125 88 175.8671875 C88.5775 176.44581543 89.155 177.02444336 89.75 177.62060547 C91 179 91 179 91 180 C68.19958629 182.25205723 68.19958629 182.25205723 61.69140625 177.38671875 C58.94727408 174.81645407 56.62476895 171.98517388 54.43482971 168.93426514 C49.25221239 161.94768275 42.99038991 155.87656088 36.8125 149.78515625 C35.04413457 148.02943411 33.27590968 146.2735704 31.5078125 144.51757812 C28.75162494 141.78618349 25.9938534 139.05642771 23.23339844 136.3293457 C20.54693884 133.67327267 17.86688634 131.01086189 15.1875 128.34765625 C13.96220581 127.1425515 13.96220581 127.1425515 12.7121582 125.9131012 C8.27140028 121.49163617 4.28103387 116.96224261 0.50582886 111.96098328 C-1.29359807 109.61765847 -3.24509989 107.51151803 -5.33984375 105.4296875 C-6.09330078 104.67816406 -6.84675781 103.92664063 -7.62304688 103.15234375 C-8.38681641 102.40082031 -9.15058594 101.64929688 -9.9375 100.875 C-10.69740234 100.11574219 -11.45730469 99.35648437 -12.24023438 98.57421875 C-16.36886535 94.47731936 -20.59805249 90.57091603 -25.00170898 86.7734375 C-28.66826248 83.51945526 -32.10661078 80.03715423 -35.5625 76.5625 C-36.63661133 75.49418945 -36.63661133 75.49418945 -37.73242188 74.40429688 C-41.84139812 70.28784296 -45.76912599 66.07440319 -49.5456543 61.65039062 C-51.0660715 59.86606968 -51.0660715 59.86606968 -53.25 57.9375 C-55.70232703 55.22242365 -56.68944124 52.40745277 -58 49 C-60.33294775 48.95758277 -62.66702567 48.95907063 -65 49 C-66.36222307 50.15016254 -66.36222307 50.15016254 -66.3125 53.25 C-65.81871811 59.17538269 -62.55948805 61.55287518 -58.27734375 65.2578125 C-39.26436017 81.83675641 -21.77439477 100.12339027 -4 118 C-13.94482567 129.64272273 -24.15455595 141.00285149 -34.76735687 152.04116821 C-37.40187846 154.7843124 -40.0101148 157.5447611 -42.56884766 160.35888672 C-60.53494769 180.070841 -60.53494769 180.070841 -70.66015625 181.43359375 C-76.21015714 181.65779396 -81.56993345 181.15058458 -87 180 C-81.25932489 173.01041867 -74.87818184 166.65779715 -68.515625 160.2421875 C-67.91578545 159.63702427 -67.31594589 159.03186104 -66.69792938 158.40835953 C-63.52546067 155.20930486 -60.3494211 152.0138397 -57.17089844 148.82080078 C-54.55704356 146.19359329 -51.95065621 143.55930633 -49.35058594 140.91845703 C-46.19070567 137.70904786 -43.01852898 134.51228737 -39.83733368 131.32400894 C-38.63551702 130.11552069 -37.4379247 128.90281471 -36.24488068 127.68566513 C-29.79224642 121.11009411 -23.796672 115.32850823 -15 112 C-15.98097656 111.99226563 -16.96195312 111.98453125 -17.97265625 111.9765625 C-23.47439724 111.18249679 -26.68071668 107.1689792 -30.4375 103.375 C-31.87237428 101.96479777 -33.3085662 100.55593495 -34.74609375 99.1484375 C-35.45282227 98.45097412 -36.15955078 97.75351074 -36.88769531 97.03491211 C-39.53131163 94.48815505 -42.28165731 92.08644326 -45.05981445 89.68847656 C-48.23240753 86.92747824 -51.3042265 84.06073598 -54.375 81.1875 C-55.01912842 80.58510498 -55.66325684 79.98270996 -56.3269043 79.36206055 C-73.73229455 63.01995931 -73.73229455 63.01995931 -74.30078125 58.73046875 C-74.33374369 51.57761849 -73.32698441 47.48933216 -68.3125 42.125 C-65.0413576 40.02653129 -62.9206497 39.17826105 -59.0078125 39.4609375 C-53.53291697 40.93085109 -50.19957673 45.6437234 -46.98046875 50.01953125 C-42.44023925 55.91288481 -37.16964035 61.04843293 -31.875 66.25 C-30.8888495 67.22608443 -29.90316982 68.20264477 -28.91796875 69.1796875 C-27.10686713 70.97464808 -25.29267048 72.76624279 -23.47607422 74.55566406 C-16.01183973 81.92422211 -16.01183973 81.92422211 -12.95703125 85.296875 C-12.44076172 85.86277344 -11.92449219 86.42867188 -11.39257812 87.01171875 C-10.32611298 88.18496224 -9.26104041 89.35947287 -8.19726562 90.53515625 C-5.43243552 93.68298014 -5.43243552 93.68298014 -2 96 C-1.94498879 91.40885583 -1.94261103 86.82172236 -1.98779297 82.23046875 C-1.99587527 80.67090712 -1.98988668 79.11120369 -1.96923828 77.55175781 C-1.52921566 68.63357415 -1.52921566 68.63357415 -4.76416016 60.72509766 C-6.84444535 59.12352496 -6.84444535 59.12352496 -9.05322266 58.04882812 C-13.44001943 55.68543724 -14.7027243 50.98304887 -16.08203125 46.421875 C-17.2624134 41.49264453 -17.33079157 36.67347458 -17.3125 31.625 C-17.32861328 30.74328125 -17.34472656 29.8615625 -17.36132812 28.953125 C-17.36593486 22.66953654 -16.57686925 16.78672434 -14 11 C-13.01 10.01 -12.02 9.02 -11 8 C-11 18.56 -11 29.12 -11 40 C-9.68 40 -8.36 40 -7 40 C-7 27.46 -7 14.92 -7 2 C-6.01 1.67 -5.02 1.34 -4 1 C-4 13.87 -4 26.74 -4 40 C-2.68 40 -1.36 40 0 40 C0 26.8 0 13.6 0 0 Z " fill="#2A2B45" transform="translate(312,206)"/>
<path d="M0 0 C19.79117202 15.14088464 35.14624143 36.46032186 39.69067383 61.30810547 C39.89176758 62.09958984 40.09286133 62.89107422 40.30004883 63.70654297 C43.98545797 79.49403891 42.84065905 98.09518732 37.62817383 113.37060547 C37.16399048 114.7382605 37.16399048 114.7382605 36.69042969 116.13354492 C32.2529202 128.8224474 26.77838557 140.25256883 17.69067383 150.30810547 C17.25335938 150.79746582 16.81604492 151.28682617 16.36547852 151.79101562 C13.50441658 154.99201559 10.6107239 158.16067445 7.69067383 161.30810547 C3.95046884 159.62658474 2.12933034 157.61771074 -0.30932617 154.30810547 C1.23344457 150.64086354 3.48207827 148.31874038 6.25317383 145.49560547 C21.01826681 129.73701881 29.15683972 108.77426292 28.94067383 87.24560547 C28.93245605 86.24335938 28.92423828 85.24111328 28.91577148 84.20849609 C28.51918668 57.47953287 20.63516371 36.84888359 1.81567383 17.12060547 C-9.64974386 6.07573399 -24.99673251 -1.58258267 -40.30932617 -5.69189453 C-41.55456055 -6.02833984 -41.55456055 -6.02833984 -42.82495117 -6.37158203 C-66.10436995 -11.58445802 -90.42992567 -5.87287446 -110.47338867 6.40576172 C-129.80710367 19.37479644 -142.68272084 37.13960477 -149.30932617 59.30810547 C-149.60081543 60.27997803 -149.60081543 60.27997803 -149.89819336 61.27148438 C-151.76075401 68.40798013 -151.69481271 75.59709077 -151.68432617 82.93310547 C-151.68345001 83.60206848 -151.68257385 84.27103149 -151.68167114 84.96026611 C-151.63821755 95.0003023 -151.08204778 103.88746334 -147.30932617 113.30810547 C-147.06794922 113.948125 -146.82657227 114.58814453 -146.57788086 115.24755859 C-140.9454597 130.08314339 -132.2545905 141.90583637 -121.30932617 153.30810547 C-122.21105085 154.48635905 -123.1313412 155.65042124 -124.05932617 156.80810547 C-124.8250293 157.78263672 -124.8250293 157.78263672 -125.60620117 158.77685547 C-127.30932617 160.30810547 -127.30932617 160.30810547 -131.30932617 160.30810547 C-144.65605358 149.2759645 -155.24128624 130.66438765 -159.93432617 114.12060547 C-160.2517981 113.00443848 -160.2517981 113.00443848 -160.57568359 111.86572266 C-168.01661233 84.94766409 -165.17944141 57.31949248 -151.43432617 32.93310547 C-147.92773085 26.9346285 -143.831478 21.57007763 -139.30932617 16.30810547 C-138.79241211 15.64681641 -138.27549805 14.98552734 -137.74291992 14.30419922 C-104.77298666 -26.59834957 -40.87669341 -29.89939483 0 0 Z " fill="#2A2C45" transform="translate(374.309326171875,195.69189453125)"/>
<path d="M0 0 C0.66 0 1.32 0 2 0 C2 0.66 2 1.32 2 2 C2.66 2 3.32 2 4 2 C5.62109375 3.6796875 5.62109375 3.6796875 7.4375 5.875 C9.58400884 8.46193722 11.16776562 10.11184374 14 12 C14 12.66 14 13.32 14 14 C14.66 14 15.32 14 16 14 C19.79132557 18.01434472 20.26303703 20.86033656 20.25 26.375 C20.1861054 28.25076302 20.10914609 30.12632538 20 32 C20.66 32 21.32 32 22 32 C23.92908943 26.76390013 24.98408579 21.46864457 26 16 C28 17 30 18 32 19 C32 19.99 32 20.98 32 22 C33.32 22.66 34.64 23.32 36 24 C36 25.32 36 26.64 36 28 C36.66 28 37.32 28 38 28 C39.38226016 30.76452033 39.09525387 33.0461363 39.0625 36.125 C39.05347656 37.22070312 39.04445313 38.31640625 39.03515625 39.4453125 C39.02355469 40.28835937 39.01195312 41.13140625 39 42 C20.19454499 38.63932933 20.19454499 38.63932933 16.23510742 37.48583984 C1.35392265 34.25115304 -15.65714279 36.50205108 -30 41 C-31.9940374 41.36732268 -33.99297308 41.71198254 -36 42 C-36.054138 39.75026553 -36.09285491 37.50015617 -36.125 35.25 C-36.14820313 33.99703125 -36.17140625 32.7440625 -36.1953125 31.453125 C-36.01537302 28.27179508 -35.68998582 26.63478104 -34 24 C-33.34 24 -32.68 24 -32 24 C-31.62875 23.071875 -31.62875 23.071875 -31.25 22.125 C-29.79371361 19.64931313 -28.62187494 19.04874998 -26 18 C-26 17.34 -26 16.68 -26 16 C-25.34 16 -24.68 16 -24 16 C-23.87882812 16.65226562 -23.75765625 17.30453125 -23.6328125 17.9765625 C-22.71056011 22.78646342 -21.69832723 27.39025465 -20 32 C-19.34 32 -18.68 32 -18 32 C-18.02320313 31.32453125 -18.04640625 30.6490625 -18.0703125 29.953125 C-18.09738281 28.61507812 -18.09738281 28.61507812 -18.125 27.25 C-18.14820313 26.36828125 -18.17140625 25.4865625 -18.1953125 24.578125 C-17.99139502 21.8864142 -17.36551721 20.30095026 -16 18 C-15.34 18 -14.68 18 -14 18 C-13.690625 16.9171875 -13.690625 16.9171875 -13.375 15.8125 C-11.52471012 12.02781616 -9.39759562 10.47741347 -6 8 C-5.34 8 -4.68 8 -4 8 C-4 7.34 -4 6.68 -4 6 C-3.34 6 -2.68 6 -2 6 C-1.34 4.02 -0.68 2.04 0 0 Z " fill="#F6A525" transform="translate(312,136)"/>
<path d="M0 0 C0.66 0 1.32 0 2 0 C0.43358249 4.30764815 -1.68336156 8.06171464 -4 12 C-4.66 12 -5.32 12 -6 12 C-6 13.32 -6 14.64 -6 16 C-6.66 16 -7.32 16 -8 16 C-8.66 18.64 -9.32 21.28 -10 24 C-10.66 24 -11.32 24 -12 24 C-12.0825 24.78375 -12.165 25.5675 -12.25 26.375 C-12.87903936 29.41535691 -13.61772187 31.47631008 -14.875 34.25 C-22.1925948 52.25021496 -21.71738401 74.34633716 -18.4453125 93.1953125 C-17.86404323 96.85628915 -17.8521333 100.30333253 -18 104 C-17.34 104 -16.68 104 -16 104 C-15.32586789 105.91405367 -14.6609668 107.83136026 -14 109.75 C-13.62875 110.81734375 -13.2575 111.8846875 -12.875 112.984375 C-12 116 -12 116 -12 120 C-11.34 120 -10.68 120 -10 120 C-9.3291288 121.6232687 -8.66342971 123.24867578 -8 124.875 C-7.62875 125.77992188 -7.2575 126.68484375 -6.875 127.6171875 C-6 130 -6 130 -6 132 C-5.34 132 -4.68 132 -4 132 C-3.34 133.98 -2.68 135.96 -2 138 C-1.34 138 -0.68 138 0 138 C0 139.32 0 140.64 0 142 C0.66 142 1.32 142 2 142 C2 142.66 2 143.32 2 144 C2.66 144 3.32 144 4 144 C4.66 145.98 5.32 147.96 6 150 C6.66 150 7.32 150 8 150 C8 150.66 8 151.32 8 152 C8.66 152 9.32 152 10 152 C10 152.66 10 153.32 10 154 C10.66 154 11.32 154 12 154 C12 154.66 12 155.32 12 156 C12.66 156 13.32 156 14 156 C14 156.66 14 157.32 14 158 C15.32 158.66 16.64 159.32 18 160 C18 160.66 18 161.32 18 162 C17.34 162 16.68 162 16 162 C16 162.66 16 163.32 16 164 C15.34 164 14.68 164 14 164 C14 164.66 14 165.32 14 166 C13.34 166 12.68 166 12 166 C12 166.66 12 167.32 12 168 C11.34 168 10.68 168 10 168 C10 167.34 10 166.68 10 166 C9.34 166 8.68 166 8 166 C8 165.34 8 164.68 8 164 C7.34 164 6.68 164 6 164 C6 163.34 6 162.68 6 162 C5.34 162 4.68 162 4 162 C4 161.34 4 160.68 4 160 C3.34 160 2.68 160 2 160 C-2 154.58823529 -2 154.58823529 -2 152 C-2.66 152 -3.32 152 -4 152 C-4 151.34 -4 150.68 -4 150 C-4.66 150 -5.32 150 -6 150 C-6.66 148.02 -7.32 146.04 -8 144 C-8.66 144 -9.32 144 -10 144 C-10 142.68 -10 141.36 -10 140 C-10.66 140 -11.32 140 -12 140 C-16.76349384 130.88923993 -21.36166439 121.9879848 -24 112 C-24.18046875 111.35804688 -24.3609375 110.71609375 -24.546875 110.0546875 C-30.14574383 89.55072192 -31.17228955 64.18133888 -24 44 C-23.68804687 42.948125 -23.37609375 41.89625 -23.0546875 40.8125 C-20.82406721 33.46457435 -17.60047354 26.76889025 -14 20 C-13.34 20 -12.68 20 -12 20 C-12 18.68 -12 17.36 -12 16 C-11.34 16 -10.68 16 -10 16 C-10 15.34 -10 14.68 -10 14 C-9.34 14 -8.68 14 -8 14 C-8 12.68 -8 11.36 -8 10 C-7.34 10 -6.68 10 -6 10 C-6 9.34 -6 8.68 -6 8 C-5.34 8 -4.68 8 -4 8 C-3.34 6.02 -2.68 4.04 -2 2 C-1.34 2 -0.68 2 0 2 C0 1.34 0 0.68 0 0 Z " fill="#F7A627" transform="translate(222,202)"/>
<path d="M0 0 C0.66 0 1.32 0 2 0 C2 0.66 2 1.32 2 2 C2.66 2 3.32 2 4 2 C4 3.32 4 4.64 4 6 C4.66 6 5.32 6 6 6 C6 7.32 6 8.64 6 10 C6.66 10 7.32 10 8 10 C10.04973345 13.97648289 12.04186572 17.97762565 14 22 C14.56847656 23.14855469 14.56847656 23.14855469 15.1484375 24.3203125 C21.4303895 38.34162936 22.37759965 53.48594561 22.375 68.625 C22.37681274 69.31313782 22.37862549 70.00127563 22.38049316 70.71026611 C22.37695613 82.56747484 20.52761616 92.83529407 17.125 104.125 C16.88136719 104.96675781 16.63773437 105.80851562 16.38671875 106.67578125 C14.7559466 112.12577109 12.67826291 116.97970632 10 122 C9.34 122 8.68 122 8 122 C8 123.32 8 124.64 8 126 C7.34 126 6.68 126 6 126 C6 127.32 6 128.64 6 130 C5.34 130 4.68 130 4 130 C4 130.66 4 131.32 4 132 C3.34 132 2.68 132 2 132 C2 133.32 2 134.64 2 136 C1.34 136 0.68 136 0 136 C0 136.66 0 137.32 0 138 C-0.66 138 -1.32 138 -2 138 C-2.144375 138.61875 -2.28875 139.2375 -2.4375 139.875 C-3 142 -3 142 -4 144 C-4.66 144 -5.32 144 -6 144 C-6 144.66 -6 145.32 -6 146 C-6.66 146 -7.32 146 -8 146 C-8 146.66 -8 147.32 -8 148 C-8.66 148 -9.32 148 -10 148 C-10 148.66 -10 149.32 -10 150 C-10.66 150 -11.32 150 -12 150 C-12 150.66 -12 151.32 -12 152 C-12.66 152 -13.32 152 -14 152 C-14 152.66 -14 153.32 -14 154 C-15.32 154 -16.64 154 -18 154 C-18 153.34 -18 152.68 -18 152 C-18.66 152 -19.32 152 -20 152 C-20 151.34 -20 150.68 -20 150 C-20.66 150 -21.32 150 -22 150 C-22 148.68 -22 147.36 -22 146 C-21.34 146 -20.68 146 -20 146 C-20 145.34 -20 144.68 -20 144 C-19.34 144 -18.68 144 -18 144 C-18 143.34 -18 142.68 -18 142 C-17.34 142 -16.68 142 -16 142 C-16 141.34 -16 140.68 -16 140 C-15.34 140 -14.68 140 -14 140 C-14 139.34 -14 138.68 -14 138 C-13.34 138 -12.68 138 -12 138 C-12 137.34 -12 136.68 -12 136 C-11.34 136 -10.68 136 -10 136 C-10 135.34 -10 134.68 -10 134 C-9.34 134 -8.68 134 -8 134 C-8 132.68 -8 131.36 -8 130 C-7.34 130 -6.68 130 -6 130 C-6 129.34 -6 128.68 -6 128 C-5.34 128 -4.68 128 -4 128 C-4 126.68 -4 125.36 -4 124 C-3.34 124 -2.68 124 -2 124 C-2 123.34 -2 122.68 -2 122 C-1.34 122 -0.68 122 0 122 C0 120.68 0 119.36 0 118 C0.66 118 1.32 118 2 118 C2 116.68 2 115.36 2 114 C2.66 114 3.32 114 4 114 C4.10570312 113.15953125 4.21140625 112.3190625 4.3203125 111.453125 C4.9344092 108.3332314 5.85516011 105.6309618 7.06982422 102.70166016 C16.48924554 79.86998822 17.49774927 51.2708684 10.125 27.75 C9.86847656 26.89148438 9.61195313 26.03296875 9.34765625 25.1484375 C8.21686247 21.45488998 7.05003267 18.09914308 5.3046875 14.640625 C4 12 4 12 4 8 C3.34 8 2.68 8 2 8 C2 6.68 2 5.36 2 4 C1.34 4 0.68 4 0 4 C0 2.68 0 1.36 0 0 Z " fill="#F5A627" transform="translate(410,214)"/>
<path d="M0 0 C5.754375 -0.0928125 5.754375 -0.0928125 11.625 -0.1875 C13.42251709 -0.22846802 13.42251709 -0.22846802 15.25634766 -0.27026367 C21.0043134 -0.31514703 25.15795456 -0.23652511 30 3 C30 3.66 30 4.32 30 5 C30.66 5 31.32 5 32 5 C34.61114128 9.55114585 34.81555852 13.86440379 34 19 C32.60223057 21.63965379 31.26294726 22.95257153 29 25 C28.34 25 27.68 25 27 25 C27.33 26.32 27.66 27.64 28 29 C28.66 29 29.32 29 30 29 C30.66 30.98 31.32 32.96 32 35 C32.66 35 33.32 35 34 35 C34 35.66 34 36.32 34 37 C32.23050905 37.10815225 30.45912513 37.18566083 28.6875 37.25 C27.70136719 37.29640625 26.71523438 37.3428125 25.69921875 37.390625 C23 37 23 37 21.14453125 35.109375 C20 33 20 33 20 31 C19.34 31 18.68 31 18 31 C17.67 30.34 17.34 29.68 17 29 C13.97065509 28.34227572 13.97065509 28.34227572 11 28 C11 31.3 11 34.6 11 38 C7.37 38 3.74 38 0 38 C0 25.46 0 12.92 0 0 Z " fill="#F5A830" transform="translate(348,419)"/>
<path d="M0 0 C3.465 -0.061875 6.93 -0.12375 10.5 -0.1875 C12.11358398 -0.22846802 12.11358398 -0.22846802 13.75976562 -0.27026367 C19.90458146 -0.32298211 24.39498889 0.4577271 30 3 C30 3.66 30 4.32 30 5 C30.66 5 31.32 5 32 5 C33.90608098 8.21182149 34.22266247 10.53882603 34.125 14.25 C34.10695312 15.14203125 34.08890625 16.0340625 34.0703125 16.953125 C34.04710937 17.62859375 34.02390625 18.3040625 34 19 C33.34 19 32.68 19 32 19 C31.87625 19.928125 31.87625 19.928125 31.75 20.875 C31 23 31 23 28.9375 24.25 C28.298125 24.4975 27.65875 24.745 27 25 C27.33 26.32 27.66 27.64 28 29 C28.66 29 29.32 29 30 29 C32 32 32 32 32 35 C32.66 35 33.32 35 34 35 C34 35.66 34 36.32 34 37 C30.04 37 26.08 37 22 37 C21.34 35.02 20.68 33.04 20 31 C19.34 31 18.68 31 18 31 C18 29.68 18 28.36 18 27 C15.36 27 12.72 27 10 27 C10 30.3 10 33.6 10 37 C6.7 37 3.4 37 0 37 C0 24.79 0 12.58 0 0 Z " fill="#F6A526" transform="translate(122,419)"/>
<path d="M0 0 C10 0 10 0 12.625 2.375 C14 5 14 5 14 7 C14.66 7 15.32 7 16 7 C16 7.66 16 8.32 16 9 C16.66 9 17.32 9 18 9 C20 12 20 12 20 15 C20.66 15 21.32 15 22 15 C22 15.66 22 16.32 22 17 C22.66 17 23.32 17 24 17 C24 17.66 24 18.32 24 19 C24.66 19 25.32 19 26 19 C26 12.73 26 6.46 26 0 C29.3 0 32.6 0 36 0 C36 12.21 36 24.42 36 37 C26 37 26 37 23.375 35.25 C22 33 22 33 22 29 C21.34 29 20.68 29 20 29 C20 28.34 20 27.68 20 27 C19.34 27 18.68 27 18 27 C18 26.34 18 25.68 18 25 C17.34 25 16.68 25 16 25 C14.35 23.35 12.7 21.7 11 20 C11 25.94 11 31.88 11 38 C7.37 38 3.74 38 0 38 C0 25.46 0 12.92 0 0 Z " fill="#F6A522" transform="translate(430,419)"/>
<path d="M0 0 C0.98226563 0.27263672 0.98226563 0.27263672 1.984375 0.55078125 C7.06248929 1.94941442 12.14768344 3.31720927 17.25 4.625 C18.18328125 4.86476563 19.1165625 5.10453125 20.078125 5.3515625 C37.17548331 9.14589603 55.72575257 7.6726095 71.765625 0.57421875 C74 0 74 0 76.09375 0.73046875 C78.93549492 2.62302428 81.4156241 4.76803899 84 7 C82.38765377 10.22469245 79.03517629 10.74513981 75.8125 11.9375 C74.85053711 12.31551758 74.85053711 12.31551758 73.86914062 12.70117188 C62.49851255 16.96379467 51.05651588 18.50361103 38.98608398 18.39111328 C36.9347113 18.37497807 34.88529946 18.39109698 32.83398438 18.41015625 C18.91082267 18.43225816 4.77788103 15.85192069 -7 8 C-6.02133662 6.85373678 -5.04205413 5.70800212 -4.0625 4.5625 C-3.51722656 3.92441406 -2.97195313 3.28632813 -2.41015625 2.62890625 C-1.63204305 1.73008851 -0.84063472 0.84063472 0 0 Z " fill="#292A43" transform="translate(275,365)"/>
<path d="M0 0 C3.63 0 7.26 0 11 0 C11.33 1.65 11.66 3.3 12 5 C12.66 5 13.32 5 14 5 C14.81756238 7.06049855 15.62884734 9.12348853 16.4375 11.1875 C17.11619141 12.91033203 17.11619141 12.91033203 17.80859375 14.66796875 C18.81093301 17.47123233 19.52012795 20.07112576 20 23 C20.66 23 21.32 23 22 23 C22.67528223 24.57967807 23.33989694 26.16391903 24 27.75 C24.37125 28.63171875 24.7425 29.5134375 25.125 30.421875 C26 33 26 33 26 37 C22.7 37 19.4 37 16 37 C14 33 14 33 14 30 C5.585 30.495 5.585 30.495 -3 31 C-3.66 32.98 -4.32 34.96 -5 37 C-8.63 37 -12.26 37 -16 37 C-14.27933894 31.55123997 -12.15294651 26.28830549 -10 21 C-9.34 21 -8.68 21 -8 21 C-7.896875 20.175 -7.79375 19.35 -7.6875 18.5 C-6.88353944 14.40710988 -5.53647842 10.87459775 -4 7 C-3.34 7 -2.68 7 -2 7 C-1.855625 6.21625 -1.71125 5.4325 -1.5625 4.625 C-1 2 -1 2 0 0 Z " fill="#F6A526" transform="translate(400,419)"/>
<path d="M0 0 C3.3 0 6.6 0 10 0 C10.33 1.65 10.66 3.3 11 5 C11.66 5 12.32 5 13 5 C13.44730469 6.12277344 13.89460938 7.24554688 14.35546875 8.40234375 C17.24626584 15.5812367 20.10868352 22.52557649 24.06640625 29.1953125 C25.37324036 31.72149392 25.78342348 34.18450525 26 37 C22.37 37 18.74 37 15 37 C13 33 13 33 13 30 C7.72 30.33 2.44 30.66 -3 31 C-3.66 32.98 -4.32 34.96 -5 37 C-8.63 37 -12.26 37 -16 37 C-14.9094015 31.91054035 -13.49525142 27.70933447 -11.0625 23.12109375 C-9.92615917 20.85258982 -9.02431281 18.55943753 -8.125 16.1875 C-5.91861582 10.51267989 -3.01210854 5.2812303 0 0 Z " fill="#F6A627" transform="translate(277,419)"/>
<path d="M0 0 C3.3 0 6.6 0 10 0 C10.01981934 0.74161377 10.03963867 1.48322754 10.06005859 2.24731445 C10.15522928 5.60273834 10.26494094 8.95753286 10.375 12.3125 C10.4059375 13.47974609 10.436875 14.64699219 10.46875 15.84960938 C10.50742187 16.96787109 10.54609375 18.08613281 10.5859375 19.23828125 C10.6173584 20.26993408 10.6487793 21.30158691 10.68115234 22.36450195 C10.82674629 25.22843236 10.82674629 25.22843236 13 28 C15.19454681 28.57993699 15.19454681 28.57993699 17.625 28.6875 C18.44226563 28.75324219 19.25953125 28.81898438 20.1015625 28.88671875 C20.72804688 28.92410156 21.35453125 28.96148437 22 29 C22 28.34 22 27.68 22 27 C22.66 27 23.32 27 24 27 C24.33 18.09 24.66 9.18 25 0 C28.3 0 31.6 0 35 0 C35.08783475 3.9998593 35.14067102 7.99946704 35.1875 12 C35.21263672 13.12535156 35.23777344 14.25070312 35.26367188 15.41015625 C35.32174801 22.03083534 34.8105193 26.98062008 32 33 C31.34 33 30.68 33 30 33 C30 33.66 30 34.32 30 35 C24.15697436 39.00664616 17.87455431 38.47727213 11 38 C10.01 37.67 9.02 37.34 8 37 C8 36.34 8 35.68 8 35 C7.4225 34.979375 6.845 34.95875 6.25 34.9375 C3.38626293 33.74427622 2.29501155 32.08046229 0.82910156 29.40014648 C-0.97638063 24.17349884 -0.39882671 18.52043324 -0.25 13.0625 C-0.23195313 11.80630859 -0.21390625 10.55011719 -0.1953125 9.25585938 C-0.14837594 6.16978084 -0.08272414 3.08529219 0 0 Z " fill="#F3A52D" transform="translate(306,419)"/>
<path d="M0 0 C9.57 0 19.14 0 29 0 C29 2.64 29 5.28 29 8 C22.73 8 16.46 8 10 8 C10 10.31 10 12.62 10 15 C15.61 15 21.22 15 27 15 C27 17.31 27 19.62 27 22 C21.39 22 15.78 22 10 22 C10 24.31 10 26.62 10 29 C16.6 29 23.2 29 30 29 C30 31.64 30 34.28 30 37 C20.1 37 10.2 37 0 37 C0 24.79 0 12.58 0 0 Z " fill="#F3A32A" transform="translate(162,419)"/>
<path d="M0 0 C-0.875 5.75 -0.875 5.75 -2 8 C-3.98 8 -5.96 8 -8 8 C-8 7.34 -8 6.68 -8 6 C-11.3 6 -14.6 6 -18 6 C-18 7.65 -18 9.3 -18 11 C-14.68983906 12.84790538 -11.42826509 13.74541487 -7.75 14.625 C-6.67234375 14.88539063 -5.5946875 15.14578125 -4.484375 15.4140625 C-3.66453125 15.60742188 -2.8446875 15.80078125 -2 16 C-2 16.66 -2 17.32 -2 18 C-1.34 18 -0.68 18 0 18 C2.09972674 21.41205596 2.33083127 24.0300247 2 28 C1 30.375 1 30.375 0 32 C-0.66 32 -1.32 32 -2 32 C-2 32.66 -2 33.32 -2 34 C-7.84874958 38.01057114 -14.12123119 37.63874282 -21 37 C-24.18496411 36.23875858 -26.95482291 35.2387161 -30 34 C-30 32.68 -30 31.36 -30 30 C-29.34 30 -28.68 30 -28 30 C-28 28.68 -28 27.36 -28 26 C-22.25 26.875 -22.25 26.875 -20 28 C-18.29297265 28.06996014 -16.58331997 28.08440154 -14.875 28.0625 C-13.96492188 28.05347656 -13.05484375 28.04445313 -12.1171875 28.03515625 C-11.41851562 28.02355469 -10.71984375 28.01195312 -10 28 C-10 26.68 -10 25.36 -10 24 C-14.62 22.68 -19.24 21.36 -24 20 C-24 19.34 -24 18.68 -24 18 C-25.32 18 -26.64 18 -28 18 C-30.50600326 14.24099511 -30.59001354 10.36252436 -30 6 C-28.6875 3.5 -28.6875 3.5 -27 2 C-26.01 2 -25.02 2 -24 2 C-24 1.34 -24 0.68 -24 0 C-15.96311155 -3.38395303 -8.14601745 -2.4136348 0 0 Z " fill="#F6A527" transform="translate(226,420)"/>
<path d="M0 0 C10.89 0 21.78 0 33 0 C33 2.64 33 5.28 33 8 C29.37 8 25.74 8 22 8 C22 17.57 22 27.14 22 37 C18.37 37 14.74 37 11 37 C11 27.43 11 17.86 11 8 C7.37 8 3.74 8 0 8 C0 5.36 0 2.72 0 0 Z " fill="#F2A532" transform="translate(229,419)"/>
<path d="M0 0 C11.22 0 22.44 0 34 0 C34 2.64 34 5.28 34 8 C30.04 8 26.08 8 22 8 C22 17.57 22 27.14 22 37 C18.7 37 15.4 37 12 37 C12 27.43 12 17.86 12 8 C8.04 8 4.08 8 0 8 C0 5.36 0 2.72 0 0 Z " fill="#F4A429" transform="translate(470,419)"/>
<path d="M0 0 C10 0 10 0 12.625 2.375 C14 5 14 5 14 7 C14.66 7 15.32 7 16 7 C16 7.66 16 8.32 16 9 C16.66 9 17.32 9 18 9 C20 12 20 12 20 15 C19.34 15 18.68 15 18 15 C18 15.66 18 16.32 18 17 C17.34 17 16.68 17 16 17 C16 16.34 16 15.68 16 15 C14.68 15 13.36 15 12 15 C12 16.32 12 17.64 12 19 C12.66 19 13.32 19 14 19 C13.67 19.66 13.34 20.32 13 21 C12.34 20.67 11.68 20.34 11 20 C11 25.94 11 31.88 11 38 C7.37 38 3.74 38 0 38 C0 25.46 0 12.92 0 0 Z " fill="#F3AA39" transform="translate(430,419)"/>
<path d="M0 0 C3.3 0 6.6 0 10 0 C10.02505615 0.7520874 10.0501123 1.5041748 10.07592773 2.27905273 C10.19150514 5.66539196 10.31440345 9.05142613 10.4375 12.4375 C10.47681641 13.62150391 10.51613281 14.80550781 10.55664062 16.02539062 C10.61948242 17.71245117 10.61948242 17.71245117 10.68359375 19.43359375 C10.72025146 20.47572021 10.75690918 21.51784668 10.79467773 22.59155273 C10.73515341 24.9499826 10.73515341 24.9499826 12 26 C12.04092937 28.33297433 12.04241723 30.66705225 12 33 C11.34 33 10.68 33 10 33 C10 34.32 10 35.64 10 37 C9.34 37 8.68 37 8 37 C8 36.34 8 35.68 8 35 C7.4225 34.979375 6.845 34.95875 6.25 34.9375 C3.38626293 33.74427622 2.29501155 32.08046229 0.82910156 29.40014648 C-0.97638063 24.17349884 -0.39882671 18.52043324 -0.25 13.0625 C-0.23195313 11.80630859 -0.21390625 10.55011719 -0.1953125 9.25585938 C-0.14837594 6.16978084 -0.08272414 3.08529219 0 0 Z " fill="#F8A31D" transform="translate(306,419)"/>
<path d="M0 0 C1.18980469 -0.00773438 2.37960937 -0.01546875 3.60546875 -0.0234375 C14.94948888 0.00135817 25.36659578 1.67973311 36.125 5.25 C35.465 5.58 34.805 5.91 34.125 6.25 C34.125 7.24 34.125 8.23 34.125 9.25 C35.115 8.92 36.105 8.59 37.125 8.25 C37.62 9.735 37.62 9.735 38.125 11.25 C37.13242187 10.98445312 36.13984375 10.71890625 35.1171875 10.4453125 C16.20130506 5.47992269 -2.88323784 2.6490219 -22.08984375 7.59375 C-24.875 8.25 -24.875 8.25 -28.875 8.25 C-28.875 7.59 -28.875 6.93 -28.875 6.25 C-29.865 5.92 -30.855 5.59 -31.875 5.25 C-21.24202434 0.91804695 -11.45457886 -0.07398006 0 0 Z " fill="#F6F4F2" transform="translate(311.875,171.75)"/>
<path d="M0 0 C0.66 0 1.32 0 2 0 C0.43358249 4.30764815 -1.68336156 8.06171464 -4 12 C-4.66 12 -5.32 12 -6 12 C-6 13.32 -6 14.64 -6 16 C-6.66 16 -7.32 16 -8 16 C-8.66 18.64 -9.32 21.28 -10 24 C-10.66 24 -11.32 24 -12 24 C-12.0825 24.78375 -12.165 25.5675 -12.25 26.375 C-12.87903936 29.41535691 -13.61772187 31.47631008 -14.875 34.25 C-21.50608471 50.65830451 -20.36145632 68.65380375 -20 86 C-20.66 86 -21.32 86 -22 86 C-22.33 77.09 -22.66 68.18 -23 59 C-23.33 59 -23.66 59 -24 59 C-24 57.35 -24 55.7 -24 54 C-24.66 54 -25.32 54 -26 54 C-25.32719827 49.32656001 -24.2100497 44.87682222 -22.8125 40.375 C-22.59762939 39.68148437 -22.38275879 38.98796875 -22.16137695 38.2734375 C-20.08234398 31.82213518 -17.27395303 25.94036838 -14 20 C-13.34 20 -12.68 20 -12 20 C-12 18.68 -12 17.36 -12 16 C-11.34 16 -10.68 16 -10 16 C-10 15.34 -10 14.68 -10 14 C-9.34 14 -8.68 14 -8 14 C-8 12.68 -8 11.36 -8 10 C-7.34 10 -6.68 10 -6 10 C-6 9.34 -6 8.68 -6 8 C-5.34 8 -4.68 8 -4 8 C-3.34 6.02 -2.68 4.04 -2 2 C-1.34 2 -0.68 2 0 2 C0 1.34 0 0.68 0 0 Z " fill="#F6AA2C" transform="translate(222,202)"/>
<path d="M0 0 C0 5.28 0 10.56 0 16 C-3.97966457 17.98983228 -4.67675132 18.22400716 -8.75 17.625 C-9.54921875 17.51414062 -10.3484375 17.40328125 -11.171875 17.2890625 C-12.07679688 17.14597656 -12.07679688 17.14597656 -13 17 C-13 16.34 -13 15.68 -13 15 C-10.03 15 -7.06 15 -4 15 C-4 14.01 -4 13.02 -4 12 C-5.093125 12.061875 -6.18625 12.12375 -7.3125 12.1875 C-11 12 -11 12 -12.9375 10.875 C-14.50422245 8.11019567 -14.38976435 6.11811483 -14 3 C-10.66759884 -1.78127122 -5.2307404 -0.18461437 0 0 Z " fill="#1D1B1C" transform="translate(245,472)"/>
<path d="M0 0 C0.90105469 0.02707031 1.80210937 0.05414063 2.73046875 0.08203125 C3.76107422 0.13423828 3.76107422 0.13423828 4.8125 0.1875 C4.9204859 2.62618168 4.99976589 5.06009133 5.0625 7.5 C5.11277344 8.53543945 5.11277344 8.53543945 5.1640625 9.59179688 C5.22692245 12.84479931 5.25025118 14.68721294 3.0625 17.1875 C-0.63968819 18.83291697 -3.26149223 17.90726809 -7.1875 17.1875 C-6.8575 16.5275 -6.5275 15.8675 -6.1875 15.1875 C-3.8775 15.1875 -1.5675 15.1875 0.8125 15.1875 C1.4725 13.8675 2.1325 12.5475 2.8125 11.1875 C1.8225 11.6825 1.8225 11.6825 0.8125 12.1875 C-4.44215839 12.63470497 -4.44215839 12.63470497 -7.0625 11.0625 C-8.71604531 8.30659116 -8.58115568 6.33674548 -8.1875 3.1875 C-5.83934143 -0.09380302 -3.89660245 -0.15181568 0 0 Z " fill="#232423" transform="translate(310.1875,471.8125)"/>
<path d="M0 0 C0.99 0.99 1.98 1.98 3 3 C3 3.66 3 4.32 3 5 C3.99 5.33 4.98 5.66 6 6 C5.67 16.56 5.34 27.12 5 38 C3.35 38 1.7 38 0 38 C0 25.46 0 12.92 0 0 Z " fill="#DADCDE" transform="translate(321,208)"/>
<path d="M0 0 C2.375 1.0625 2.375 1.0625 4 3 C4.5 6.5 4.5 6.5 4 10 C1.77728061 12.65016543 0.3541854 12.94940209 -3.0625 13.4375 C-6 13 -6 13 -7.875 11.375 C-9.31414524 8.33680449 -9.42454541 6.32560568 -9 3 C-6.78557651 -0.69070582 -4.02540619 -0.49290688 0 0 Z " fill="#EBEDEC" transform="translate(328,472)"/>
<path d="M0 0 C0.66 0 1.32 0 2 0 C2 11.22 2 22.44 2 34 C10.58 34 19.16 34 28 34 C28 32.35 28 30.7 28 29 C28.66 29 29.32 29 30 29 C30 31.31 30 33.62 30 36 C20.1 36 10.2 36 0 36 C0 24.12 0 12.24 0 0 Z " fill="#FAA408" transform="translate(162,420)"/>
<path d="M0 0 C0.79148438 -0.02578125 1.58296875 -0.0515625 2.3984375 -0.078125 C4.625 0.25 4.625 0.25 6.390625 1.57421875 C8.28848553 4.15074459 8.02010285 6.15502764 7.625 9.25 C4.31129 11.45914 3.2803979 11.47481553 -0.5625 11.375 C-1.46355469 11.35695313 -2.36460937 11.33890625 -3.29296875 11.3203125 C-3.98003906 11.29710937 -4.66710937 11.27390625 -5.375 11.25 C-5.40188151 9.60425434 -5.42134123 7.95838587 -5.4375 6.3125 C-5.44910156 5.39597656 -5.46070313 4.47945313 -5.47265625 3.53515625 C-5.3027726 -0.44012112 -3.5409862 0.06875701 0 0 Z " fill="#F7F5EB" transform="translate(137.375,426.75)"/>
<path d="M0 0 C8.75 -0.125 8.75 -0.125 11 1 C11 1.66 11 2.32 11 3 C11.66 3 12.32 3 13 3 C13.1875 5.875 13.1875 5.875 13 9 C8.61501596 11.92332269 5.2225328 11.1356502 0 11 C0 7.37 0 3.74 0 0 Z " fill="#F9F6EC" transform="translate(359,427)"/>
<path d="M0 0 C0.66 0 1.32 0 2 0 C2 9.9 2 19.8 2 30 C-1.3 30 -4.6 30 -8 30 C-8 20.76 -8 11.52 -8 2 C-7.34 2 -6.68 2 -6 2 C-6 10.58 -6 19.16 -6 28 C-4.02 28 -2.04 28 0 28 C0 18.76 0 9.52 0 0 Z " fill="#FCA506" transform="translate(490,426)"/>
<path d="M0 0 C0.33 0.66 0.66 1.32 1 2 C2.32 2 3.64 2 5 2 C4.85795259 3.58367747 4.71119847 5.16693318 4.5625 6.75 C4.48128906 7.63171875 4.40007812 8.5134375 4.31640625 9.421875 C4 12 4 12 3.48632812 13.75390625 C2.84622389 16.71021095 2.88859686 19.49130998 2.90234375 22.515625 C2.90556641 23.76601563 2.90878906 25.01640625 2.91210938 26.3046875 C2.92048828 27.60664063 2.92886719 28.90859375 2.9375 30.25 C2.94201172 31.56742187 2.94652344 32.88484375 2.95117188 34.2421875 C2.96295684 37.49483741 2.97940989 40.74739584 3 44 C2.34 44 1.68 44 1 44 C0.67 35.09 0.34 26.18 0 17 C-0.33 17 -0.66 17 -1 17 C-1 15.35 -1 13.7 -1 12 C-1.66 12 -2.32 12 -3 12 C-2.40075776 7.80530429 -1.42500059 3.99000166 0 0 Z " fill="#EFAC42" transform="translate(199,244)"/>
<path d="M0 0 C0.33 0 0.66 0 1 0 C1.6701051 5.97111511 2.11406651 11.92923985 2.25 17.9375 C2.27578125 18.99839844 2.3015625 20.05929688 2.328125 21.15234375 C1.96127766 24.33605459 1.13656167 25.66664976 -1 28 C-3 26 -3 26 -3.24291992 23.89282227 C-3.23881104 23.04260498 -3.23470215 22.1923877 -3.23046875 21.31640625 C-3.22853516 20.38892578 -3.22660156 19.46144531 -3.22460938 18.50585938 C-3.21236328 17.53455078 -3.20011719 16.56324219 -3.1875 15.5625 C-3.18685547 14.59505859 -3.18621094 13.62761719 -3.18554688 12.63085938 C-3.14052002 5.42156007 -3.14052002 5.42156007 -2 2 C-1.34 2 -0.68 2 0 2 C0 1.34 0 0.68 0 0 Z " fill="#313148" transform="translate(298,222)"/>
<path d="M0 0 C2 3 2 3 2 6 C-1.63 6 -5.26 6 -9 6 C-8.01 7.485 -8.01 7.485 -7 9 C-3.41642759 9.25015873 -3.41642759 9.25015873 0 9 C-0.33 9.99 -0.66 10.98 -1 12 C-7.42210386 12.48468708 -7.42210386 12.48468708 -9.9375 10.375 C-11.30818153 7.31112364 -11.49453975 5.32048116 -11 2 C-7.82775887 -1.933579 -4.58022934 -1.18746687 0 0 Z " fill="#1E1C1D" transform="translate(398,473)"/>
<path d="M0 0 C0.99 0.66 1.98 1.32 3 2 C3.33 3.65 3.66 5.3 4 7 C0.37 7 -3.26 7 -7 7 C-6.01 8.485 -6.01 8.485 -5 10 C-1.41642759 10.25015873 -1.41642759 10.25015873 2 10 C1.67 10.99 1.34 11.98 1 13 C-5.42210386 13.48468708 -5.42210386 13.48468708 -7.9375 11.375 C-9.295454 8.33957342 -9.42030443 6.29238472 -9 3 C-6.78229215 -0.69617975 -4.0271794 -0.41949785 0 0 Z " fill="#1A1A1C" transform="translate(344,472)"/>
<path d="M0 0 C3.4375 0.75 3.4375 0.75 5.4375 2.75 C5.4375 4.07 5.4375 5.39 5.4375 6.75 C1.8075 6.75 -1.8225 6.75 -5.5625 6.75 C-4.5725 8.235 -4.5725 8.235 -3.5625 9.75 C-1.58502878 10.11297936 -1.58502878 10.11297936 0.5625 9.9375 C1.84125 9.875625 3.12 9.81375 4.4375 9.75 C4.4375 10.41 4.4375 11.07 4.4375 11.75 C1.59666359 13.17041821 -0.41727278 13.06452272 -3.5625 12.75 C-6 11.1875 -6 11.1875 -7.5625 8.75 C-7.5 5.125 -7.5 5.125 -6.5625 1.75 C-3.5625 -0.25 -3.5625 -0.25 0 0 Z " fill="#201F21" transform="translate(419.5625,472.25)"/>
<path d="M0 0 C2.7885289 -0.22107787 5.34653181 -0.28107535 8.125 -0.1875 C8.87910156 -0.17396484 9.63320312 -0.16042969 10.41015625 -0.14648438 C12.27374127 -0.11109985 14.13695978 -0.05729167 16 0 C16 1.98 16 3.96 16 6 C10.72 6 5.44 6 0 6 C0 5.34 0 4.68 0 4 C-0.66 3.67 -1.32 3.34 -2 3 C-1.34 2.01 -0.68 1.02 0 0 Z " fill="#FAA21B" transform="translate(174,420)"/>
<path d="M0 0 C1.875 1.25 1.875 1.25 3 3 C3 4.32 3 5.64 3 7 C-0.3 7 -3.6 7 -7 7 C-6.67 7.99 -6.34 8.98 -6 10 C-3.36 10 -0.72 10 2 10 C2 10.66 2 11.32 2 12 C-0.79870027 13.39935013 -2.90498792 13.25265405 -6 13 C-7.875 11.9375 -7.875 11.9375 -9 10 C-9.63316583 4.09045226 -9.63316583 4.09045226 -7.875 1.0625 C-5.11019567 -0.50422245 -3.11811483 -0.38976435 0 0 Z " fill="#191A1A" transform="translate(289,472)"/>
<path d="M0 0 C3.375 -0.125 3.375 -0.125 7 0 C9 2 9 2 9.1953125 4.6015625 C9.17210937 5.59929687 9.14890625 6.59703125 9.125 7.625 C9.10695312 8.62789063 9.08890625 9.63078125 9.0703125 10.6640625 C9.03550781 11.82035156 9.03550781 11.82035156 9 13 C7.54207116 13.05399736 6.08357288 13.09279177 4.625 13.125 C3.81289062 13.14820313 3.00078125 13.17140625 2.1640625 13.1953125 C0 13 0 13 -2 11 C-2 9.68 -2 8.36 -2 7 C0.95664519 5.5216774 3.74229737 5.93967217 7 6 C6.67 5.01 6.34 4.02 6 3 C3.69 3 1.38 3 -1 3 C-0.67 2.01 -0.34 1.02 0 0 Z " fill="#242223" transform="translate(218,472)"/>
<path d="M0 0 C7.2484945 -0.41640288 13.16914355 0.55833216 20 3 C19.01 3.495 19.01 3.495 18 4 C18 4.99 18 5.98 18 7 C18.99 6.67 19.98 6.34 21 6 C21.33 6.99 21.66 7.98 22 9 C21.00742187 8.73445312 20.01484375 8.46890625 18.9921875 8.1953125 C10.02325605 5.84651808 1.22010232 4.09488715 -8 3 C-8 2.67 -8 2.34 -8 2 C-5.36 2 -2.72 2 0 2 C0 1.34 0 0.68 0 0 Z " fill="#E7E5E4" transform="translate(328,174)"/>
<path d="M0 0 C5.94 1.485 5.94 1.485 12 3 C12.33 4.65 12.66 6.3 13 8 C11.35150947 9.64849053 9.44953365 9.2102571 7.1875 9.25 C6.31480469 9.27578125 5.44210938 9.3015625 4.54296875 9.328125 C1.56095623 8.94334919 0.2228886 7.96899223 -2 6 C-1.34 6 -0.68 6 0 6 C0 4.68 0 3.36 0 2 C0 1.34 0 0.68 0 0 Z " fill="#F8F5E6" transform="translate(204,440)"/>
<path d="M0 0 C0.66 0 1.32 0 2 0 C2 11.88 2 23.76 2 36 C-0.64 36 -3.28 36 -6 36 C-6 35.34 -6 34.68 -6 34 C-4.02 34 -2.04 34 0 34 C0 22.78 0 11.56 0 0 Z " fill="#FDA104" transform="translate(464,420)"/>
<path d="M0 0 C0.99 0.33 1.98 0.66 3 1 C4.17818227 7.22254783 3.91929158 13.13418209 3.5625 19.4375 C3.51029297 20.45521484 3.45808594 21.47292969 3.40429688 22.52148438 C3.27553907 25.01470369 3.1406198 27.50742633 3 30 C1.51831055 28.88745117 1.51831055 28.88745117 0 27 C-0.34057617 24.1809082 -0.34057617 24.1809082 -0.29296875 20.80078125 C-0.28330078 19.59228516 -0.27363281 18.38378906 -0.26367188 17.13867188 C-0.23853516 15.87603516 -0.21339844 14.61339844 -0.1875 13.3125 C-0.17396484 12.03826172 -0.16042969 10.76402344 -0.14648438 9.45117188 C-0.11108199 6.30035943 -0.0616979 3.15038955 0 0 Z " fill="#30304A" transform="translate(327,219)"/>
<path d="M0 0 C1.32 0 2.64 0 4 0 C4 0.66 4 1.32 4 2 C4.66 2 5.32 2 6 2 C6 2.66 6 3.32 6 4 C6.66 4 7.32 4 8 4 C8 2.68 8 1.36 8 0 C9.98 0 11.96 0 14 0 C14.66 1.32 15.32 2.64 16 4 C15.34 4 14.68 4 14 4 C14 4.66 14 5.32 14 6 C13.34 6 12.68 6 12 6 C12 6.66 12 7.32 12 8 C11.34 8 10.68 8 10 8 C10 8.66 10 9.32 10 10 C9.34 10 8.68 10 8 10 C8 9.34 8 8.68 8 8 C7.34 8 6.68 8 6 8 C6 7.34 6 6.68 6 6 C5.34 6 4.68 6 4 6 C4 5.34 4 4.68 4 4 C3.34 4 2.68 4 2 4 C2 3.34 2 2.68 2 2 C1.34 2 0.68 2 0 2 C0 1.34 0 0.68 0 0 Z " fill="#F7AB32" transform="translate(224,360)"/>
<path d="M0 0 C0.66 0 1.32 0 2 0 C2 1.98 2 3.96 2 6 C2.66 5.67 3.32 5.34 4 5 C7 4.8125 7 4.8125 10 5 C12 7 12 7 12.1953125 9.6015625 C12.17210937 10.59929687 12.14890625 11.59703125 12.125 12.625 C12.10695313 13.62789063 12.08890625 14.63078125 12.0703125 15.6640625 C12.03550781 16.82035156 12.03550781 16.82035156 12 18 C11.34 18 10.68 18 10 18 C9.67 14.7 9.34 11.4 9 8 C7.35 8 5.7 8 4 8 C2.41727399 9.58272601 2.65264253 11.38034003 2.4375 13.5625 C2.35371094 14.38878906 2.26992188 15.21507812 2.18359375 16.06640625 C2.12300781 16.70449219 2.06242187 17.34257812 2 18 C1.34 18 0.68 18 0 18 C0 12.06 0 6.12 0 0 Z " fill="#141414" transform="translate(371,467)"/>
<path d="M0 0 C9.625 -0.25 9.625 -0.25 13 2 C13.29296875 4.6015625 13.29296875 4.6015625 13.1875 7.625 C13.16042969 8.62789063 13.13335937 9.63078125 13.10546875 10.6640625 C13.07066406 11.43492187 13.03585937 12.20578125 13 13 C12.34 13 11.68 13 11 13 C10.67 9.7 10.34 6.4 10 3 C8.02 3 6.04 3 4 3 C3.67 6.3 3.34 9.6 3 13 C2.01 13 1.02 13 0 13 C0 8.71 0 4.42 0 0 Z " fill="#3D3B3D" transform="translate(263,472)"/>
<path d="M0 0 C0.66 0 1.32 0 2 0 C3.98960773 3.3183077 4.2361745 5.79959699 4.1953125 9.640625 C4.18564453 11.24550781 4.18564453 11.24550781 4.17578125 12.8828125 C4.15902344 13.99398438 4.14226562 15.10515625 4.125 16.25 C4.11597656 17.37664062 4.10695312 18.50328125 4.09765625 19.6640625 C4.07410658 22.44292365 4.0412168 25.2213539 4 28 C3.34 28.33 2.68 28.66 2 29 C2 23.39 2 17.78 2 12 C1.34 12 0.68 12 0 12 C0 8.04 0 4.08 0 0 Z " fill="#FBA418" transform="translate(196,256)"/>
<path d="M0 0 C2.375 1.0625 2.375 1.0625 4 3 C4.5 6.5 4.5 6.5 4 10 C1.77728061 12.65016543 0.3541854 12.94940209 -3.0625 13.4375 C-6 13 -6 13 -7.875 11.375 C-9.31414524 8.33680449 -9.42454541 6.32560568 -9 3 C-6.78557651 -0.69070582 -4.02540619 -0.49290688 0 0 Z M-7 4 C-7.33333333 6.5 -7.33333333 6.5 -7 9 C-5.10892859 11.33278733 -5.10892859 11.33278733 -1.9375 11.1875 C0.88833136 11.33187793 0.88833136 11.33187793 2 10 C2.16666667 6.5 2.16666667 6.5 2 3 C0.88833136 1.66812207 0.88833136 1.66812207 -1.9375 1.8125 C-5.10892859 1.66721267 -5.10892859 1.66721267 -7 4 Z " fill="#171818" transform="translate(328,472)"/>
<path d="M0 0 C2.9375 0.1875 2.9375 0.1875 3.9375 1.1875 C4.125 4.125 4.125 4.125 3.9375 7.1875 C3.2775 7.8475 2.6175 8.5075 1.9375 9.1875 C-1.1875 8.8125 -1.1875 8.8125 -4.0625 8.1875 C-4.6875 5.3125 -4.6875 5.3125 -5.0625 2.1875 C-3.0625 0.1875 -3.0625 0.1875 0 0 Z " fill="#EDEBEC" transform="translate(238.0625,473.8125)"/>
<path d="M0 0 C0.66 0 1.32 0 2 0 C2.50833591 1.24663331 3.00631145 2.49749387 3.5 3.75 C3.7784375 4.44609375 4.056875 5.1421875 4.34375 5.859375 C5 8 5 8 5 12 C2.03 12 -0.94 12 -4 12 C-3.67 10.02 -3.34 8.04 -3 6 C-2.34 6 -1.68 6 -1 6 C-0.67 4.02 -0.34 2.04 0 0 Z " fill="#F3ECE1" transform="translate(281,430)"/>
<path d="M0 0 C0.66 0 1.32 0 2 0 C2.6708712 1.6232687 3.33657029 3.24867578 4 4.875 C4.556875 6.23238281 4.556875 6.23238281 5.125 7.6171875 C6 10 6 10 6 12 C2.7 12 -0.6 12 -4 12 C-2.66666667 8 -1.33333333 4 0 0 Z " fill="#F4EDE5" transform="translate(404,430)"/>
<path d="M0 0 C0.66 0 1.32 0 2 0 C2 9.24 2 18.48 2 28 C-0.64 28 -3.28 28 -6 28 C-6 27.34 -6 26.68 -6 26 C-4.02 26 -2.04 26 0 26 C0 17.42 0 8.84 0 0 Z " fill="#FEA20B" transform="translate(248,428)"/>
<path d="M0 0 C5.80891746 4.81867247 11.13065552 10.01256408 16.4375 15.375 C17.26443359 16.20644531 18.09136719 17.03789062 18.94335938 17.89453125 C20.96455531 19.9274104 22.98336335 21.96259963 25 24 C24.34 24.66 23.68 25.32 23 26 C22.5560791 25.55084229 22.1121582 25.10168457 21.65478516 24.63891602 C19.64746397 22.61084393 17.63629001 20.58663584 15.625 18.5625 C14.92632812 17.85544922 14.22765625 17.14839844 13.5078125 16.41992188 C12.8375 15.74638672 12.1671875 15.07285156 11.4765625 14.37890625 C10.85861816 13.7557251 10.24067383 13.13254395 9.60400391 12.49047852 C8.05339933 10.90951849 8.05339933 10.90951849 6 10 C4.9935725 8.33720673 3.99414593 6.67016516 3 5 C2.443125 4.443125 1.88625 3.88625 1.3125 3.3125 C0.879375 2.879375 0.44625 2.44625 0 2 C0 1.34 0 0.68 0 0 Z " fill="#3E3F50" transform="translate(266,259)"/>
<path d="M0 0 C3.0625 0.1875 3.0625 0.1875 5.0625 2.1875 C5.25 4.75 5.25 4.75 5.0625 7.1875 C4.0625 8.1875 4.0625 8.1875 0.5625 8.3125 C-2.9375 8.1875 -2.9375 8.1875 -3.9375 7.1875 C-4.0625 4.1875 -4.0625 4.1875 -3.9375 1.1875 C-2.9375 0.1875 -2.9375 0.1875 0 0 Z " fill="#EFF0F0" transform="translate(307.9375,473.8125)"/>
<path d="M0 0 C2.05078125 0.03255208 4.1015625 0.06510417 6.15234375 0.09765625 C6.15234375 0.75765625 6.15234375 1.41765625 6.15234375 2.09765625 C3.84234375 2.09765625 1.53234375 2.09765625 -0.84765625 2.09765625 C-0.51765625 3.08765625 -0.18765625 4.07765625 0.15234375 5.09765625 C1.14234375 5.40703125 2.13234375 5.71640625 3.15234375 6.03515625 C4.14234375 6.38578125 5.13234375 6.73640625 6.15234375 7.09765625 C7.02734375 9.22265625 7.02734375 9.22265625 7.15234375 11.09765625 C3.50816635 13.52710785 1.43993103 13.259452 -2.84765625 13.09765625 C-3.17765625 12.43765625 -3.50765625 11.77765625 -3.84765625 11.09765625 C-0.87765625 11.09765625 2.09234375 11.09765625 5.15234375 11.09765625 C5.15234375 10.10765625 5.15234375 9.11765625 5.15234375 8.09765625 C4.03859375 7.97390625 2.92484375 7.85015625 1.77734375 7.72265625 C-1.84765625 7.09765625 -1.84765625 7.09765625 -3.84765625 5.09765625 C-3.1001104 0.16385362 -3.1001104 0.16385362 0 0 Z " fill="#242425" transform="translate(353.84765625,471.90234375)"/>
<path d="M0 0 C0.33 0 0.66 0 1 0 C1 10.56 1 21.12 1 32 C0.67 32 0.34 32 0 32 C-0.66 24.74 -1.32 17.48 -2 10 C-2.33 10 -2.66 10 -3 10 C-2.25 3.375 -2.25 3.375 0 0 Z " fill="#1A1A2D" transform="translate(300,214)"/>
<path d="M0 0 C0.33 0 0.66 0 1 0 C1 1.98 1 3.96 1 6 C2.98 6 4.96 6 7 6 C7 7.32 7 8.64 7 10 C7.66 10.33 8.32 10.66 9 11 C7.68 11.99 6.36 12.98 5 14 C5 13.34 5 12.68 5 12 C4.34 12 3.68 12 3 12 C3 11.34 3 10.68 3 10 C2.34 10 1.68 10 1 10 C1 10.66 1 11.32 1 12 C0.34 12 -0.32 12 -1 12 C-1 10.68 -1 9.36 -1 8 C-1.66 7.67 -2.32 7.34 -3 7 C-2.34 6.67 -1.68 6.34 -1 6 C-0.34227572 2.97065509 -0.34227572 2.97065509 0 0 Z " fill="#F2A83A" transform="translate(145,430)"/>
<path d="M0 0 C0.99 0 1.98 0 3 0 C3 6.27 3 12.54 3 19 C2.01 19 1.02 19 0 19 C0 12.73 0 6.46 0 0 Z " fill="#5D5C5C" transform="translate(249,466)"/>
<path d="M0 0 C0.33 0 0.66 0 1 0 C1 9.9 1 19.8 1 30 C1.66 30 2.32 30 3 30 C3 32.97 3 35.94 3 39 C2.01 38.67 1.02 38.34 0 38 C0 25.46 0 12.92 0 0 Z " fill="#CBCED5" transform="translate(316,272)"/>
<path d="M0 0 C0.66 0 1.32 0 2 0 C0.43358249 4.30764815 -1.68336156 8.06171464 -4 12 C-4.66 12 -5.32 12 -6 12 C-6 13.32 -6 14.64 -6 16 C-6.66 16 -7.32 16 -8 16 C-8.66 17.32 -9.32 18.64 -10 20 C-10 19.34 -10 18.68 -10 18 C-10.66 18 -11.32 18 -12 18 C-12 17.34 -12 16.68 -12 16 C-11.34 16 -10.68 16 -10 16 C-10 15.34 -10 14.68 -10 14 C-9.34 14 -8.68 14 -8 14 C-8 12.68 -8 11.36 -8 10 C-7.34 10 -6.68 10 -6 10 C-6 9.34 -6 8.68 -6 8 C-5.34 8 -4.68 8 -4 8 C-3.34 6.02 -2.68 4.04 -2 2 C-1.34 2 -0.68 2 0 2 C0 1.34 0 0.68 0 0 Z " fill="#F4B447" transform="translate(222,202)"/>
<path d="M0 0 C0.66 0 1.32 0 2 0 C2 6.6 2 13.2 2 20 C-0.64 20 -3.28 20 -6 20 C-6 19.34 -6 18.68 -6 18 C-4.02 18 -2.04 18 0 18 C0 12.06 0 6.12 0 0 Z " fill="#FEA408" transform="translate(438,436)"/>
<path d="M0 0 C-0.33 1.32 -0.66 2.64 -1 4 C-6.61 4 -12.22 4 -18 4 C-14.930275 2.4651375 -12.24100109 1.32531284 -9 0.3125 C-8.154375 0.04050781 -7.30875 -0.23148437 -6.4375 -0.51171875 C-3.8767932 -1.02468085 -2.44171002 -0.84216387 0 0 Z " fill="#D0D4D1" transform="translate(336,316)"/>
<path d="M0 0 C1.32 0 2.64 0 4 0 C3.45660208 4.56454251 2.20536179 7.9728176 0 12 C-0.66 12 -1.32 12 -2 12 C-2 8.7 -2 5.4 -2 2 C-1.34 2 -0.68 2 0 2 C0 1.34 0 0.68 0 0 Z " fill="#F7FAF5" transform="translate(334,156)"/>
<path d="M0 0 C2.31 0 4.62 0 7 0 C7 0.66 7 1.32 7 2 C6.01 2.33 5.02 2.66 4 3 C3.67 6.3 3.34 9.6 3 13 C2.01 13 1.02 13 0 13 C0 8.71 0 4.42 0 0 Z " fill="#4A484B" transform="translate(403,472)"/>
<path d="M0 0 C2.31 0 4.62 0 7 0 C7 2.64 7 5.28 7 8 C6.34 8 5.68 8 5 8 C5 7.34 5 6.68 5 6 C3.68 6 2.36 6 1 6 C1 5.34 1 4.68 1 4 C0.34 4 -0.32 4 -1 4 C-0.67 2.68 -0.34 1.36 0 0 Z " fill="#F9A41F" transform="translate(205,324)"/>
<path d="M0 0 C0.33 0 0.66 0 1 0 C1.1079859 2.43868168 1.18726589 4.87259133 1.25 7.3125 C1.30027344 8.34793945 1.30027344 8.34793945 1.3515625 9.40429688 C1.41442245 12.65729931 1.43775118 14.49971294 -0.75 17 C-4.45218819 18.64541697 -7.07399223 17.71976809 -11 17 C-10.67 16.34 -10.34 15.68 -10 15 C-8.906875 15.103125 -7.81375 15.20625 -6.6875 15.3125 C-5.470625 15.209375 -4.25375 15.10625 -3 15 C-0.99135641 12.6273026 -0.99135641 12.6273026 0 10 C-0.66 9.67 -1.32 9.34 -2 9 C-1.34 6.03 -0.68 3.06 0 0 Z " fill="#090B0A" transform="translate(314,472)"/>
<path d="M0 0 C3.63 0 7.26 0 11 0 C11 5.28 11 10.56 11 16 C10.34 15.67 9.68 15.34 9 15 C9 12.69 9 10.38 9 8 C8.67 8 8.34 8 8 8 C7.67 6.35 7.34 4.7 7 3 C4.69 2.34 2.38 1.68 0 1 C0 0.67 0 0.34 0 0 Z " fill="#615F60" transform="translate(234,472)"/>
<path d="M0 0 C0.99 0.33 1.98 0.66 3 1 C3.33 2.98 3.66 4.96 4 7 C3.01 7 2.02 7 1 7 C1 13.6 1 20.2 1 27 C0.67 27 0.34 27 0 27 C0 18.09 0 9.18 0 0 Z " fill="#3A3656" transform="translate(327,219)"/>
<path d="M0 0 C3.63 0 7.26 0 11 0 C10.67 1.98 10.34 3.96 10 6 C9.34 5.67 8.68 5.34 8 5 C8 4.67 8 4.34 8 4 C6.02 4 4.04 4 2 4 C1.34 2.68 0.68 1.36 0 0 Z " fill="#E0DFDF" transform="translate(389,479)"/>
<path d="M0 0 C3.63 0 7.26 0 11 0 C10.67 1.98 10.34 3.96 10 6 C9.34 5.67 8.68 5.34 8 5 C8 4.67 8 4.34 8 4 C6.02 4 4.04 4 2 4 C1.34 2.68 0.68 1.36 0 0 Z " fill="#DEDEDF" transform="translate(337,479)"/>
<path d="M0 0 C3.63 0 7.26 0 11 0 C11 0.33 11 0.66 11 1 C7.7 1 4.4 1 1 1 C1 7.27 1 13.54 1 20 C0.34 20 -0.32 20 -1 20 C-1 19.34 -1 18.68 -1 18 C-1.66 18 -2.32 18 -3 18 C-3 17.34 -3 16.68 -3 16 C-2.01 16 -1.02 16 0 16 C0 10.72 0 5.44 0 0 Z " fill="#F9EDCC" transform="translate(455,418)"/>
<path d="M0 0 C0.6875 1.8125 0.6875 1.8125 1 4 C0 5.75 0 5.75 -2 7 C-5.6875 7.1875 -5.6875 7.1875 -9 7 C-9.33 5.68 -9.66 4.36 -10 3 C-6.7 3 -3.4 3 0 3 C0 2.01 0 1.02 0 0 Z " fill="#DEDEDF" transform="translate(292,476)"/>
<path d="M0 0 C0.33 0 0.66 0 1 0 C1 3.3 1 6.6 1 10 C1.66 10 2.32 10 3 10 C3 12.64 3 15.28 3 18 C2.34 18.33 1.68 18.66 1 19 C1 16.69 1 14.38 1 12 C0.34 12 -0.32 12 -1 12 C-1.14285714 3.42857143 -1.14285714 3.42857143 0 0 Z " fill="#F4B24F" transform="translate(195,258)"/>
<path d="M0 0 C1.32 0 2.64 0 4 0 C4 0.66 4 1.32 4 2 C4.66 2 5.32 2 6 2 C6 2.66 6 3.32 6 4 C5.195625 4.28875 4.39125 4.5775 3.5625 4.875 C0.8673532 5.73262568 0.8673532 5.73262568 0 8 C-1.32 8 -2.64 8 -4 8 C-4 7.34 -4 6.68 -4 6 C-3.34 6 -2.68 6 -2 6 C-2 5.34 -2 4.68 -2 4 C-1.34 4 -0.68 4 0 4 C0 2.68 0 1.36 0 0 Z " fill="#F8A92F" transform="translate(406,338)"/>
<path d="M0 0 C0.99 0.33 1.98 0.66 3 1 C2.34 1.66 1.68 2.32 1 3 C0.83318891 6.08347826 0.83318891 6.08347826 1 9 C3.64 9 6.28 9 9 9 C8.67 9.66 8.34 10.32 8 11 C1.6217765 11.36103152 1.6217765 11.36103152 -0.9375 9.875 C-2.48138276 7.15050101 -2.3267107 5.07108055 -2 2 C-1.34 1.34 -0.68 0.68 0 0 Z " fill="#151314" transform="translate(233,473)"/>
<path d="M0 0 C6.86892178 -0.7230444 6.86892178 -0.7230444 10.08984375 1.3359375 C11.80497879 2.83010422 13.43160073 4.35318077 15 6 C14.01 7.485 14.01 7.485 13 9 C12.443125 8.195625 11.88625 7.39125 11.3125 6.5625 C8.68232993 3.64798721 7.73307795 3.55996169 4 3 C1.6875 1.4375 1.6875 1.4375 0 0 Z " fill="#373652" transform="translate(247,246)"/>
<path d="M0 0 C0.66 0 1.32 0 2 0 C2 0.66 2 1.32 2 2 C2.66 2 3.32 2 4 2 C4 3.32 4 4.64 4 6 C4.66 6 5.32 6 6 6 C6 8.64 6 11.28 6 14 C5.34 13.34 4.68 12.68 4 12 C4 10.68 4 9.36 4 8 C3.34 8 2.68 8 2 8 C2 6.68 2 5.36 2 4 C1.34 4 0.68 4 0 4 C0 2.68 0 1.36 0 0 Z " fill="#F6B03D" transform="translate(410,214)"/>
<path d="M0 0 C3.63 0 7.26 0 11 0 C10 3 10 3 8 4 C6.00039988 4.039992 3.99952758 4.04346799 2 4 C1.34 2.68 0.68 1.36 0 0 Z " fill="#DFDDE0" transform="translate(414,479)"/>
<path d="M0 0 C3.3 0 6.6 0 10 0 C8.02 0.99 8.02 0.99 6 2 C5.67 2.66 5.34 3.32 5 4 C0.71 3.67 -3.58 3.34 -8 3 C-8 2.67 -8 2.34 -8 2 C-5.36 2 -2.72 2 0 2 C0 1.34 0 0.68 0 0 Z " fill="#D8DADF" transform="translate(328,174)"/>
<path d="M0 0 C1.98 0 3.96 0 6 0 C6.33 1.32 6.66 2.64 7 4 C4.03 4 1.06 4 -2 4 C-1.34 2.68 -0.68 1.36 0 0 Z " fill="#D9D7DA" transform="translate(416,474)"/>
<path d="M0 0 C1.98 0 3.96 0 6 0 C6.33 1.32 6.66 2.64 7 4 C4.03 4 1.06 4 -2 4 C-1.34 2.68 -0.68 1.36 0 0 Z " fill="#D7D8D8" transform="translate(283,474)"/>
<path d="M0 0 C0.66 0 1.32 0 2 0 C2 3.3 2 6.6 2 10 C-0.64 10 -3.28 10 -6 10 C-6 9.34 -6 8.68 -6 8 C-4.02 8 -2.04 8 0 8 C0 5.36 0 2.72 0 0 Z " fill="#FBA30E" transform="translate(356,446)"/>
<path d="M0 0 C1.98 1.65 3.96 3.3 6 5 C3.00468461 5.99843846 1.82744268 6.00732761 -1.1875 5.5625 C-2.445625 5.376875 -3.70375 5.19125 -5 5 C-5 4.01 -5 3.02 -5 2 C-3.35 1.34 -1.7 0.68 0 0 Z " fill="#33324A" transform="translate(295,312)"/>
<path d="M0 0 C1.98 0 3.96 0 6 0 C6.66 1.32 7.32 2.64 8 4 C5.03 4 2.06 4 -1 4 C-0.67 2.68 -0.34 1.36 0 0 Z " fill="#DBD9DA" transform="translate(390,474)"/>
<path d="M0 0 C1.98 0 3.96 0 6 0 C6.66 1.32 7.32 2.64 8 4 C5.03 4 2.06 4 -1 4 C-0.67 2.68 -0.34 1.36 0 0 Z " fill="#DBDBDD" transform="translate(338,474)"/>
<path d="M0 0 C0.66 0 1.32 0 2 0 C2 0.66 2 1.32 2 2 C3.98 2 5.96 2 8 2 C8 1.34 8 0.68 8 0 C8.66 0 9.32 0 10 0 C10 0.66 10 1.32 10 2 C10.66 2 11.32 2 12 2 C12 2.66 12 3.32 12 4 C8.37 4 4.74 4 1 4 C0.67 2.68 0.34 1.36 0 0 Z " fill="#FCA410" transform="translate(370,452)"/>
<path d="M0 0 C0.66 0 1.32 0 2 0 C2 2.64 2 5.28 2 8 C-0.97 8 -3.94 8 -7 8 C-7 7.34 -7 6.68 -7 6 C-4.69 6 -2.38 6 0 6 C0 4.02 0 2.04 0 0 Z " fill="#FBA309" transform="translate(130,448)"/>
<path d="M0 0 C2.97 0.495 2.97 0.495 6 1 C5.01 1.495 5.01 1.495 4 2 C4 3.32 4 4.64 4 6 C2.02 6 0.04 6 -2 6 C-2 5.34 -2 4.68 -2 4 C-1.34 4 -0.68 4 0 4 C0 2.68 0 1.36 0 0 Z " fill="#F5AC38" transform="translate(198,446)"/>
<path d="M0 0 C0.86882812 -0.00515625 1.73765625 -0.0103125 2.6328125 -0.015625 C4.875 0.25 4.875 0.25 6.875 2.25 C6.215 2.25 5.555 2.25 4.875 2.25 C4.875 2.91 4.875 3.57 4.875 4.25 C4.215 4.25 3.555 4.25 2.875 4.25 C2.875 3.59 2.875 2.93 2.875 2.25 C-1.085 2.25 -5.045 2.25 -9.125 2.25 C-5.34803308 0.36151654 -4.00615229 -0.02391733 0 0 Z " fill="#EFAA3B" transform="translate(213.125,417.75)"/>
<path d="M0 0 C0.66 0.33 1.32 0.66 2 1 C1.67 1.78375 1.34 2.5675 1 3.375 C-0.11866511 5.84332497 -0.11866511 5.84332497 0 8 C-0.66 8 -1.32 8 -2 8 C-2 8.66 -2 9.32 -2 10 C-3.32 9.67 -4.64 9.34 -6 9 C-5.34 7.35 -4.68 5.7 -4 4 C-3.34 4 -2.68 4 -2 4 C-1.34 2.68 -0.68 1.36 0 0 Z " fill="#F6E9C5" transform="translate(228,196)"/>
<path d="M0 0 C0.33 0.66 0.66 1.32 1 2 C2.32 2 3.64 2 5 2 C4.67 5.3 4.34 8.6 4 12 C3.67 12 3.34 12 3 12 C2.855625 11.236875 2.71125 10.47375 2.5625 9.6875 C2.0367406 6.91827092 2.0367406 6.91827092 1 4 C0.34 4 -0.32 4 -1 4 C-0.67 2.68 -0.34 1.36 0 0 Z " fill="#F1B04F" transform="translate(199,244)"/>
<path d="M0 0 C0.33 0 0.66 0 1 0 C1 5.94 1 11.88 1 18 C0.67 18 0.34 18 0 18 C-0.33 14.37 -0.66 10.74 -1 7 C-1.66 7 -2.32 7 -3 7 C-1.125 1.125 -1.125 1.125 0 0 Z " fill="#383742" transform="translate(300,214)"/>
<path d="M0 0 C0.66 0 1.32 0 2 0 C2 3.96 2 7.92 2 12 C-0.95183101 9.04816899 -1.08663988 6.04488053 -2 2 C-1.34 2 -0.68 2 0 2 C0 1.34 0 0.68 0 0 Z " fill="#F3AC37" transform="translate(202,316)"/>
<path d="M0 0 C2 2 2 2 2 6 C1.34 6 0.68 6 0 6 C0 6.66 0 7.32 0 8 C-0.99 8 -1.98 8 -3 8 C-3.33 6.68 -3.66 5.36 -4 4 C-3.34 4 -2.68 4 -2 4 C-2 3.34 -2 2.68 -2 2 C-1.34 2 -0.68 2 0 2 C0 1.34 0 0.68 0 0 Z " fill="#F4AD42" transform="translate(426,244)"/>
<path d="M0 0 C1.98 0 3.96 0 6 0 C5.67 1.32 5.34 2.64 5 4 C3.02 4 1.04 4 -1 4 C-0.67 2.68 -0.34 1.36 0 0 Z " fill="#E7E5E6" transform="translate(219,479)"/>
<path d="M0 0 C1.98 0 3.96 0 6 0 C6.33 1.32 6.66 2.64 7 4 C4.69 4 2.38 4 0 4 C0 2.68 0 1.36 0 0 Z " fill="#E3E1E2" transform="translate(218,474)"/>
<path d="M0 0 C0.66 0.33 1.32 0.66 2 1 C1.01 2.485 1.01 2.485 0 4 C0 4.66 0 5.32 0 6 C-1.32 6.33 -2.64 6.66 -4 7 C-3.67 7.66 -3.34 8.32 -3 9 C-4.32 8.67 -5.64 8.34 -7 8 C-6.02133662 6.85373678 -5.04205413 5.70800212 -4.0625 4.5625 C-3.51722656 3.92441406 -2.97195313 3.28632813 -2.41015625 2.62890625 C-1.63204305 1.73008851 -0.84063472 0.84063472 0 0 Z " fill="#23243F" transform="translate(275,365)"/>
<path d="M0 0 C2.05078125 0.03255208 4.1015625 0.06510417 6.15234375 0.09765625 C6.15234375 0.75765625 6.15234375 1.41765625 6.15234375 2.09765625 C3.84234375 2.09765625 1.53234375 2.09765625 -0.84765625 2.09765625 C-1.17765625 3.08765625 -1.50765625 4.07765625 -1.84765625 5.09765625 C-2.50765625 5.09765625 -3.16765625 5.09765625 -3.84765625 5.09765625 C-2.72914438 0.14424653 -2.72914438 0.14424653 0 0 Z " fill="#3F3F40" transform="translate(353.84765625,471.90234375)"/>
<path d="M0 0 C3.0625 0.3125 3.0625 0.3125 4.9375 1.8125 C5.30875 2.3075 5.68 2.8025 6.0625 3.3125 C2.95022805 3.3125 0.12097848 2.85622951 -2.9375 2.3125 C-3.2675 3.3025 -3.5975 4.2925 -3.9375 5.3125 C-4.2675 4.3225 -4.5975 3.3325 -4.9375 2.3125 C-2.9375 0.3125 -2.9375 0.3125 0 0 Z " fill="#262628" transform="translate(340.9375,471.6875)"/>
<path d="M0 0 C0.66 0 1.32 0 2 0 C2 0.66 2 1.32 2 2 C2.66 2 3.32 2 4 2 C4 2.66 4 3.32 4 4 C0.7 4 -2.6 4 -6 4 C-6 3.34 -6 2.68 -6 2 C-4.02 2 -2.04 2 0 2 C0 1.34 0 0.68 0 0 Z " fill="#FCA30C" transform="translate(152,452)"/>
<path d="M0 0 C0.33 0.66 0.66 1.32 1 2 C2.98 2 4.96 2 7 2 C7.33 1.34 7.66 0.68 8 0 C8.33 1.32 8.66 2.64 9 4 C5.7 4 2.4 4 -1 4 C-0.67 2.68 -0.34 1.36 0 0 Z " fill="#EFDDC0" transform="translate(401,438)"/>
<path d="M0 0 C0.66 0 1.32 0 2 0 C2 0.66 2 1.32 2 2 C3.32 2 4.64 2 6 2 C6 2.66 6 3.32 6 4 C2.7 4 -0.6 4 -4 4 C-4 3.34 -4 2.68 -4 2 C-2.68 2 -1.36 2 0 2 C0 1.34 0 0.68 0 0 Z " fill="#F9A220" transform="translate(216,340)"/>
<path d="M0 0 C0.99 0 1.98 0 3 0 C2.37344168 2.92393881 1.5838192 5.44829129 0 8 C-0.99 8.33 -1.98 8.66 -3 9 C-2.01 6.03 -1.02 3.06 0 0 Z " fill="#252538" transform="translate(399,311)"/>
<path d="M0 0 C0 0.66 0 1.32 0 2 C-0.639375 2.28875 -1.27875 2.5775 -1.9375 2.875 C-4.15206079 3.82823451 -4.15206079 3.82823451 -5 6 C-6.65 5.67 -8.3 5.34 -10 5 C-3.63636364 0 -3.63636364 0 0 0 Z " fill="#E1E6E0" transform="translate(279,194)"/>
<path d="M0 0 C0.33 0 0.66 0 1 0 C1 3.3 1 6.6 1 10 C0.34 10 -0.32 10 -1 10 C-1 9.34 -1 8.68 -1 8 C-1.66 8 -2.32 8 -3 8 C-1.125 2.25 -1.125 2.25 0 0 Z " fill="#EEA93D" transform="translate(337,160)"/>
<path d="M0 0 C0.99 0.33 1.98 0.66 3 1 C1.5 2.5625 1.5 2.5625 -1 4 C-3.77437543 3.96823234 -6.25286467 3.50364148 -9 3 C-8.67 2.34 -8.34 1.68 -8 1 C-6.865625 1.020625 -5.73125 1.04125 -4.5625 1.0625 C-1.18424326 1.41577477 -1.18424326 1.41577477 0 0 Z " fill="#1D1E1F" transform="translate(312,486)"/>
<path d="M0 0 C0.66 0 1.32 0 2 0 C2.33 1.32 2.66 2.64 3 4 C0.03 4 -2.94 4 -6 4 C-6 3.34 -6 2.68 -6 2 C-4.02 2 -2.04 2 0 2 C0 1.34 0 0.68 0 0 Z " fill="#FBA20E" transform="translate(300,452)"/>
<path d="M0 0 C3.3 0 6.6 0 10 0 C9.01 0.495 9.01 0.495 8 1 C8 1.66 8 2.32 8 3 C6.02 3 4.04 3 2 3 C2 2.34 2 1.68 2 1 C1.34 0.67 0.68 0.34 0 0 Z " fill="#EDA53C" transform="translate(456,419)"/>
<path d="M0 0 C0.66 0.33 1.32 0.66 2 1 C4.3329866 1.04022391 6.66706666 1.04320247 9 1 C8.67 1.99 8.34 2.98 8 4 C4.625 4.1875 4.625 4.1875 1 4 C0.34 3.01 -0.32 2.02 -1 1 C-0.67 0.67 -0.34 0.34 0 0 Z " fill="#252525" transform="translate(389,481)"/>
<path d="M0 0 C0.66 0 1.32 0 2 0 C2 0.66 2 1.32 2 2 C2.66 2 3.32 2 4 2 C4 2.66 4 3.32 4 4 C4.99 4 5.98 4 7 4 C7 4.66 7 5.32 7 6 C5.35 6 3.7 6 2 6 C2 5.34 2 4.68 2 4 C1.34 4 0.68 4 0 4 C0 2.68 0 1.36 0 0 Z " fill="#F0E9D8" transform="translate(388,364)"/>
<path d="M0 0 C0.66 1.32 1.32 2.64 2 4 C1.34 4 0.68 4 0 4 C0 5.32 0 6.64 0 8 C-1.32 8 -2.64 8 -4 8 C-4 7.34 -4 6.68 -4 6 C-3.34 6 -2.68 6 -2 6 C-2 4.68 -2 3.36 -2 2 C-1.34 2 -0.68 2 0 2 C0 1.34 0 0.68 0 0 Z " fill="#F0EDE5" transform="translate(414,344)"/>
<path d="M0 0 C2.97 0 5.94 0 9 0 C8.67 1.32 8.34 2.64 8 4 C5.36 3.34 2.72 2.68 0 2 C0 1.34 0 0.68 0 0 Z " fill="#353736" transform="translate(305,472)"/>
<path d="M0 0 C2.64 0 5.28 0 8 0 C8 1.32 8 2.64 8 4 C7.34 4 6.68 4 6 4 C6 3.34 6 2.68 6 2 C4.02 2 2.04 2 0 2 C0 1.34 0 0.68 0 0 Z " fill="#FCA212" transform="translate(360,444)"/>
<path d="M0 0 C1.32 0 2.64 0 4 0 C4 1.32 4 2.64 4 4 C2.02 4 0.04 4 -2 4 C-2 3.34 -2 2.68 -2 2 C-1.34 2 -0.68 2 0 2 C0 1.34 0 0.68 0 0 Z " fill="#F6FDFB" transform="translate(404,436)"/>
<path d="M0 0 C2.95183101 2.95183101 3.08663988 5.95511947 4 10 C3.34 10 2.68 10 2 10 C2 9.34 2 8.68 2 8 C1.34 8 0.68 8 0 8 C0 5.36 0 2.72 0 0 Z " fill="#F1B14B" transform="translate(206,310)"/>
<path d="M0 0 C0.66 0 1.32 0 2 0 C2 1.98 2 3.96 2 6 C0.68 6 -0.64 6 -2 6 C-2 4.68 -2 3.36 -2 2 C-1.34 2 -0.68 2 0 2 C0 1.34 0 0.68 0 0 Z " fill="#F8A319" transform="translate(204,308)"/>
<path d="M0 0 C0.66 0 1.32 0 2 0 C2 1.32 2 2.64 2 4 C1.34 4 0.68 4 0 4 C0 5.32 0 6.64 0 8 C-0.66 8 -1.32 8 -2 8 C-2 6.02 -2 4.04 -2 2 C-1.34 2 -0.68 2 0 2 C0 1.34 0 0.68 0 0 Z " fill="#FCA20C" transform="translate(426,250)"/>
<path d="M0 0 C0.99 0.495 0.99 0.495 2 1 C2 2.32 2 3.64 2 5 C2.66 5.33 3.32 5.66 4 6 C3.01 7.485 3.01 7.485 2 9 C1.34 9 0.68 9 0 9 C0 6.03 0 3.06 0 0 Z " fill="#EDD9BB" transform="translate(332,159)"/>
<path d="M0 0 C0.66 0 1.32 0 2 0 C2 2.64 2 5.28 2 8 C1.34 8 0.68 8 0 8 C0 6.68 0 5.36 0 4 C-0.66 4 -1.32 4 -2 4 C-2 3.34 -2 2.68 -2 2 C-1.34 2 -0.68 2 0 2 C0 1.34 0 0.68 0 0 Z " fill="#FBA90D" transform="translate(286,152)"/>
<path d="M0 0 C0.33 0 0.66 0 1 0 C1 2.64 1 5.28 1 8 C-0.32 8 -1.64 8 -3 8 C-1.125 2.25 -1.125 2.25 0 0 Z " fill="#F3B351" transform="translate(271,430)"/>
<path d="M0 0 C2 1 2 1 2.6328125 2.84765625 C2.79523438 3.57855469 2.95765625 4.30945313 3.125 5.0625 C3.29257812 5.79597656 3.46015625 6.52945312 3.6328125 7.28515625 C3.75398438 7.85105469 3.87515625 8.41695313 4 9 C3.34 9 2.68 9 2 9 C2 8.34 2 7.68 2 7 C1.34 7 0.68 7 0 7 C0 4.69 0 2.38 0 0 Z " fill="#EDB14A" transform="translate(414,427)"/>
<path d="M0 0 C0.99 0 1.98 0 3 0 C3 1.32 3 2.64 3 4 C2.34 4 1.68 4 1 4 C1 4.66 1 5.32 1 6 C0.34 6 -0.32 6 -1 6 C-1.042721 4.33388095 -1.04063832 2.66617115 -1 1 C-0.67 0.67 -0.34 0.34 0 0 Z " fill="#F9A511" transform="translate(423,242)"/>
<path d="M0 0 C2.46800047 1.15173355 4.04783565 2.04783565 6 4 C4.68 4 3.36 4 2 4 C2 4.66 2 5.32 2 6 C1.34 6 0.68 6 0 6 C0 4.02 0 2.04 0 0 Z " fill="#EEB455" transform="translate(338,152)"/>
<path d="M0 0 C0.66 0 1.32 0 2 0 C2 0.66 2 1.32 2 2 C2.99 2 3.98 2 5 2 C4.67 3.32 4.34 4.64 4 6 C3.34 6 2.68 6 2 6 C2 5.34 2 4.68 2 4 C1.34 4 0.68 4 0 4 C0 2.68 0 1.36 0 0 Z " fill="#F1AB28" transform="translate(334,446)"/>
<path d="M0 0 C0.33 0 0.66 0 1 0 C1 3.3 1 6.6 1 10 C0.34 10 -0.32 10 -1 10 C-1 9.34 -1 8.68 -1 8 C-1.66 8 -2.32 8 -3 8 C-3 7.34 -3 6.68 -3 6 C-2.01 6 -1.02 6 0 6 C0 4.02 0 2.04 0 0 Z " fill="#EEEBE7" transform="translate(455,428)"/>
<path d="M0 0 C0.33 1.32 0.66 2.64 1 4 C0.01 4.33 -0.98 4.66 -2 5 C-2 7.31 -2 9.62 -2 12 C-2.33 12 -2.66 12 -3 12 C-3.36923077 4.61538462 -3.36923077 4.61538462 -1.5 1.5 C-1.005 1.005 -0.51 0.51 0 0 Z " fill="#F6B649" transform="translate(199,422)"/>
<path d="M0 0 C0.33 0 0.66 0 1 0 C1 2.64 1 5.28 1 8 C-0.32 8 -1.64 8 -3 8 C-3 7.34 -3 6.68 -3 6 C-2.34 6 -1.68 6 -1 6 C-0.67 4.02 -0.34 2.04 0 0 Z " fill="#F5AE3A" transform="translate(415,322)"/>
<path d="M0 0 C0.99 0.33 1.98 0.66 3 1 C3 2.98 3 4.96 3 7 C2.01 7.495 2.01 7.495 1 8 C1 6.35 1 4.7 1 3 C0.34 3 -0.32 3 -1 3 C-0.67 2.01 -0.34 1.02 0 0 Z " fill="#F3A73D" transform="translate(277,163)"/>
<path d="M0 0 C2.625 0.375 2.625 0.375 5 1 C4.4225 1.268125 3.845 1.53625 3.25 1.8125 C0.9674132 3.01719859 -0.9737942 4.40798115 -3 6 C-2.42655063 3.13275314 -2.1385485 2.1385485 0 0 Z " fill="#363837" transform="translate(322,472)"/>
<path d="M0 0 C0 0.66 0 1.32 0 2 C-0.66 2 -1.32 2 -2 2 C-2 2.66 -2 3.32 -2 4 C-2.66 4 -3.32 4 -4 4 C-4 3.34 -4 2.68 -4 2 C-4.66 2 -5.32 2 -6 2 C-6 1.34 -6 0.68 -6 0 C-2.25 -1.125 -2.25 -1.125 0 0 Z " fill="#F4A533" transform="translate(348,160)"/>
</svg>
