<svg width="20" height="20" viewBox="0 0 20 20" fill="none" xmlns="http://www.w3.org/2000/svg">
<path d="M5.00001 7.99998H8.00001V4.99998L4.50001 1.49998C5.61964 0.96525 6.87751 0.790782 8.1004 1.0006C9.3233 1.21041 10.4511 1.79419 11.3284 2.67155C12.2058 3.5489 12.7896 4.67668 12.9994 5.89958C13.2092 7.12248 13.0347 8.38035 12.5 9.49998L18.5 15.5C18.8978 15.8978 19.1213 16.4374 19.1213 17C19.1213 17.5626 18.8978 18.1022 18.5 18.5C18.1022 18.8978 17.5626 19.1213 17 19.1213C16.4374 19.1213 15.8978 18.8978 15.5 18.5L9.50001 12.5C8.38038 13.0347 7.12251 13.2092 5.89961 12.9994C4.67671 12.7895 3.54893 12.2058 2.67158 11.3284C1.79422 10.451 1.21045 9.32327 1.00063 8.10037C0.790813 6.87748 0.96528 5.61961 1.50001 4.49998L5.00001 7.99998Z" stroke="#FFA705" stroke-width="1.5" stroke-linecap="round" stroke-linejoin="round"/>
</svg>
