<svg width="25" height="15" viewBox="0 0 25 15" fill="none" xmlns="http://www.w3.org/2000/svg">
<path d="M5.61216 0C4.61016 0 3.68466 0.501 3.12741 1.33575L1.04166 4.4535C0.79619 4.82112 0.665652 5.25346 0.666657 5.6955V10.6642C0.665274 10.9972 0.775253 11.321 0.979103 11.5843C1.18295 11.8475 1.46897 12.035 1.79166 12.117L3.73716 12.6097C3.87708 13.2838 4.24457 13.8892 4.77797 14.3245C5.31137 14.7597 5.97823 14.9982 6.66666 15C8.05566 15 9.21516 14.0393 9.54966 12.75H16.5337C16.8682 14.0393 18.0277 15 19.4167 15C20.8057 15 21.9652 14.0393 22.2997 12.75H23.1667C23.9872 12.75 24.6667 12.0705 24.6667 11.25V8.508C24.6659 7.83949 24.4418 7.19039 24.03 6.66383C23.6181 6.13727 23.0421 5.76344 22.3934 5.60175L18.3382 4.5705L15.4087 1.0785C15.1284 0.741283 14.7774 0.469857 14.3805 0.283472C13.9836 0.0970869 13.5506 0.000308476 13.1122 0H5.61216ZM5.61216 1.5H8.91666V4.5H2.82291L4.37016 2.1795V2.15625C4.50604 1.95215 4.69075 1.78523 4.90751 1.67063C5.12427 1.55602 5.36698 1.49737 5.61216 1.5ZM10.4167 1.5H13.1122C13.5569 1.5 13.9762 1.6965 14.2604 2.03925L16.3229 4.5H10.4167V1.5ZM2.16666 6H17.8229L22.0417 7.0545C22.3654 7.13483 22.6525 7.32202 22.8567 7.58578C23.0609 7.84955 23.1701 8.17447 23.1667 8.508V11.25H22.2997C21.9652 9.96075 20.8057 9 19.4167 9C18.0277 9 16.8682 9.96075 16.5337 11.25H9.54966C9.21516 9.96075 8.05566 9 6.66666 9C5.33691 9 4.22016 9.879 3.83091 11.0858L2.16666 10.665V6ZM6.66666 10.5C7.50441 10.5 8.16666 11.1622 8.16666 12C8.16666 12.8378 7.50441 13.5 6.66666 13.5C5.82891 13.5 5.16666 12.8378 5.16666 12C5.16666 11.1622 5.82891 10.5 6.66666 10.5ZM19.4167 10.5C20.2544 10.5 20.9167 11.1622 20.9167 12C20.9167 12.8378 20.2544 13.5 19.4167 13.5C18.5789 13.5 17.9167 12.8378 17.9167 12C17.9167 11.1622 18.5789 10.5 19.4167 10.5Z" fill="#98A2B3"/>
</svg>
