<svg xmlns="http://www.w3.org/2000/svg" width="16.816" height="21.223" viewBox="0 0 16.816 21.223">
  <g id="Group_165" data-name="Group 165" transform="translate(0.778 0.75)">
    <path id="bell-2-svgrepo-com" d="M13.074,5.543a6.2,6.2,0,0,1,6.115,6.275v3.765L20.3,16.946a1.8,1.8,0,0,1-1.342,2.941H7.2a1.8,1.8,0,0,1-1.342-2.941l1.106-1.362V11.818A6.2,6.2,0,0,1,13.074,5.543Zm0,0V3.75m3.5,16.137a3.668,3.668,0,0,1-.266,1.372,3.594,3.594,0,0,1-.758,1.163,3.488,3.488,0,0,1-1.134.777,3.411,3.411,0,0,1-2.674,0,3.488,3.488,0,0,1-1.134-.777,3.594,3.594,0,0,1-.757-1.163,3.667,3.667,0,0,1-.266-1.372Z" transform="translate(-5.445 -3.75)" fill="none" stroke="#fece49" stroke-linecap="round" stroke-linejoin="round" stroke-width="1.5"/>
  </g>
</svg>
