<svg xmlns="http://www.w3.org/2000/svg" width="23.47" height="23.47" viewBox="0 0 23.47 23.47">
  <g id="Home--Active" transform="translate(-12.437 -12.434)">
    <path id="discount-svgrepo-com" d="M15.585,9.751l-5,6.668m5.834-.833a.833.833,0,1,1-.833-.833A.833.833,0,0,1,16.419,15.585Zm-5-5a.833.833,0,1,1-.833-.833A.833.833,0,0,1,11.418,10.585Zm12.5,2.5c0,1.334-1.834,2.334-2.334,3.5-.5,1.25.083,3.25-.833,4.167s-2.917.333-4.167.833c-1.167.5-2.167,2.334-3.5,2.334s-2.334-1.834-3.5-2.334c-1.25-.5-3.25.083-4.167-.833s-.333-2.917-.833-4.167c-.5-1.167-2.334-2.167-2.334-3.5s1.834-2.334,2.334-3.5c.5-1.25-.083-3.25.833-4.167s2.917-.333,4.167-.833c1.167-.5,2.167-2.334,3.5-2.334s2.334,1.834,3.5,2.334c1.25.5,3.25-.083,4.167.833s.333,2.917.833,4.167C22.086,10.751,23.92,11.751,23.92,13.085Z" transform="translate(11.087 11.084)" fill="none" stroke="#373737" stroke-linecap="round" stroke-linejoin="round" stroke-width="1.8"/>
  </g>
</svg>
