<svg width="16" height="21" viewBox="0 0 16 21" fill="none" xmlns="http://www.w3.org/2000/svg">
<path d="M5.07 6L2 10.606V19H14V6H5.07ZM4 4H15C15.2652 4 15.5196 4.10536 15.7071 4.29289C15.8946 4.48043 16 4.73478 16 5V20C16 20.2652 15.8946 20.5196 15.7071 20.7071C15.5196 20.8946 15.2652 21 15 21H1C0.734784 21 0.48043 20.8946 0.292893 20.7071C0.105357 20.5196 0 20.2652 0 20V10L4 4ZM9 0H14C14.2652 0 14.5196 0.105357 14.7071 0.292893C14.8946 0.48043 15 0.734784 15 1V3H8V1C8 0.734784 8.10536 0.48043 8.29289 0.292893C8.48043 0.105357 8.73478 0 9 0ZM4 11H6V17H4V11Z" fill="#FFA705"/>
</svg>
