<svg xmlns="http://www.w3.org/2000/svg" width="17.516" height="17.505" viewBox="0 0 17.516 17.505">
  <path id="phone" d="M18.844,9.857a17.217,17.217,0,0,1-8.922,8.663l-.012.005-.764.34a2.25,2.25,0,0,1-2.739-.738L5.132,16.364a.25.25,0,0,1,.046-.341L7.4,14.228a.25.25,0,0,1,.358.046l.866,1.168a.75.75,0,0,0,.912.237,13.388,13.388,0,0,0,6.67-6.67.75.75,0,0,0-.237-.912L14.8,7.231a.25.25,0,0,1-.046-.358l1.8-2.225a.25.25,0,0,1,.341-.046l1.773,1.28A2.25,2.25,0,0,1,19.4,8.638l-.553,1.217ZM10.514,19.9a18.717,18.717,0,0,0,9.694-9.417v0l.555-1.22a3.75,3.75,0,0,0-1.219-4.593l-1.773-1.28a1.75,1.75,0,0,0-2.386.32l-1.8,2.225a1.75,1.75,0,0,0,.32,2.5l.67.5A11.892,11.892,0,0,1,9.461,14.05l-.5-.67a1.75,1.75,0,0,0-2.5-.32L4.236,14.855a1.75,1.75,0,0,0-.32,2.387L5.19,19.006a3.75,3.75,0,0,0,4.566,1.229Z" transform="translate(-3.584 -3.055)" fill="#8d5aa5" fill-rule="evenodd"/>
</svg>
