<svg width="221" height="228" viewBox="0 0 221 228" fill="none" xmlns="http://www.w3.org/2000/svg">
<path d="M23.5351 99.4558C23.5351 99.4558 62.306 97.9032 70.6844 34.1721C78.1247 -22.4273 143.503 3.3347 162.401 25.8965C186.882 55.1235 173.832 105.4 205.501 111.751C237.17 118.103 216.49 188.719 168.418 181.96C108.618 173.552 123.086 208.496 105.134 223.286C92.2506 233.901 39.4234 223.683 37.6628 185.149C36.1812 152.724 22.5034 152.826 12.8086 149.15C-1.17365 143.847 -9.98398 105.444 23.5351 99.4558Z" fill="#FFFADA"/>
<path d="M155.334 170.233L117.243 132.594L109.701 140.227L147.792 177.866L155.334 170.233Z" fill="#FFC205"/>
<path d="M169.885 180.347L140.25 151.063C140.085 150.9 139.819 150.902 139.656 151.067L128.44 162.418C128.276 162.583 128.278 162.849 128.443 163.012L158.078 192.296C158.243 192.459 158.509 192.457 158.672 192.292L169.889 180.941C170.052 180.776 170.05 180.51 169.885 180.347Z" fill="#FFC205"/>
<path d="M83.4827 151.524C109.688 151.524 130.932 130.28 130.932 104.074C130.932 77.8685 109.688 56.6247 83.4827 56.6247C57.2771 56.6247 36.0332 77.8685 36.0332 104.074C36.0332 130.28 57.2771 151.524 83.4827 151.524Z" fill="#FFC205"/>
<path d="M83.4827 143.782C105.412 143.782 123.19 126.004 123.19 104.074C123.19 82.1447 105.412 64.3672 83.4827 64.3672C61.553 64.3672 43.7755 82.1447 43.7755 104.074C43.7755 126.004 61.553 143.782 83.4827 143.782Z" fill="#FFFADA"/>
</svg>
