<svg width="24" height="24" viewBox="0 0 24 24" fill="none" xmlns="http://www.w3.org/2000/svg">
<path d="M19.226 6.23653L17.8686 4.87912L21.7502 4.875L21.7486 3.375L15.3744 3.38175V9.75H16.8744V6.00619L18.1653 7.29717C19.1642 8.29617 19.8447 9.56873 20.1209 10.9542C20.397 12.3396 20.2565 13.7759 19.717 15.0815C19.1775 16.3871 18.2632 17.5036 17.0896 18.29C15.916 19.0764 14.5358 19.4975 13.123 19.5L13.1257 21C14.8348 20.997 16.5047 20.4876 17.9246 19.5361C19.3444 18.5847 20.4506 17.2339 21.1033 15.6543C21.756 14.0747 21.926 12.3371 21.5919 10.6609C21.2578 8.98474 20.4345 7.44515 19.226 6.23653Z" fill="black"/>
<path d="M10.8769 4.875L10.8743 3.375C9.16512 3.37804 7.4952 3.88743 6.07535 4.83886C4.65549 5.79029 3.54939 7.14109 2.89669 8.72071C2.24398 10.3003 2.07396 12.0379 2.40808 13.7141C2.74219 15.3903 3.56547 16.9299 4.77396 18.1385L6.13549 19.5H2.25058V21H8.62558V14.625H7.12558V18.3688L5.8346 17.0778C4.83573 16.0788 4.15525 14.8063 3.87909 13.4208C3.60293 12.0354 3.74347 10.5991 4.28297 9.29351C4.82247 7.98788 5.73673 6.87137 6.91032 6.08496C8.08391 5.29856 9.46419 4.87751 10.8769 4.875Z" fill="black"/>
</svg>
